<svg width="32" height="36" viewBox="0 0 32 36" fill="none" xmlns="http://www.w3.org/2000/svg">
<path d="M21.7004 4.20012C21.6974 4.20012 21.2984 4.32462 20.6219 4.53312C20.5094 4.16712 20.3429 3.71712 20.1059 3.26562C19.3424 1.80763 18.2234 1.03663 16.8719 1.03513H16.8674C16.7744 1.03513 16.6799 1.04413 16.5869 1.05313C16.5479 1.00513 16.5074 0.957132 16.4654 0.912132C15.8774 0.282134 15.1214 -0.0253646 14.2169 0.00163531C12.471 0.0511351 10.7325 1.31263 9.32246 3.55212C8.32947 5.12712 7.57647 7.10711 7.36197 8.6401C5.35648 9.2611 3.95399 9.6946 3.92399 9.7051C2.91299 10.0216 2.88149 10.0531 2.74799 11.0071C2.64749 11.7286 0 32.202 0 32.202L21.9659 36V4.15512C21.8579 4.16262 21.7619 4.18212 21.7004 4.20012ZM16.6289 5.77061C15.4664 6.13061 14.1974 6.52361 12.924 6.91811C13.2825 5.54711 13.9604 4.18212 14.7944 3.28812C15.1049 2.95512 15.5384 2.58463 16.0514 2.37163C16.5359 3.37812 16.6394 4.80612 16.6289 5.77061ZM14.2499 1.16263C14.6594 1.15363 15.0044 1.24363 15.2999 1.43863C14.8289 1.68313 14.3714 2.03563 13.9439 2.49463C12.8355 3.68412 11.9865 5.53211 11.6475 7.31261C10.59 7.63961 9.55646 7.96061 8.60397 8.2546C9.20397 5.44961 11.556 1.24063 14.2499 1.16263ZM10.8525 17.1406C10.971 19.0096 15.8864 19.4176 16.1624 23.7945C16.3799 27.2385 14.3354 29.5935 11.391 29.7795C7.85697 30.003 5.91148 27.9165 5.91148 27.9165L6.65997 24.7305C6.65997 24.7305 8.61897 26.208 10.1865 26.109C11.211 26.0445 11.577 25.212 11.5395 24.6225C11.385 22.1851 7.38297 22.3291 7.12947 18.3226C6.91647 14.9521 9.13047 11.5366 14.0144 11.2276C15.8969 11.1091 16.8599 11.5891 16.8599 11.5891L15.7424 15.7681C15.7424 15.7681 14.4959 15.2011 13.02 15.2941C10.854 15.4321 10.8315 16.7971 10.8525 17.1406ZM17.7884 5.41061C17.7749 4.52712 17.6699 3.29712 17.2574 2.23363C18.5819 2.48413 19.2344 3.98412 19.5104 4.87812C19.0004 5.03562 18.4184 5.21562 17.7884 5.41061Z" fill="white"/>
<path d="M22.6934 35.9128L31.8058 33.6479C31.8058 33.6479 27.8818 7.12195 27.8578 6.93896C27.8323 6.75746 27.6733 6.65696 27.5428 6.64496C27.4108 6.63446 24.8459 6.59546 24.8459 6.59546C24.8459 6.59546 23.2814 5.07596 22.6934 4.50146V35.9128Z" fill="white"/>
</svg>
