<svg width="36" height="36" viewBox="0 0 36 36" fill="none" xmlns="http://www.w3.org/2000/svg">
<g clip-path="url(#clip0_580_6645)">
<path d="M4.5 31.5015L16.5015 31.5105L16.4985 36H0V4.5C0 2.019 2.019 0 4.5 0H21.5715L30 8.4975V16.5105H25.5V12H18V4.5H4.5V31.5015ZM16.1115 22.5H7.5V27H14.718L16.1115 22.5ZM7.5 15.0105V19.5105H17.0685L18.51 15.0105H7.5ZM33.75 21.0105H28.5V19.5105H25.5V21.0105H20.25L18 27.9285V28.428C18 30.129 19.3785 31.509 21.081 31.509C22.6665 31.509 23.973 30.3105 24.144 28.77H24.1635V27.9075L22.7685 24.009H25.5V33.009H21V35.9985H33V33.009H28.5V24.009H31.263L30 28.005V28.509C30 30.165 31.3425 31.509 33 31.509C34.6575 31.509 36 30.165 36 28.509V28.005L33.75 21.009V21.0105Z" fill="white"/>
</g>
<defs>
<clipPath id="clip0_580_6645">
<rect width="36" height="36" fill="white"/>
</clipPath>
</defs>
</svg>
