<svg width="36" height="36" viewBox="0 0 36 36" fill="none" xmlns="http://www.w3.org/2000/svg">
<g clip-path="url(#clip0_580_6656)">
<path d="M16.5 21.7499C16.5 22.9919 15.492 23.9999 14.25 23.9999C13.008 23.9999 12 22.9919 12 21.7499C12 20.5079 13.008 19.4999 14.25 19.4999C15.492 19.4999 16.5 20.5079 16.5 21.7499ZM21.75 19.4999C20.508 19.4999 19.5 20.5079 19.5 21.7499C19.5 22.9919 20.508 23.9999 21.75 23.9999C22.992 23.9999 24 22.9919 24 21.7499C24 20.5079 22.992 19.4999 21.75 19.4999ZM30 19.4999V23.9999C30.012 24.8774 29.175 25.6619 28.299 25.4594C27.642 28.0619 25.302 29.9999 22.5 29.9999H13.5C10.698 29.9999 8.3565 28.0619 7.701 25.4594C6.8265 25.6619 5.9895 24.8774 6 23.9999V19.4999C5.988 18.6224 6.825 17.8379 7.701 18.0404C8.358 15.4394 10.698 13.4999 13.5 13.4999H16.5V11.9999C16.5 11.1704 17.172 10.4999 18 10.4999C18.828 10.4999 19.5 11.1704 19.5 11.9999V13.4999H22.5C25.302 13.4999 27.6435 15.4379 28.299 18.0404C29.1735 17.8379 30.0105 18.6224 30 19.4999ZM25.5 19.4999C25.5 17.8454 24.1545 16.4999 22.5 16.4999H13.5C11.8455 16.4999 10.5 17.8454 10.5 19.4999V23.9999C10.5 25.6544 11.8455 26.9999 13.5 26.9999H22.5C24.1545 26.9999 25.5 25.6544 25.5 23.9999V19.4999ZM36 14.5859V28.4999C36 32.6354 32.6355 35.9999 28.5 35.9999H7.5C3.3645 35.9999 0 32.6354 0 28.4999V14.5859C0 12.0884 1.236 9.76491 3.306 8.36841L13.8045 1.28241C16.353 -0.436586 19.647 -0.436586 22.1955 1.28241L32.6955 8.36841C34.764 9.76491 36 12.0869 36 14.5859ZM33 14.5859C33 13.0874 32.259 11.6939 31.017 10.8569L20.517 3.77091C19.7535 3.25341 18.876 2.99541 18 2.99541C17.124 2.99541 16.248 3.25341 15.483 3.77091L4.983 10.8554C3.741 11.6939 3 13.0859 3 14.5844V28.4984C3 30.9794 5.019 32.9984 7.5 32.9984H28.5C30.981 32.9984 33 30.9794 33 28.4984V14.5859Z" fill="white"/>
</g>
<defs>
<clipPath id="clip0_580_6656">
<rect width="36" height="36" fill="white"/>
</clipPath>
</defs>
</svg>
