<svg width="36" height="36" viewBox="0 0 36 36" fill="none" xmlns="http://www.w3.org/2000/svg">
<g clip-path="url(#clip0_580_6667)">
<path d="M3.2355 23.9355C2.0595 24.231 0.8055 23.502 0.5145 22.2855C0.1725 20.892 0 19.4505 0 18C0 8.0745 8.0745 0 18 0C21.2805 0 24.402 0.873 27.165 2.5185L29.304 0.3795C30.114 -0.4305 31.5 0.1425 31.5 1.29V7.5C31.5 8.328 30.828 9 30 9H23.79C22.644 9 22.0695 7.614 22.8795 6.804L23.847 5.8365C22.0395 4.9635 20.0625 4.5 18 4.5C10.5555 4.5 4.5 10.5555 4.5 18C4.5 19.092 4.629 20.172 4.8855 21.2145C5.181 22.422 4.443 23.64 3.2355 23.9355ZM26.2695 15.8235L25.9905 15.984C26.1525 16.6305 26.2485 17.3025 26.2485 18C26.2485 18.6975 26.1525 19.3695 25.9905 20.016L26.2695 20.1765C27.345 20.7975 27.714 22.173 27.093 23.25C26.472 24.3255 25.0965 24.6945 24.0195 24.0735L23.7435 23.9145C22.7775 24.8535 21.582 25.554 20.2485 25.932V26.25C20.2485 27.492 19.2405 28.5 17.9985 28.5C16.7565 28.5 15.7485 27.492 15.7485 26.25V25.932C14.415 25.554 13.2195 24.8535 12.2535 23.9145L11.9775 24.0735C10.902 24.6945 9.525 24.3255 8.904 23.25C8.283 22.1745 8.652 20.7975 9.7275 20.1765L10.0065 20.016C9.8445 19.3695 9.7485 18.6975 9.7485 18C9.7485 17.3025 9.8445 16.6305 10.0065 15.984L9.7275 15.8235C8.652 15.2025 8.283 13.8255 8.904 12.75C9.525 11.6745 10.9005 11.3055 11.9775 11.9265L12.2535 12.0855C13.2195 11.1465 14.415 10.446 15.7485 10.068V9.75C15.7485 8.508 16.7565 7.5 17.9985 7.5C19.2405 7.5 20.2485 8.508 20.2485 9.75V10.068C21.582 10.446 22.7775 11.1465 23.7435 12.0855L24.0195 11.9265C25.095 11.3055 26.472 11.6745 27.093 12.75C27.714 13.8255 27.345 15.2025 26.2695 15.8235ZM15 18C15 17.172 14.328 16.5 13.5 16.5C12.672 16.5 12 17.172 12 18V19.5C12 20.328 12.672 21 13.5 21C14.328 21 15 20.328 15 19.5V18ZM19.5 15C19.5 14.172 18.828 13.5 18 13.5C17.172 13.5 16.5 14.172 16.5 15V19.5C16.5 20.328 17.172 21 18 21C18.828 21 19.5 20.328 19.5 19.5V15ZM24 16.5C24 15.672 23.328 15 22.5 15C21.672 15 21 15.672 21 16.5V19.5C21 20.328 21.672 21 22.5 21C23.328 21 24 20.328 24 19.5V16.5ZM35.4855 13.7145C35.19 12.507 33.972 11.7675 32.7645 12.0645C31.557 12.36 30.819 13.5795 31.1145 14.7855C31.371 15.8265 31.5 16.908 31.5 18C31.5 25.4445 25.4445 31.5 18 31.5C15.9435 31.5 13.9605 31.0275 12.1575 30.1605L13.1205 29.1975C13.9305 28.3875 13.3575 27.0015 12.21 27.0015H6C5.172 27.0015 4.5 27.6735 4.5 28.5015V34.7115C4.5 35.8575 5.886 36.432 6.696 35.622L8.8395 33.4785C11.589 35.1105 14.727 36.0015 18 36.0015C27.9255 36.0015 36 27.927 36 18.0015C36 16.5495 35.8275 15.108 35.4855 13.716V13.7145Z" fill="white"/>
</g>
<defs>
<clipPath id="clip0_580_6667">
<rect width="36" height="36" fill="white"/>
</clipPath>
</defs>
</svg>
