<svg width="36" height="36" viewBox="0 0 36 36" fill="none" xmlns="http://www.w3.org/2000/svg">
<g clip-path="url(#clip0_580_6679)">
<path d="M19.5 13.5C17.8425 13.5 16.5 12.1575 16.5 10.5V4.5H8.25C6.183 4.5 4.5 6.183 4.5 8.25V27.75C4.5 29.817 6.183 31.5 8.25 31.5H12.75C13.9935 31.5 15 32.5065 15 33.75C15 34.9935 13.9935 36 12.75 36H8.25C3.7005 36 0 32.2995 0 27.75V8.25C0 3.7005 3.7005 0 8.25 0H17.7645C19.968 0 22.0395 0.858 23.598 2.4165L27.5835 6.402C29.142 7.9605 30 10.0305 30 12.2355V14.25C30 15.4935 28.9935 16.5 27.75 16.5C26.5065 16.5 25.5 15.4935 25.5 14.25V13.5H19.5ZM35.268 19.2735C33.9555 17.6685 31.584 17.58 30.1545 19.0095L19.9425 29.2215C18.723 30.441 18.039 32.094 18.039 33.8175V35.25C18.039 35.664 18.375 36 18.789 36H20.2215C21.945 36 23.5995 35.3145 24.8175 34.0965L34.89 24.024C36.165 22.749 36.4095 20.67 35.268 19.2735Z" fill="white"/>
</g>
<defs>
<clipPath id="clip0_580_6679">
<rect width="36" height="36" fill="white"/>
</clipPath>
</defs>
</svg>
