<svg width="36" height="36" viewBox="0 0 36 36" fill="none" xmlns="http://www.w3.org/2000/svg">
<g clip-path="url(#clip0_580_6690)">
<path d="M9 6.75C9 7.992 7.992 9 6.75 9C5.508 9 4.5 7.992 4.5 6.75C4.5 5.508 5.508 4.5 6.75 4.5C7.992 4.5 9 5.508 9 6.75ZM12.75 4.5C11.508 4.5 10.5 5.508 10.5 6.75C10.5 7.992 11.508 9 12.75 9C13.992 9 15 7.992 15 6.75C15 5.508 13.992 4.5 12.75 4.5ZM36 7.5V25.5C36 29.6355 32.6355 33 28.5 33H25.5C24.672 33 24 32.328 24 31.5C24 30.672 24.672 30 25.5 30H28.5C30.981 30 33 27.981 33 25.5V13.5H3C3 14.328 2.328 15 1.5 15C0.672 15 0 14.328 0 13.5V7.5C0 3.3645 3.3645 0 7.5 0H28.5C32.6355 0 36 3.3645 36 7.5ZM33 10.5V7.5C33 5.019 30.981 3 28.5 3H7.5C5.019 3 3 5.019 3 7.5V10.5H33ZM26.763 26.6865L27.3735 27.0375C28.0785 27.447 29.0055 27.2115 29.4225 26.487C29.8365 25.7685 29.5905 24.852 28.872 24.438L28.263 24.087C28.404 23.5785 28.5 23.052 28.5 22.4985C28.5 21.945 28.4055 21.417 28.263 20.9085L28.758 20.6235C29.4765 20.2095 29.7225 19.293 29.3085 18.5745C28.8945 17.856 27.975 17.6085 27.2595 18.024L26.7555 18.315C26.004 17.5575 25.0635 16.9875 23.9985 16.7115C23.9985 15.6525 23.4195 14.9925 22.4985 14.9985C21.6705 14.9985 20.9985 15.6705 20.9985 16.4985V17.0535C21.6075 17.811 22.146 18.627 22.5825 19.5075C24.1995 19.5525 25.4985 20.871 25.4985 22.4985C25.4985 23.6145 24.882 24.576 23.9775 25.0935C23.982 25.23 23.9985 25.362 23.9985 25.4985C23.9985 26.4885 23.8845 27.45 23.6835 28.3785C24.882 28.137 25.9365 27.525 26.7615 26.685L26.763 26.6865ZM21 25.5C21 31.29 16.29 36 10.5 36C4.71 36 0 31.29 0 25.5C0 19.71 4.71 15 10.5 15C16.29 15 21 19.71 21 25.5ZM18 25.5C18 21.3645 14.6355 18 10.5 18C6.3645 18 3 21.3645 3 25.5C3 29.6355 6.3645 33 10.5 33C14.6355 33 18 29.6355 18 25.5ZM12.363 21.003C11.3355 19.9755 9.663 19.9755 8.6355 21.003L6.3855 23.253C6.0075 23.6295 5.892 24.1965 6.1005 24.69C6.303 25.182 6.7845 25.5015 7.3185 25.5015H9V28.5015C9 29.3295 9.672 30.0015 10.5 30.0015C11.328 30.0015 12 29.3295 12 28.5015V25.5015H13.6815C14.214 25.5015 14.6955 25.182 14.8995 24.69C15.102 24.2025 14.9925 23.6325 14.6145 23.253L12.3645 21.003H12.363Z" fill="white"/>
</g>
<defs>
<clipPath id="clip0_580_6690">
<rect width="36" height="36" fill="white"/>
</clipPath>
</defs>
</svg>
