<svg width="36" height="36" viewBox="0 0 36 36" fill="none" xmlns="http://www.w3.org/2000/svg">
<g clip-path="url(#clip0_580_6701)">
<path d="M28.5 1.5H7.5C3.3645 1.5 0 4.8645 0 9V21C0 25.1355 3.3645 28.5 7.5 28.5H16.5V31.5H10.5C9.6705 31.5 9 32.1705 9 33C9 33.8295 9.6705 34.5 10.5 34.5H25.5C26.3295 34.5 27 33.8295 27 33C27 32.1705 26.3295 31.5 25.5 31.5H19.5V28.5H28.5C32.6355 28.5 36 25.1355 36 21V9C36 4.8645 32.6355 1.5 28.5 1.5ZM7.5 4.5H28.5C30.981 4.5 33 6.519 33 9V19.5H3V9C3 6.519 5.019 4.5 7.5 4.5ZM28.5 25.5H7.5C5.547 25.5 3.897 24.2415 3.276 22.5H32.724C32.103 24.2415 30.453 25.5 28.5 25.5ZM20.7 18H22.95C24.855 18 26.4 16.455 26.4 14.55V9.45C26.4 7.545 24.855 6 22.95 6H20.7C20.037 6 19.5 6.537 19.5 7.2V16.8C19.5 17.463 20.037 18 20.7 18ZM21.9 8.397H22.95C23.529 8.397 24 8.868 24 9.447V14.55C24 15.129 23.529 15.6 22.95 15.6H21.9V8.397ZM10.824 18C11.3415 18 11.7855 17.631 11.88 17.1225L12.129 15.789H15.138L15.3735 17.1135C15.465 17.6265 15.9105 18 16.431 18H16.446C17.1255 18 17.6355 17.376 17.4975 16.71L15.666 7.7895C15.486 6.7875 14.7825 6.0015 13.647 6.0015C12.5115 6.0015 11.7255 6.8805 11.5695 7.7505L9.7695 16.7145C9.636 17.379 10.146 18 10.824 18ZM13.617 8.5575L14.574 13.5H12.681L13.617 8.5575Z" fill="white"/>
</g>
<defs>
<clipPath id="clip0_580_6701">
<rect width="36" height="36" fill="white"/>
</clipPath>
</defs>
</svg>
