<svg width="36" height="36" viewBox="0 0 36 36" fill="none" xmlns="http://www.w3.org/2000/svg">
<g clip-path="url(#clip0_580_6712)">
<path d="M28.5 0H7.5C3.3645 0 0 3.3645 0 7.5V28.5C0 32.6355 3.3645 36 7.5 36H28.5C32.6355 36 36 32.6355 36 28.5V7.5C36 3.3645 32.6355 0 28.5 0ZM33 28.5C33 30.981 30.981 33 28.5 33H7.5C5.019 33 3 30.981 3 28.5V7.5C3 6.972 3.108 6.471 3.276 6H32.724C32.892 6.471 33 6.972 33 7.5V28.5ZM6 12C6 11.172 6.6705 10.5 7.5 10.5H12C12.8295 10.5 13.5 11.172 13.5 12C13.5 12.828 12.8295 13.5 12 13.5H7.5C6.6705 13.5 6 12.828 6 12ZM21 19.5C21 20.3295 20.3295 21 19.5 21H10.5C9.6705 21 9 20.3295 9 19.5C9 18.6705 9.6705 18 10.5 18H19.5C20.3295 18 21 18.672 21 19.5ZM21 27C21 27.8295 20.3295 28.5 19.5 28.5H7.5C6.6705 28.5 6 27.8295 6 27C6 26.1705 6.6705 25.5 7.5 25.5H19.5C20.3295 25.5 21 26.1705 21 27ZM30 27C30 28.6575 28.6575 30 27 30C25.3425 30 24 28.6575 24 27C24 25.893 24.6075 24.936 25.5 24.4155V15C25.5 14.1735 24.828 13.5 24 13.5H22.0845C21.5655 14.3925 20.6085 15 19.5 15C17.8425 15 16.5 13.6575 16.5 12C16.5 10.3425 17.8425 9 19.5 9C20.607 9 21.564 9.6075 22.0845 10.5H24C26.481 10.5 28.5 12.519 28.5 15V24.4155C29.3925 24.9345 30 25.8915 30 27Z" fill="white"/>
</g>
<defs>
<clipPath id="clip0_580_6712">
<rect width="36" height="36" fill="white"/>
</clipPath>
</defs>
</svg>
