<svg width="24" height="23" viewBox="0 0 24 23" fill="none" xmlns="http://www.w3.org/2000/svg">
<g clip-path="url(#clip0_580_6441)">
<path d="M18 9.58333C18 7.46925 16.206 5.75 14 5.75C12.205 5.75 10.7 6.89617 10.196 8.46017L8.02 9.21821C8.218 6.21767 10.821 3.83333 14.001 3.83333C17.31 3.83333 20.001 6.41221 20.001 9.58333C20.001 12.6308 17.513 15.1254 14.382 15.3151L15.173 13.2298C16.804 12.7458 18.001 11.3045 18.001 9.58429L18 9.58333ZM14 0C8.486 0 4 4.29908 4 9.58333C4 9.92642 4.021 10.2647 4.058 10.5992L6.018 9.91587C6.013 9.80471 6 9.69546 6 9.58333C6 5.35613 9.589 1.91667 14 1.91667C18.411 1.91667 22 5.35613 22 9.58333C22 13.8105 18.411 17.25 14 17.25C13.883 17.25 13.769 17.2375 13.653 17.2327L12.94 19.1111C13.288 19.1465 13.642 19.1667 14 19.1667C19.514 19.1667 24 14.8676 24 9.58333C24 4.29908 19.514 0 14 0ZM9.221 23L5.318 19.2596L2.525 21.9362L1.111 20.5812L3.904 17.9045L0 14.1632L10.462 10.5177C11.196 10.2628 12.011 10.4382 12.56 10.9653C13.115 11.4943 13.293 12.2638 13.026 12.973L9.221 23Z" fill="#010101"/>
</g>
<defs>
<clipPath id="clip0_580_6441">
<rect width="24" height="23" fill="white"/>
</clipPath>
</defs>
</svg>
