<svg width="56" height="56" viewBox="0 0 56 56" fill="none" xmlns="http://www.w3.org/2000/svg">
<path d="M44.332 22.4481C44.332 28.4663 41.3692 33.0986 36.8614 36.1471C35.8114 36.8572 35.2864 37.2123 35.0272 37.616C34.7682 38.0196 34.6797 38.5498 34.5031 39.6098L34.3657 40.4337C34.0553 42.2962 33.9002 43.2272 33.2473 43.7802C32.5947 44.3332 31.6506 44.3332 29.7625 44.3332H23.669C21.781 44.3332 20.837 44.3332 20.1842 43.7802C19.5315 43.2272 19.3763 42.2962 19.0659 40.4337L18.9286 39.6098C18.7525 38.5533 18.6645 38.025 18.408 37.6232C18.1515 37.2214 17.6254 36.8618 16.5731 36.1425C12.1131 33.094 9.33203 28.4632 9.33203 22.4481C9.33203 12.6276 17.167 4.6665 26.832 4.6665C28.0307 4.6665 29.2011 4.78896 30.332 5.0222" stroke="#C4EF17" stroke-width="3.5" stroke-linecap="round" stroke-linejoin="round"/>
<path d="M38.4987 4.6665L39.1005 6.29291C39.8896 8.42555 40.2842 9.49188 41.0621 10.2697C41.84 11.0476 42.9064 11.4422 45.039 12.2314L46.6654 12.8332L45.039 13.435C42.9064 14.2241 41.84 14.6187 41.0621 15.3966C40.2842 16.1745 39.8896 17.2408 39.1005 19.3734L38.4987 20.9998L37.8969 19.3734C37.1078 17.2408 36.7132 16.1745 35.9353 15.3966C35.1574 14.6187 34.091 14.2241 31.9584 13.435L30.332 12.8332L31.9584 12.2314C34.091 11.4422 35.1574 11.0476 35.9353 10.2697C36.7132 9.49188 37.1078 8.42555 37.8969 6.29291L38.4987 4.6665Z" stroke="#C4EF17" stroke-width="3.5" stroke-linejoin="round"/>
<path d="M31.5013 44.3335V46.6668C31.5013 48.8667 31.5013 49.9666 30.8179 50.6501C30.1344 51.3335 29.0345 51.3335 26.8346 51.3335C24.6348 51.3335 23.5348 51.3335 22.8514 50.6501C22.168 49.9666 22.168 48.8667 22.168 46.6668V44.3335" stroke="#C4EF17" stroke-width="3.5" stroke-linejoin="round"/>
</svg>
