<svg width="56" height="56" viewBox="0 0 56 56" fill="none" xmlns="http://www.w3.org/2000/svg">
<path d="M28 17.5H31.5C33.4329 17.5 35 19.067 35 21M28 17.5H24.5C22.567 17.5 21 19.067 21 21V22.1667C21 24.0996 22.567 25.6667 24.5 25.6667H31.5C33.4329 25.6667 35 27.2337 35 29.1667V30.3333C35 32.2663 33.4329 33.8333 31.5 33.8333H28M28 17.5V14M28 33.8333H24.5C22.567 33.8333 21 32.2663 21 30.3333M28 33.8333V37.3333" stroke="#C4EF17" stroke-width="3.5" stroke-linecap="round" stroke-linejoin="round"/>
<path d="M25.5273 50.1954L21.0686 47.3835C19.937 46.6698 19.3712 46.313 18.7432 46.2925C18.0647 46.2701 17.4888 46.6124 16.266 47.3835C14.8965 48.2471 12.1733 50.6264 10.4119 49.4917C9.33398 48.7975 9.33398 47.034 9.33398 43.5067V18.6666C9.33398 12.0669 9.33398 8.76701 11.2636 6.71676C13.1933 4.6665 16.299 4.6665 22.5105 4.6665H33.4907C39.7023 4.6665 42.808 4.6665 44.7377 6.71676C46.6673 8.76701 46.6673 12.0669 46.6673 18.6666V43.5067C46.6673 47.034 46.6673 48.7975 45.5893 49.4917C43.8279 50.6264 41.1049 48.2471 39.7352 47.3835C38.6036 46.6698 38.0379 46.313 37.4098 46.2925C36.7313 46.2701 36.1554 46.6124 34.9327 47.3835L30.474 50.1954C29.2712 50.9538 28.6699 51.3332 28.0007 51.3332C27.3315 51.3332 26.7299 50.9538 25.5273 50.1954Z" stroke="#C4EF17" stroke-width="3.5" stroke-linecap="round" stroke-linejoin="round"/>
</svg>
