<svg width="56" height="56" viewBox="0 0 56 56" fill="none" xmlns="http://www.w3.org/2000/svg">
<path d="M37.0223 8.82094C39.1839 7.07439 41.605 6.96837 44.2503 7.00544C45.6185 7.02462 46.3027 7.03424 46.8515 7.24706C47.7223 7.58474 48.4153 8.27783 48.7529 9.14856C48.9657 9.69736 48.9753 10.3815 48.9946 11.7497C49.0317 14.3949 48.9256 16.816 47.1791 18.9776C45.7084 20.7979 43.1804 21.749 41.9641 23.7582C41.0354 25.2922 41.468 26.8807 41.867 28.5154L44.8532 40.7545C45.4484 43.1935 44.9955 44.7568 43.2901 46.4623C42.3827 47.3697 41.6278 47.3237 40.8919 46.151L31.8796 31.7914L27.5756 35.2126C26.015 36.4532 25.2348 37.0734 24.8248 37.9463C23.8644 39.9905 24.4741 43.061 24.5051 45.2774C24.5224 46.5024 23.4638 48.9169 21.9658 48.9984C21.041 49.0488 20.7266 47.9425 20.4279 47.2635L17.5521 40.7269C16.8644 39.1638 16.8362 39.1356 15.273 38.448L8.73635 35.5721C8.05742 35.2735 6.95133 34.9589 7.00166 34.0342C7.08319 32.5362 9.49751 31.4776 10.7225 31.4949C12.9391 31.5259 16.0095 32.1356 18.0538 31.1752C18.9266 30.7652 19.5469 29.985 20.7874 28.4244L24.2086 24.1204L9.84907 15.1081C8.67639 14.3721 8.63035 13.6173 9.53762 12.71C11.2432 11.0045 12.8065 10.5517 15.2455 11.1468L27.4846 14.1331C29.1193 14.532 30.7078 14.9647 32.2418 14.0359C34.251 12.8196 35.2021 10.2917 37.0223 8.82094Z" stroke="#C4EF17" stroke-width="3.5" stroke-linecap="round" stroke-linejoin="round"/>
</svg>
