<svg width="56" height="56" viewBox="0 0 56 56" fill="none" xmlns="http://www.w3.org/2000/svg">
<g clip-path="url(#clip0_580_6732)">
<path d="M44.3333 0H11.6667C5.23367 0 0 5.23367 0 11.6667V44.3333C0 50.7663 5.23367 56 11.6667 56H44.3333C50.7663 56 56 50.7663 56 44.3333V11.6667C56 5.23367 50.7663 0 44.3333 0ZM51.3333 44.3333C51.3333 48.1927 48.1927 51.3333 44.3333 51.3333H11.6667C7.80733 51.3333 4.66667 48.1927 4.66667 44.3333V11.6667C4.66667 10.8453 4.83467 10.066 5.096 9.33333H50.904C51.1653 10.066 51.3333 10.8453 51.3333 11.6667V44.3333ZM9.33333 18.6667C9.33333 17.3787 10.3763 16.3333 11.6667 16.3333H18.6667C19.957 16.3333 21 17.3787 21 18.6667C21 19.9547 19.957 21 18.6667 21H11.6667C10.3763 21 9.33333 19.9547 9.33333 18.6667ZM32.6667 30.3333C32.6667 31.6237 31.6237 32.6667 30.3333 32.6667H16.3333C15.043 32.6667 14 31.6237 14 30.3333C14 29.043 15.043 28 16.3333 28H30.3333C31.6237 28 32.6667 29.0453 32.6667 30.3333ZM32.6667 42C32.6667 43.2903 31.6237 44.3333 30.3333 44.3333H11.6667C10.3763 44.3333 9.33333 43.2903 9.33333 42C9.33333 40.7097 10.3763 39.6667 11.6667 39.6667H30.3333C31.6237 39.6667 32.6667 40.7097 32.6667 42ZM46.6667 42C46.6667 44.5783 44.5783 46.6667 42 46.6667C39.4217 46.6667 37.3333 44.5783 37.3333 42C37.3333 40.278 38.2783 38.7893 39.6667 37.9797V23.3333C39.6667 22.0477 38.6213 21 37.3333 21H34.3537C33.5463 22.3883 32.0577 23.3333 30.3333 23.3333C27.755 23.3333 25.6667 21.245 25.6667 18.6667C25.6667 16.0883 27.755 14 30.3333 14C32.0553 14 33.544 14.945 34.3537 16.3333H37.3333C41.1927 16.3333 44.3333 19.474 44.3333 23.3333V37.9797C45.7217 38.787 46.6667 40.2757 46.6667 42Z" fill="#BCBCBC"/>
</g>
<defs>
<clipPath id="clip0_580_6732">
<rect width="56" height="56" fill="white"/>
</clipPath>
</defs>
</svg>
