<svg width="56" height="56" viewBox="0 0 56 56" fill="none" xmlns="http://www.w3.org/2000/svg">
<g clip-path="url(#clip0_580_6741)">
<path d="M14 10.5C14 12.432 12.432 14 10.5 14C8.568 14 7 12.432 7 10.5C7 8.568 8.568 7 10.5 7C12.432 7 14 8.568 14 10.5ZM19.8333 7C17.9013 7 16.3333 8.568 16.3333 10.5C16.3333 12.432 17.9013 14 19.8333 14C21.7653 14 23.3333 12.432 23.3333 10.5C23.3333 8.568 21.7653 7 19.8333 7ZM56 11.6667V39.6667C56 46.0997 50.7663 51.3333 44.3333 51.3333H39.6667C38.3787 51.3333 37.3333 50.288 37.3333 49C37.3333 47.712 38.3787 46.6667 39.6667 46.6667H44.3333C48.1927 46.6667 51.3333 43.526 51.3333 39.6667V21H4.66667C4.66667 22.288 3.62133 23.3333 2.33333 23.3333C1.04533 23.3333 0 22.288 0 21V11.6667C0 5.23367 5.23367 0 11.6667 0H44.3333C50.7663 0 56 5.23367 56 11.6667ZM51.3333 16.3333V11.6667C51.3333 7.80733 48.1927 4.66667 44.3333 4.66667H11.6667C7.80733 4.66667 4.66667 7.80733 4.66667 11.6667V16.3333H51.3333ZM41.6313 41.5123L42.581 42.0583C43.6777 42.6953 45.1197 42.329 45.7683 41.202C46.4123 40.0843 46.0297 38.6587 44.912 38.0147L43.9647 37.4687C44.184 36.6777 44.3333 35.8587 44.3333 34.9977C44.3333 34.1367 44.1863 33.3153 43.9647 32.5243L44.7347 32.081C45.8523 31.437 46.235 30.0113 45.591 28.8937C44.947 27.776 43.5167 27.391 42.4037 28.0373L41.6197 28.49C40.4507 27.3117 38.9877 26.425 37.331 25.9957C37.331 24.3483 36.4303 23.3217 34.9977 23.331C33.7097 23.331 32.6643 24.3763 32.6643 25.6643V26.5277C33.6117 27.706 34.4493 28.9753 35.1283 30.345C37.6437 30.415 39.6643 32.466 39.6643 34.9977C39.6643 36.7337 38.7053 38.2293 37.2983 39.0343C37.3053 39.2467 37.331 39.452 37.331 39.6643C37.331 41.2043 37.1537 42.7 36.841 44.1443C38.7053 43.7687 40.3457 42.8167 41.629 41.51L41.6313 41.5123ZM32.6667 39.6667C32.6667 48.6733 25.34 56 16.3333 56C7.32667 56 0 48.6733 0 39.6667C0 30.66 7.32667 23.3333 16.3333 23.3333C25.34 23.3333 32.6667 30.66 32.6667 39.6667ZM28 39.6667C28 33.2337 22.7663 28 16.3333 28C9.90033 28 4.66667 33.2337 4.66667 39.6667C4.66667 46.0997 9.90033 51.3333 16.3333 51.3333C22.7663 51.3333 28 46.0997 28 39.6667ZM19.2313 32.6713C17.633 31.073 15.0313 31.073 13.433 32.6713L9.933 36.1713C9.345 36.757 9.16533 37.639 9.48967 38.4067C9.80467 39.172 10.5537 39.669 11.3843 39.669H14V44.3357C14 45.6237 15.0453 46.669 16.3333 46.669C17.6213 46.669 18.6667 45.6237 18.6667 44.3357V39.669H21.2823C22.1107 39.669 22.8597 39.172 23.177 38.4067C23.492 37.6483 23.3217 36.7617 22.7337 36.1713L19.2337 32.6713H19.2313Z" fill="#BCBCBC"/>
</g>
<defs>
<clipPath id="clip0_580_6741">
<rect width="56" height="56" fill="white"/>
</clipPath>
</defs>
</svg>
