<svg width="56" height="56" viewBox="0 0 56 56" fill="none" xmlns="http://www.w3.org/2000/svg">
<path d="M5.03279 37.2314C3.20353 37.6911 1.25295 36.5571 0.8003 34.6649C0.268322 32.4973 0 30.2551 0 27.9988C0 12.5598 12.5598 0 27.9988 0C33.1016 0 37.9571 1.35794 42.2549 3.9175L45.5821 0.590309C46.842 -0.669639 48.998 0.221658 48.998 2.00658V11.6662C48.998 12.9541 47.9527 13.9994 46.6647 13.9994H37.0051C35.2225 13.9994 34.3289 11.8435 35.5889 10.5836L37.0938 9.07862C34.2822 7.72068 31.207 6.99971 27.9988 6.99971C16.419 6.99971 6.99971 16.419 6.99971 27.9988C6.99971 29.6974 7.20037 31.3774 7.59935 32.999C8.059 34.8772 6.91105 36.7718 5.03279 37.2314ZM40.862 24.6133L40.428 24.863C40.68 25.8686 40.8293 26.9139 40.8293 27.9988C40.8293 29.0838 40.68 30.1291 40.428 31.1347L40.862 31.3844C42.5349 32.3503 43.1089 34.4899 42.1429 36.1652C41.177 37.8381 39.0374 38.4121 37.3621 37.4461L36.9328 37.1988C35.4302 38.6594 33.5706 39.749 31.4964 40.337V40.8316C31.4964 42.7636 29.9284 44.3315 27.9965 44.3315C26.0646 44.3315 24.4966 42.7636 24.4966 40.8316V40.337C22.4224 39.749 20.5628 38.6594 19.0602 37.1988L18.6309 37.4461C16.958 38.4121 14.816 37.8381 13.8501 36.1652C12.8841 34.4922 13.4581 32.3503 15.131 31.3844L15.565 31.1347C15.313 30.1291 15.1637 29.0838 15.1637 27.9988C15.1637 26.9139 15.313 25.8686 15.565 24.863L15.131 24.6133C13.4581 23.6473 12.8841 21.5054 13.8501 19.8325C14.816 18.1596 16.9556 17.5856 18.6309 18.5516L19.0602 18.7989C20.5628 17.3383 22.4224 16.2487 24.4966 15.6607V15.166C24.4966 13.2341 26.0646 11.6662 27.9965 11.6662C29.9284 11.6662 31.4964 13.2341 31.4964 15.166V15.6607C33.5706 16.2487 35.4302 17.3383 36.9328 18.7989L37.3621 18.5516C39.035 17.5856 41.177 18.1596 42.1429 19.8325C43.1089 21.5054 42.5349 23.6473 40.862 24.6133ZM23.3324 27.9988C23.3324 26.7109 22.2871 25.6656 20.9991 25.6656C19.7112 25.6656 18.6659 26.7109 18.6659 27.9988V30.3321C18.6659 31.62 19.7112 32.6653 20.9991 32.6653C22.2871 32.6653 23.3324 31.62 23.3324 30.3321V27.9988ZM30.3321 23.3324C30.3321 22.0444 29.2868 20.9991 27.9988 20.9991C26.7109 20.9991 25.6656 22.0444 25.6656 23.3324V30.3321C25.6656 31.62 26.7109 32.6653 27.9988 32.6653C29.2868 32.6653 30.3321 31.62 30.3321 30.3321V23.3324ZM37.3318 25.6656C37.3318 24.3777 36.2865 23.3324 34.9985 23.3324C33.7106 23.3324 32.6653 24.3777 32.6653 25.6656V30.3321C32.6653 31.62 33.7106 32.6653 34.9985 32.6653C36.2865 32.6653 37.3318 31.62 37.3318 30.3321V25.6656ZM55.1974 21.3328C54.7377 19.4545 52.8431 18.3042 50.9649 18.7662C49.0866 19.2259 47.9387 21.1228 48.3983 22.9987C48.7973 24.618 48.998 26.3002 48.998 27.9988C48.998 39.5787 39.5787 48.998 27.9988 48.998C24.8 48.998 21.7154 48.263 18.9109 46.9144L20.4088 45.4164C21.6688 44.1565 20.7775 42.0006 18.9925 42.0006H9.33294C8.045 42.0006 6.99971 43.0459 6.99971 44.3338V53.9934C6.99971 55.776 9.15562 56.6696 10.4156 55.4097L13.7498 52.0755C18.0266 54.6141 22.9077 56 27.9988 56C43.4379 56 55.9977 43.4402 55.9977 28.0012C55.9977 25.7426 55.7293 23.5004 55.1974 21.3351V21.3328Z" fill="#C4EF17"/>
</svg>
