<svg width="24" height="24" viewBox="0 0 24 24" fill="none" xmlns="http://www.w3.org/2000/svg">
<g clip-path="url(#clip0_580_6395)">
<path d="M23.9992 8.50002C23.9992 9.32902 23.3272 10 22.4992 10H21.2882C21.1472 10.545 20.9392 11.062 20.6592 11.538L21.5102 12.388C22.0962 12.974 22.0962 13.924 21.5102 14.51C21.2182 14.803 20.8332 14.949 20.4492 14.949C20.0652 14.949 19.6812 14.803 19.3882 14.51L18.5342 13.657C18.0592 13.937 17.5502 14.168 16.9982 14.31V15.499C16.9982 16.328 16.3262 16.999 15.4982 16.999C14.6702 16.999 13.9982 16.328 13.9982 15.499V13.893C13.9982 12.696 14.8602 11.668 16.0482 11.449C17.4682 11.187 18.4982 9.94702 18.4982 8.49902C18.4982 7.22902 17.6942 6.09202 16.4982 5.66902C15.7172 5.39302 15.3082 4.53602 15.5842 3.75502C15.8602 2.97402 16.7202 2.56402 17.4982 2.84102C17.8662 2.97102 18.2082 3.14602 18.5372 3.33902L19.3882 2.48802C19.9742 1.90302 20.9232 1.90302 21.5092 2.48802C22.0952 3.07302 22.0952 4.02402 21.5092 4.61002L20.6532 5.46502C20.9342 5.94202 21.1492 6.45502 21.2902 6.99902H22.4982C23.3262 6.99902 23.9982 7.67002 23.9982 8.49902L23.9992 8.50002ZM13.9822 4.89202C13.5362 10.131 12.2242 16.571 11.9992 17.657V20.001C11.9992 22.207 10.2052 24.001 7.99922 24.001H5.99922C3.79322 24.001 1.99922 22.207 1.99922 20.001V17.657C1.77322 16.571 0.462219 10.13 0.0162191 4.89202C-0.0907809 3.63502 0.335219 2.38202 1.18822 1.45402C2.03722 0.530023 3.24422 -0.000976562 4.50022 -0.000976562H9.50022C10.7562 -0.000976562 11.9632 0.529023 12.8122 1.45402C13.6652 2.38102 14.0912 3.63402 13.9842 4.89102L13.9822 4.89202ZM3.00322 4.63802C3.35322 8.73302 4.28222 13.751 4.72622 16H9.27122C9.71422 13.75 10.6442 8.73202 10.9942 4.63702C11.0302 4.20902 10.8902 3.79902 10.6012 3.48402C10.3142 3.17202 9.92222 3.00002 9.49822 3.00002H4.49822C4.07422 3.00002 3.68322 3.17202 3.39522 3.48402C3.10622 3.79902 2.96722 4.20902 3.00322 4.63802ZM8.99822 19H4.99822V20C4.99822 20.551 5.44622 21 5.99822 21H7.99822C8.55022 21 8.99822 20.551 8.99822 20V19Z" fill="white"/>
</g>
<defs>
<clipPath id="clip0_580_6395">
<rect width="24" height="24" fill="white"/>
</clipPath>
</defs>
</svg>
