<svg width="48" height="48" viewBox="0 0 48 48" fill="none" xmlns="http://www.w3.org/2000/svg">
<g clip-path="url(#clip0_264_210950)">
<mask id="mask0_264_210950" style="mask-type:luminance" maskUnits="userSpaceOnUse" x="0" y="0" width="48" height="48">
<path d="M48 0H0V48H48V0Z" fill="white"/>
</mask>
<g mask="url(#mask0_264_210950)">
<path opacity="0.4" d="M38.4194 12.719C36.3394 8.51904 32.3194 5.41905 27.6594 4.39905C22.7794 3.31905 17.7795 4.47905 13.9595 7.55905C10.1195 10.619 7.93945 15.199 7.93945 20.099C7.93945 25.279 11.0395 30.699 15.7195 33.839V35.499C15.6995 36.059 15.6795 36.919 16.3595 37.619C17.0595 38.339 18.0995 38.419 18.9195 38.419H29.1794C30.2594 38.419 31.0794 38.119 31.6394 37.559C32.3994 36.779 32.3794 35.779 32.3594 35.239V33.839C38.5594 29.659 42.4594 20.839 38.4194 12.719Z" fill="#4B4B4B"/>
<path d="M30.5204 44.0008C30.4004 44.0008 30.2604 43.9808 30.1404 43.9408C26.1204 42.8008 21.9004 42.8008 17.8803 43.9408C17.1403 44.1408 16.3603 43.7208 16.1603 42.9808C15.9403 42.2408 16.3803 41.4608 17.1203 41.2608C21.6404 39.9808 26.4004 39.9808 30.9204 41.2608C31.6604 41.4808 32.1004 42.2408 31.8804 42.9808C31.6804 43.6008 31.1204 44.0008 30.5204 44.0008Z" fill="#4B4B4B"/>
<path d="M23.9988 27.7018C23.7388 27.7018 23.4788 27.6418 23.2588 27.5018C22.5388 27.0818 22.2988 26.1618 22.6988 25.4618L24.3988 22.5018H22.7188C21.7188 22.5018 20.8988 22.0618 20.4588 21.3218C20.0188 20.5618 20.0587 19.6418 20.5587 18.7618L22.6988 15.0418C23.1188 14.3218 24.0388 14.0818 24.7388 14.4818C25.4588 14.9018 25.6988 15.8218 25.2988 16.5218L23.5988 19.5018H25.2788C26.2788 19.5018 27.0988 19.9418 27.5388 20.6818C27.9788 21.4418 27.9388 22.3618 27.4388 23.2418L25.2988 26.9618C25.0188 27.4418 24.5188 27.7018 23.9988 27.7018Z" fill="#4B4B4B"/>
</g>
</g>
<defs>
<clipPath id="clip0_264_210950">
<rect width="48" height="48" fill="white"/>
</clipPath>
</defs>
</svg>
