<svg width="48" height="48" viewBox="0 0 48 48" fill="none" xmlns="http://www.w3.org/2000/svg">
<g clip-path="url(#clip0_264_210959)">
<mask id="mask0_264_210959" style="mask-type:luminance" maskUnits="userSpaceOnUse" x="0" y="0" width="48" height="48">
<path d="M48 0H0V48H48V0Z" fill="white"/>
</mask>
<g mask="url(#mask0_264_210959)">
<path opacity="0.4" d="M39.6987 25.8794C39.6987 27.4794 40.9987 28.7994 42.5987 28.7994C43.3587 28.7994 43.9987 29.4194 43.9987 30.1794C43.9987 37.8594 41.6787 40.1794 33.9987 40.1794H23.4987V36.9994C23.4987 36.2194 22.8987 35.5794 22.1387 35.5194V29.8194C22.8987 29.7594 23.4987 29.1194 23.4987 28.3394V19.6594C23.4987 18.8794 22.8987 18.2394 22.1387 18.1794V9.85938H33.9987C41.6787 9.85938 43.9987 12.1794 43.9987 19.8594V21.5594C43.9987 22.3394 43.3587 22.9594 42.5987 22.9594C40.9987 22.9594 39.6987 24.2594 39.6987 25.8794Z" fill="#4B4B4B"/>
<path d="M22.1402 18.1796C21.3202 18.1796 20.5002 18.8396 20.5002 19.6596V28.3396C20.5002 29.1596 21.1802 29.8396 22.0002 29.8396C22.0402 29.8396 22.1002 29.8396 22.1402 29.8196V35.5196C22.1002 35.4996 22.0402 35.4996 22.0002 35.4996C21.1802 35.4996 20.5002 36.1796 20.5002 36.9996V40.1796H16.9802C13.2202 40.1796 11.2802 37.3596 9.52018 33.0996L9.18018 32.2596C8.90018 31.5396 9.24018 30.7196 9.96018 30.4396C10.7002 30.1596 11.2802 29.5796 11.5802 28.8196C11.9002 28.0796 11.9002 27.2596 11.6002 26.5196C10.9602 24.9796 9.20018 24.2396 7.64018 24.8596C7.30018 25.0196 6.90018 25.0196 6.56018 24.8596C6.22018 24.7196 5.96018 24.4396 5.80018 24.0796L5.50018 23.2796C2.52018 16.0396 3.82018 12.9396 11.0602 9.93963L15.9602 7.91963C16.6802 7.61963 17.5002 7.95963 17.7802 8.67963L22.1402 18.1796Z" fill="#4B4B4B"/>
</g>
</g>
<defs>
<clipPath id="clip0_264_210959">
<rect width="48" height="48" fill="white"/>
</clipPath>
</defs>
</svg>
