<svg width="48" height="48" viewBox="0 0 48 48" fill="none" xmlns="http://www.w3.org/2000/svg">
<g clip-path="url(#clip0_264_210968)">
<mask id="mask0_264_210968" style="mask-type:luminance" maskUnits="userSpaceOnUse" x="0" y="0" width="48" height="48">
<path d="M48 0H0V48H48V0Z" fill="white"/>
</mask>
<g mask="url(#mask0_264_210968)">
<path opacity="0.4" d="M41.5594 28.362V34.242C41.5594 36.442 39.7594 38.242 37.5594 38.242H10.4395C8.23945 38.242 6.43945 36.442 6.43945 34.242V28.362C6.43945 18.7219 14.2395 10.9219 23.8794 10.9219H24.1194C33.7594 10.9019 41.5594 18.7219 41.5594 28.362Z" fill="#4B4B4B"/>
<path d="M25.5 5.05859V10.9786C25.04 10.9386 24.58 10.9186 24.12 10.9186H23.88C23.42 10.9186 22.96 10.9386 22.5 10.9786V5.05859C22.5 4.23859 23.18 3.55859 24 3.55859C24.82 3.55859 25.5 4.23859 25.5 5.05859Z" fill="#4B4B4B"/>
<path d="M30.6394 38.2188C30.3994 41.6988 27.5194 44.4388 23.9994 44.4388C20.4794 44.4388 17.5794 41.6988 17.3594 38.2188H30.6394Z" fill="#4B4B4B"/>
</g>
</g>
<defs>
<clipPath id="clip0_264_210968">
<rect width="48" height="48" fill="white"/>
</clipPath>
</defs>
</svg>
