<svg width="40" height="40" viewBox="0 0 40 40" fill="none" xmlns="http://www.w3.org/2000/svg">
<g clip-path="url(#clip0_264_210977)">
<mask id="mask0_264_210977" style="mask-type:luminance" maskUnits="userSpaceOnUse" x="0" y="0" width="40" height="40">
<path d="M40 0H0V40H40V0Z" fill="white"/>
</mask>
<g mask="url(#mask0_264_210977)">
<path opacity="0.4" d="M26.984 3.33325H13.0173C6.95065 3.33325 3.33398 6.94992 3.33398 13.0166V26.9666C3.33398 33.0499 6.95065 36.6666 13.0173 36.6666H26.9673C33.034 36.6666 36.6507 33.0499 36.6507 26.9833V13.0166C36.6673 6.94992 33.0507 3.33325 26.984 3.33325Z" fill="#4B4B4B"/>
<path d="M27.3677 13.0173V26.984C27.3677 28.0507 26.501 28.9173 25.4344 28.9173C24.351 28.9173 23.4844 28.0507 23.4844 26.984V13.0173C23.4844 11.9507 24.351 11.084 25.4344 11.084C26.501 11.084 27.3677 11.9507 27.3677 13.0173Z" fill="#4B4B4B"/>
<path d="M16.5181 21.5491V26.9824C16.5181 28.0491 15.6514 28.9157 14.5681 28.9157C13.5014 28.9157 12.6348 28.0491 12.6348 26.9824V21.5491C12.6348 20.4824 13.5014 19.6157 14.5681 19.6157C15.6514 19.6157 16.5181 20.4824 16.5181 21.5491Z" fill="#4B4B4B"/>
</g>
</g>
<defs>
<clipPath id="clip0_264_210977">
<rect width="40" height="40" fill="white"/>
</clipPath>
</defs>
</svg>
