<svg width="32" height="32" viewBox="0 0 32 32" fill="none" xmlns="http://www.w3.org/2000/svg">
<g clip-path="url(#clip0_262_61306)">
<mask id="mask0_262_61306" style="mask-type:luminance" maskUnits="userSpaceOnUse" x="0" y="0" width="32" height="32">
<path d="M32 0H0V32H32V0Z" fill="white"/>
</mask>
<g mask="url(#mask0_262_61306)">
<path opacity="0.4" d="M11.3337 25.3333H20.667C23.7737 25.3333 25.3337 23.7733 25.3337 20.6666V11.3333C25.3337 8.22663 23.7737 6.66663 20.667 6.66663H11.3337C8.22699 6.66663 6.66699 8.22663 6.66699 11.3333V20.6666C6.66699 23.7733 8.22699 25.3333 11.3337 25.3333Z" fill="#111111"/>
<path d="M21.3337 5H10.667C10.1203 5 9.66699 4.54667 9.66699 4C9.66699 3.45333 10.1203 3 10.667 3H21.3337C21.8803 3 22.3337 3.45333 22.3337 4C22.3337 4.54667 21.8803 5 21.3337 5Z" fill="#111111"/>
<path d="M21.3337 29H10.667C10.1203 29 9.66699 28.5467 9.66699 28C9.66699 27.4533 10.1203 27 10.667 27H21.3337C21.8803 27 22.3337 27.4533 22.3337 28C22.3337 28.5467 21.8803 29 21.3337 29Z" fill="#111111"/>
<path d="M19.334 17.6666H15.334C14.7873 17.6666 14.334 17.2133 14.334 16.6666V12.6666C14.334 12.12 14.7873 11.6666 15.334 11.6666C15.8807 11.6666 16.334 12.12 16.334 12.6666V15.6666H19.334C19.8807 15.6666 20.334 16.12 20.334 16.6666C20.334 17.2133 19.8807 17.6666 19.334 17.6666Z" fill="black"/>
</g>
</g>
<defs>
<clipPath id="clip0_262_61306">
<rect width="32" height="32" fill="white"/>
</clipPath>
</defs>
</svg>
