<svg width="16" height="16" viewBox="0 0 16 16" fill="none" xmlns="http://www.w3.org/2000/svg">
<g clip-path="url(#clip0_296_3474)">
<mask id="mask0_296_3474" style="mask-type:luminance" maskUnits="userSpaceOnUse" x="0" y="0" width="16" height="16">
<path d="M16 0H0V16H16V0Z" fill="white"/>
</mask>
<g mask="url(#mask0_296_3474)">
<path d="M12.7073 3.99999L13.5339 3.17332C13.7273 2.97999 13.7273 2.65999 13.5339 2.46666C13.3406 2.27332 13.0206 2.27332 12.8273 2.46666L12.0006 3.29332L11.1739 2.46666C10.9806 2.27332 10.6606 2.27332 10.4673 2.46666C10.2739 2.65999 10.2739 2.97999 10.4673 3.17332L11.2939 3.99999L10.4673 4.82666C10.2739 5.01999 10.2739 5.33999 10.4673 5.53332C10.5673 5.63332 10.6939 5.67999 10.8206 5.67999C10.9473 5.67999 11.0739 5.63332 11.1739 5.53332L12.0006 4.70666L12.8273 5.53332C12.9273 5.63332 13.0539 5.67999 13.1806 5.67999C13.3073 5.67999 13.4339 5.63332 13.5339 5.53332C13.7273 5.33999 13.7273 5.01999 13.5339 4.82666L12.7073 3.99999Z" fill="black"/>
<path opacity="0.4" d="M7.86065 9.47337L5.68065 11.6534C5.44065 11.44 5.20732 11.22 4.98065 10.9934C4.29398 10.3 3.67398 9.57337 3.12065 8.81337C2.57398 8.05337 2.13398 7.29337 1.81398 6.54004C1.49398 5.78004 1.33398 5.05337 1.33398 4.36004C1.33398 3.90671 1.41398 3.47337 1.57398 3.07337C1.73398 2.66671 1.98732 2.29337 2.34065 1.96004C2.76732 1.54004 3.23398 1.33337 3.72732 1.33337C3.91398 1.33337 4.10065 1.37337 4.26732 1.45337C4.44065 1.53337 4.59398 1.65337 4.71398 1.82671L6.26065 4.00671C6.38065 4.17337 6.46732 4.32671 6.52732 4.47337C6.58732 4.61337 6.62065 4.75337 6.62065 4.88004C6.62065 5.04004 6.57398 5.20004 6.48065 5.35337C6.39398 5.50671 6.26732 5.66671 6.10732 5.82671L5.60065 6.35337C5.52732 6.42671 5.49398 6.51337 5.49398 6.62004C5.49398 6.67337 5.50065 6.72004 5.51398 6.77337C5.53398 6.82671 5.55398 6.86671 5.56732 6.90671C5.68732 7.12671 5.89398 7.41337 6.18732 7.76004C6.48732 8.10671 6.80732 8.46004 7.15398 8.81337C7.39398 9.04671 7.62732 9.27337 7.86065 9.47337Z" fill="black"/>
<path d="M14.6471 12.2195C14.6471 12.4062 14.6137 12.5995 14.5471 12.7862C14.5271 12.8395 14.5071 12.8928 14.4804 12.9462C14.3671 13.1862 14.2204 13.4128 14.0271 13.6262C13.7004 13.9862 13.3404 14.2462 12.9337 14.4128C12.9271 14.4128 12.9204 14.4195 12.9137 14.4195C12.5204 14.5795 12.0937 14.6662 11.6337 14.6662C10.9537 14.6662 10.2271 14.5062 9.46039 14.1795C8.69372 13.8528 7.92706 13.4128 7.16706 12.8595C6.90706 12.6662 6.64706 12.4728 6.40039 12.2662L8.58039 10.0862C8.76706 10.2262 8.93372 10.3328 9.07372 10.4062C9.10706 10.4195 9.14706 10.4395 9.19372 10.4595C9.24706 10.4795 9.30039 10.4862 9.36039 10.4862C9.47372 10.4862 9.56039 10.4462 9.63372 10.3728L10.1404 9.87283C10.3071 9.70616 10.4671 9.5795 10.6204 9.4995C10.7737 9.40616 10.9271 9.3595 11.0937 9.3595C11.2204 9.3595 11.3537 9.38616 11.5004 9.44616C11.6471 9.50616 11.8004 9.59283 11.9671 9.70616L14.1737 11.2728C14.3471 11.3928 14.4671 11.5328 14.5404 11.6995C14.6071 11.8662 14.6471 12.0328 14.6471 12.2195Z" fill="black"/>
</g>
</g>
<defs>
<clipPath id="clip0_296_3474">
<rect width="16" height="16" fill="white"/>
</clipPath>
</defs>
</svg>
