<svg width="16" height="16" viewBox="0 0 16 16" fill="none" xmlns="http://www.w3.org/2000/svg">
<g clip-path="url(#clip0_296_3478)">
<mask id="mask0_296_3478" style="mask-type:luminance" maskUnits="userSpaceOnUse" x="0" y="0" width="16" height="16">
<path d="M16 0H0V16H16V0Z" fill="white"/>
</mask>
<g mask="url(#mask0_296_3478)">
<path opacity="0.4" d="M10.794 2.66675H5.20732C2.78065 2.66675 1.33398 4.11341 1.33398 6.54008V10.7867C1.33398 13.2201 2.78065 14.6667 5.20732 14.6667H10.7873C13.214 14.6667 14.6607 13.2201 14.6607 10.7934V6.54008C14.6673 4.11341 13.2207 2.66675 10.794 2.66675Z" fill="black"/>
<path d="M14.2006 8.15369H11.8807C11.2273 8.15369 10.6473 8.51369 10.354 9.10035L9.79398 10.207C9.66065 10.4737 9.39398 10.6404 9.10065 10.6404H6.91398C6.70732 10.6404 6.41398 10.5937 6.22065 10.207L5.66065 9.10702C5.36732 8.52702 4.78065 8.16035 4.13398 8.16035H1.80065C1.54065 8.16035 1.33398 8.36702 1.33398 8.62702V10.8004C1.33398 13.2204 2.78732 14.667 5.21398 14.667H10.8007C13.0873 14.667 14.494 13.4137 14.6673 11.187V8.62035C14.6673 8.36702 14.4606 8.15369 14.2006 8.15369Z" fill="black"/>
<path d="M9.68627 4.31337C9.49294 4.12004 9.17294 4.12004 8.97961 4.31337L8.49961 4.79337V1.33337C8.49961 1.06004 8.27294 0.833374 7.99961 0.833374C7.72628 0.833374 7.49961 1.06004 7.49961 1.33337V4.79337L7.01961 4.31337C6.82627 4.12004 6.5063 4.12004 6.31297 4.31337C6.11964 4.50671 6.11964 4.82671 6.31297 5.02004L7.64628 6.35337C7.65294 6.36004 7.65961 6.36004 7.65961 6.36671C7.69961 6.40671 7.75294 6.44004 7.80628 6.46671C7.87294 6.48671 7.93294 6.50004 7.99961 6.50004C8.06628 6.50004 8.12627 6.48671 8.18627 6.46004C8.24627 6.43337 8.29961 6.40004 8.35294 6.35337L9.68627 5.02004C9.87961 4.82671 9.87961 4.50671 9.68627 4.31337Z" fill="black"/>
</g>
</g>
<defs>
<clipPath id="clip0_296_3478">
<rect width="16" height="16" fill="white"/>
</clipPath>
</defs>
</svg>
