<svg width="16" height="16" viewBox="0 0 16 16" fill="none" xmlns="http://www.w3.org/2000/svg">
<g clip-path="url(#clip0_296_3482)">
<mask id="mask0_296_3482" style="mask-type:luminance" maskUnits="userSpaceOnUse" x="0" y="0" width="16" height="16">
<path d="M16 0H0V16H16V0Z" fill="white"/>
</mask>
<g mask="url(#mask0_296_3482)">
<path opacity="0.4" d="M13.7467 5.63329C13.0467 2.55329 10.3601 1.16663 8.00006 1.16663C8.00006 1.16663 8.00006 1.16663 7.9934 1.16663C5.64006 1.16663 2.94673 2.54663 2.24673 5.62663C1.46673 9.06663 3.5734 11.98 5.48006 13.8133C6.18673 14.4933 7.0934 14.8333 8.00006 14.8333C8.90673 14.8333 9.8134 14.4933 10.5134 13.8133C12.4201 11.98 14.5267 9.07329 13.7467 5.63329Z" fill="black"/>
<path d="M8.00039 8.97346C9.16019 8.97346 10.1004 8.03326 10.1004 6.87346C10.1004 5.71364 9.16019 4.77344 8.00039 4.77344C6.84059 4.77344 5.90039 5.71364 5.90039 6.87346C5.90039 8.03326 6.84059 8.97346 8.00039 8.97346Z" fill="black"/>
</g>
</g>
<defs>
<clipPath id="clip0_296_3482">
<rect width="16" height="16" fill="white"/>
</clipPath>
</defs>
</svg>
