<svg width="73" height="51" viewBox="0 0 73 51" fill="none" xmlns="http://www.w3.org/2000/svg">
<path d="M24.1025 1.96785C14.9827 9.01929 12.5399 20.1704 15.3084 20.4984C18.8912 20.8264 22.6368 21.9743 25.5682 24.7621C31.5937 30.6656 31.5937 40.5048 25.731 46.5723C19.8683 52.4759 10.0971 52.4759 4.2344 46.5723C-4.88538 37.2251 2.76872 20.9904 8.14287 12.955C10.4228 9.51125 14.9827 4.26367 22.6368 0L24.1025 1.96785ZM66.9329 1.96785C57.976 9.01929 55.3703 20.1704 58.1388 20.4984C61.8844 20.8264 65.4672 21.9743 68.3986 24.7621C74.4241 30.6656 74.587 40.5048 68.5614 46.5723C62.6987 52.4759 53.0904 52.4759 47.2276 46.5723C37.945 37.2251 45.762 20.9904 50.9733 12.955C53.4161 9.51125 57.976 4.26367 65.4672 0L66.9329 1.96785Z" fill="#4B4B4B" fill-opacity="0.15"/>
</svg>
