<svg width="16" height="22" viewBox="0 0 16 22" fill="none" xmlns="http://www.w3.org/2000/svg">
<path d="M13.8995 9.9792C15.4616 11.5413 15.4616 14.0739 13.8995 15.636L8.24266 21.2929C7.85216 21.6834 7.21896 21.6834 6.82845 21.2929L1.17158 15.636C-0.390525 14.0739 -0.390525 11.5413 1.17158 9.9792C2.73366 8.41709 5.26632 8.41709 6.82845 9.9792L7.53485 10.6856L8.24266 9.9792C9.80476 8.41709 12.3374 8.41709 13.8995 9.9792ZM7.53555 0C9.74465 0 11.5356 1.79086 11.5356 4C11.5356 6.20914 9.74465 8 7.53555 8C5.3264 8 3.53553 6.20914 3.53553 4C3.53553 1.79086 5.3264 0 7.53555 0Z" fill="#7463F5"/>
</svg>
