<svg width="20" height="20" viewBox="0 0 20 20" fill="none" xmlns="http://www.w3.org/2000/svg">
<path d="M9 0.53513C8.4117 0.19479 7.72857 0 7 0C4.79086 0 3 1.79086 3 4V5.77422C2.14895 6.11644 1.45143 6.64785 0.94126 7.34933C0.29239 8.2415 0 9.3347 0 10.5C0 12.0614 0.79529 13.4356 2 14.242V15.5C2 17.9853 4.01472 20 6.5 20C7.42507 20 8.285 19.7209 9 19.2422V15.5C9 14.167 8.67 13.3147 8.1402 12.7408C7.59743 12.1528 6.71622 11.7165 5.3356 11.4864L5.6644 9.5136C6.96602 9.7305 8.1058 10.1373 9 10.8271V0.53513ZM11 0.53513V10.8271C11.8942 10.1373 13.034 9.7305 14.3356 9.5136L14.6644 11.4864C13.2838 11.7165 12.4026 12.1528 11.8598 12.7408C11.33 13.3147 11 14.167 11 15.5V19.2422C11.715 19.7209 12.5749 20 13.5 20C15.9853 20 18 17.9853 18 15.5V14.242C19.2047 13.4356 20 12.0614 20 10.5C20 9.3347 19.7076 8.2415 19.0587 7.34933C18.5486 6.64785 17.8511 6.11644 17 5.77422V4C17 1.79086 15.2091 0 13 0C12.2714 0 11.5883 0.19479 11 0.53513Z" fill="#5641F3"/>
</svg>
