<svg width="32" height="32" viewBox="0 0 32 32" fill="none" xmlns="http://www.w3.org/2000/svg">
<path d="M6.572 28.6425L14.3667 20.8479C15.2564 21.0855 16.245 20.8552 16.9428 20.1574C17.9843 19.1159 17.9843 17.4275 16.9428 16.3862C15.9015 15.3447 14.2131 15.3447 13.1716 16.3862C12.4737 17.084 12.2435 18.0725 12.4811 18.9623L4.68637 26.7569L3.27216 25.3428C7.0434 20.9429 8.45761 16.0719 10.3432 7.90082L18.8286 6.958L26.3711 14.5006L25.4282 22.9858C17.2572 24.8713 12.386 26.2856 7.98621 30.0568L6.572 28.6425ZM22.1283 2.71536L30.5904 11.1775C30.8508 11.4379 30.8508 11.86 30.5904 12.1203C30.4906 12.2202 30.3616 12.2858 30.222 12.3076L28.2566 12.6149L20.7142 5.07239L20.997 3.09248C21.0491 2.728 21.3867 2.47474 21.7512 2.5268C21.894 2.5472 22.0263 2.61336 22.1283 2.71536Z" fill="#5641F3"/>
</svg>
