<svg width="27" height="27" viewBox="0 0 27 27" fill="none" xmlns="http://www.w3.org/2000/svg">
<path d="M5.40848 8.40065C5.49327 8.26472 5.58145 8.13113 5.67292 8H20.9937C21.0852 8.13113 21.1733 8.26472 21.2581 8.40065L23.9521 6.84529L25.2855 9.15469L22.3349 10.8581C22.5512 11.6464 22.6667 12.4764 22.6667 13.3333V14.6667H26.6667V17.3333H22.6667C22.6667 18.6045 22.4125 19.8164 21.9523 20.9209L25.2855 22.8453L23.9521 25.1547L20.5844 23.2103C19.1377 24.9929 17.0471 26.2316 14.6667 26.5721V16H12V26.5721C9.61956 26.2316 7.52887 24.9929 6.08228 23.2103L2.71453 25.1547L1.3812 22.8453L4.7144 20.9209C4.25415 19.8164 4 18.6045 4 17.3333H0V14.6667H4V13.3333C4 12.4764 4.11548 11.6464 4.33173 10.8581L1.3812 9.15469L2.71453 6.84529L5.40848 8.40065ZM8 5.33333C8 2.38781 10.3878 0 13.3333 0C16.2788 0 18.6667 2.38781 18.6667 5.33333H8Z" fill="#5641F3"/>
</svg>
