<svg width="32" height="32" viewBox="0 0 32 32" fill="none" xmlns="http://www.w3.org/2000/svg">
<path d="M7.09659 7.9542C7.23156 7.80509 7.37093 7.65856 7.51472 7.51477C8.15927 6.87023 8.85889 6.31433 9.59844 5.84709C9.17987 5.73172 8.80365 5.66339 8.47389 5.63851C7.71077 5.58096 7.37657 5.76217 7.23404 5.90471C7.09151 6.04724 6.91029 6.38144 6.96785 7.14455C6.98632 7.38937 7.02875 7.65983 7.09659 7.9542ZM27.6343 18.9477C27.7164 19.1117 27.7951 19.2743 27.8704 19.4355C28.5057 20.797 28.9255 22.1259 29.0155 23.3205C29.1052 24.5093 28.8747 25.7477 27.9759 26.6465C27.0769 27.5454 25.8387 27.7758 24.6499 27.6862C23.6091 27.6077 22.4663 27.279 21.2888 26.7754L21.2853 26.777C21.0812 26.6897 20.876 26.5971 20.67 26.4995C17.9593 25.2165 14.858 22.9607 11.9465 20.0493C9.03807 17.1409 6.78409 14.043 5.50027 11.3344C5.40237 11.1278 5.3094 10.9221 5.22172 10.7174L5.22312 10.7145C4.71753 9.53411 4.38743 8.38837 4.30873 7.34511C4.21907 6.15625 4.44956 4.91795 5.34843 4.01908C6.24729 3.12023 7.48559 2.88973 8.67444 2.9794C9.86899 3.06949 11.1979 3.48921 12.5593 4.12455C12.7234 4.20111 12.8889 4.28127 13.0557 4.36496C17.0164 3.36671 21.3872 4.41664 24.4853 7.51477C27.5843 10.6138 28.634 14.9861 27.6343 18.9477ZM26.1504 22.4057C25.6836 23.1438 25.1287 23.8419 24.4853 24.4853C24.3427 24.6279 24.1972 24.7663 24.0493 24.9003C24.3404 24.967 24.608 25.0087 24.8504 25.027C25.6135 25.0846 25.9477 24.9034 26.0903 24.7609C26.2328 24.6183 26.414 24.2842 26.3564 23.521C26.3317 23.1937 26.2643 22.8206 26.1504 22.4057ZM7.51472 24.4853C4.49655 21.4671 3.42221 17.2413 4.29169 13.3633C5.73473 16.0043 7.89832 18.8295 10.5323 21.4635C13.1684 24.0997 15.9961 26.2647 18.6392 27.7078C14.7607 28.5783 10.5335 27.5042 7.51472 24.4853Z" fill="#5641F3"/>
</svg>
