<svg width="36" height="39" viewBox="0 0 36 39" fill="none" xmlns="http://www.w3.org/2000/svg">
<g clip-path="url(#clip0_2962_3735)">
<path d="M10.901 24.9249L16.9467 9.28038C17.8751 7.14031 19.9584 3.45784 22.459 5.16122L22.1562 4.44422C19.0017 -2.39539 13.1671 -0.716953 11.0826 5.25121L1.60352 29.913C2.58311 31.7578 8.77294 26.6728 10.901 24.9249Z" fill="#353535"/>
<path d="M26.0582 14.6529L22.6941 5.87122C20.194 4.16823 18.2266 8.07134 17.2988 10.2116L20.1969 17.9833C22.153 16.7744 24.1289 15.6516 26.0582 14.6529Z" fill="#353535"/>
<path d="M27.7018 18.9469C25.8896 20.4242 24.0792 21.992 22.3008 23.6234L27.4325 37.3788C28.1288 39.5214 35.466 39.0425 35.0712 38.1846L27.7018 18.9469Z" fill="#353535"/>
<path d="M11.5924 25.4695C11.4544 25.5875 11.0999 25.8895 10.598 26.2991C10.4859 26.3951 10.3727 26.4866 10.2608 26.5827L10.2665 26.5678C7.65269 28.6739 2.17932 32.7614 1.19973 30.9162L0.298246 33.2552C-1.40894 37.9805 4.64078 40.6773 7.59281 37.8262L7.99931 37.3782C15.2582 27.9548 26.007 17.9724 35.3145 11.9626C28.9247 13.8799 19.2182 19.2168 11.5924 25.4695Z" fill="black"/>
</g>
<defs>
<clipPath id="clip0_2962_3735">
<rect width="35.3149" height="38.9935" fill="white"/>
</clipPath>
</defs>
</svg>
