<svg width="196" height="43" viewBox="0 0 196 43" fill="none" xmlns="http://www.w3.org/2000/svg">
<g clip-path="url(#clip0_2701_4133)">
<path d="M10.9002 26.9277L16.9459 11.2833C17.8742 9.14319 19.9576 5.46072 22.4582 7.1641L22.1553 6.4471C19.0008 -0.392515 13.1662 1.28592 11.0817 7.25408L1.60266 31.9159C2.58226 33.7606 8.77208 28.6756 10.9002 26.9277Z" fill="#353535"/>
<path d="M26.0574 16.6554L22.6933 7.87378C20.1933 6.17078 18.2259 10.0739 17.2981 12.2142L20.1962 19.9858C22.1523 18.7769 24.1282 17.6541 26.0574 16.6554Z" fill="#353535"/>
<path d="M27.7024 20.9502C25.8902 22.4276 24.0798 23.9953 22.3014 25.6267L27.4331 39.3821C28.1294 41.5247 35.4666 41.0458 35.0718 40.1879L27.7024 20.9502Z" fill="#353535"/>
<path d="M11.5924 27.4727C11.4544 27.5907 11.0999 27.8927 10.598 28.3024C10.4859 28.3983 10.3727 28.4898 10.2608 28.586L10.2665 28.571C7.65269 30.6771 2.17932 34.7646 1.19973 32.9194L0.298246 35.2584C-1.40894 39.9837 4.64078 42.6806 7.59281 39.8294L7.99931 39.3814C15.2582 29.958 26.007 19.9756 35.3145 13.9658C28.9247 15.8831 19.2182 21.2201 11.5924 27.4727Z" fill="black"/>
</g>
<path d="M52.5856 18.8151V15.4365H67.9923V18.8151H52.5856ZM47.5402 21L57.2031 6.58441H63.4649L73.218 21H67.0238L58.6672 8.09354H62.0233L53.7344 21H47.5402ZM75.3613 6.58441H80.9924V21H75.3613V6.58441ZM90.113 14.9184V16.7204H107.231V21H84.4819V6.58441H107.186V10.864H90.113V12.666H104.078V14.9184H90.113ZM110.152 21V6.58441H127.563C128.93 6.58441 130.153 6.74208 131.235 7.05742C132.331 7.35775 133.194 7.8683 133.825 8.58908C134.471 9.30986 134.793 10.2934 134.793 11.5398C134.793 12.3657 134.643 13.0489 134.343 13.5895C134.043 14.1301 133.63 14.5505 133.104 14.8509C132.578 15.1512 131.978 15.3689 131.302 15.5041C130.626 15.6392 129.921 15.7218 129.185 15.7518L127.541 15.4365C129.327 15.4515 130.701 15.5266 131.662 15.6617C132.639 15.7969 133.314 16.0446 133.69 16.405C134.08 16.7504 134.275 17.2534 134.275 17.9142V21H128.644V18.5899C128.644 18.1394 128.554 17.8015 128.374 17.5763C128.209 17.336 127.833 17.1709 127.248 17.0808C126.677 16.9907 125.791 16.9456 124.59 16.9456H115.783V21H110.152ZM115.783 13.184H127.563C128.014 13.184 128.389 13.109 128.689 12.9588C129.005 12.8086 129.162 12.5233 129.162 12.1029C129.162 11.7125 129.005 11.4497 128.689 11.3145C128.389 11.1644 128.014 11.0893 127.563 11.0893H115.783V13.184ZM141.605 18.8151V15.4365H157.012V18.8151H141.605ZM136.56 21L146.223 6.58441H152.484L162.238 21H156.043L147.687 8.09354H151.043L142.754 21H136.56Z" fill="#353535"/>
<path d="M52.6789 32.236C53.5509 32.236 54.2789 32.34 54.8629 32.548C55.4469 32.756 55.9109 33.04 56.2549 33.4C56.6069 33.752 56.8549 34.16 56.9989 34.624C57.1509 35.088 57.2269 35.576 57.2269 36.088C57.2269 36.6 57.1429 37.092 56.9749 37.564C56.8149 38.036 56.5549 38.456 56.1949 38.824C55.8429 39.184 55.3749 39.472 54.7909 39.688C54.2149 39.896 53.5109 40 52.6789 40H48.2389V32.236H52.6789ZM49.8349 38.632H52.6429C53.2189 38.632 53.6949 38.564 54.0709 38.428C54.4549 38.284 54.7589 38.092 54.9829 37.852C55.2069 37.612 55.3669 37.34 55.4629 37.036C55.5589 36.732 55.6069 36.416 55.6069 36.088C55.6069 35.76 55.5589 35.448 55.4629 35.152C55.3669 34.856 55.2069 34.592 54.9829 34.36C54.7589 34.128 54.4549 33.944 54.0709 33.808C53.6949 33.672 53.2189 33.604 52.6429 33.604H49.8349V38.632ZM59.1338 32.236H60.7298V40H59.1338V32.236ZM67.3804 40.156C66.6604 40.156 66.0084 40.072 65.4244 39.904C64.8484 39.736 64.3484 39.484 63.9244 39.148C63.5084 38.812 63.1884 38.396 62.9644 37.9C62.7404 37.404 62.6284 36.832 62.6284 36.184C62.6284 35.528 62.7444 34.948 62.9764 34.444C63.2164 33.932 63.5524 33.5 63.9844 33.148C64.4244 32.796 64.9444 32.532 65.5444 32.356C66.1524 32.172 66.8244 32.08 67.5604 32.08C68.4324 32.08 69.1844 32.204 69.8164 32.452C70.4484 32.692 70.9444 33.032 71.3044 33.472C71.6724 33.912 71.8804 34.436 71.9284 35.044H70.3924C70.2884 34.724 70.1164 34.448 69.8764 34.216C69.6444 33.976 69.3364 33.792 68.9524 33.664C68.5684 33.528 68.1044 33.46 67.5604 33.46C66.8644 33.46 66.2684 33.572 65.7724 33.796C65.2844 34.02 64.9124 34.336 64.6564 34.744C64.4004 35.152 64.2724 35.632 64.2724 36.184C64.2724 36.72 64.3844 37.184 64.6084 37.576C64.8324 37.96 65.1764 38.256 65.6404 38.464C66.1124 38.672 66.7124 38.776 67.4404 38.776C68.0004 38.776 68.4924 38.704 68.9164 38.56C69.3484 38.408 69.7084 38.208 69.9964 37.96C70.2844 37.704 70.4884 37.42 70.6084 37.108L71.2324 36.88C71.1284 37.912 70.7364 38.716 70.0564 39.292C69.3844 39.868 68.4924 40.156 67.3804 40.156ZM70.8244 40C70.8244 39.752 70.8404 39.468 70.8724 39.148C70.9044 38.82 70.9444 38.492 70.9924 38.164C71.0404 37.828 71.0844 37.52 71.1244 37.24H67.5724V36.22H72.2044V40H70.8244ZM74.2332 32.236H75.8292V40H74.2332V32.236ZM77.3318 32.236H85.5158V33.568H77.3318V32.236ZM80.6318 33.4H82.2278V40H80.6318V33.4ZM87.5158 38.308V36.976H92.6518V38.308H87.5158ZM85.5838 40L89.2318 32.236H90.9598L94.6438 40H92.9038L89.7118 33.004H90.4798L87.3118 40H85.5838ZM97.4885 32.236V38.668H102.649V40H95.8925V32.236H97.4885ZM108.477 38.308V36.976H113.613V38.308H108.477ZM106.545 40L110.193 32.236H111.921L115.605 40H113.865L110.673 33.004H111.441L108.273 40H106.545ZM120.931 40.156C120.211 40.156 119.559 40.072 118.975 39.904C118.399 39.736 117.899 39.484 117.475 39.148C117.059 38.812 116.739 38.396 116.515 37.9C116.291 37.404 116.179 36.832 116.179 36.184C116.179 35.528 116.295 34.948 116.527 34.444C116.767 33.932 117.103 33.5 117.535 33.148C117.975 32.796 118.495 32.532 119.095 32.356C119.703 32.172 120.375 32.08 121.111 32.08C121.983 32.08 122.735 32.204 123.367 32.452C123.999 32.692 124.495 33.032 124.855 33.472C125.223 33.912 125.431 34.436 125.479 35.044H123.943C123.839 34.724 123.667 34.448 123.427 34.216C123.195 33.976 122.887 33.792 122.503 33.664C122.119 33.528 121.655 33.46 121.111 33.46C120.415 33.46 119.819 33.572 119.323 33.796C118.835 34.02 118.463 34.336 118.207 34.744C117.951 35.152 117.823 35.632 117.823 36.184C117.823 36.72 117.935 37.184 118.159 37.576C118.383 37.96 118.727 38.256 119.191 38.464C119.663 38.672 120.263 38.776 120.991 38.776C121.551 38.776 122.043 38.704 122.467 38.56C122.899 38.408 123.259 38.208 123.547 37.96C123.835 37.704 124.039 37.42 124.159 37.108L124.783 36.88C124.679 37.912 124.287 38.716 123.607 39.292C122.935 39.868 122.043 40.156 120.931 40.156ZM124.375 40C124.375 39.752 124.391 39.468 124.423 39.148C124.455 38.82 124.495 38.492 124.543 38.164C124.591 37.828 124.635 37.52 124.675 37.24H121.123V36.22H125.755V40H124.375ZM129.152 36.76V38.668H135.14V40H127.556V32.236H135.128V33.568H129.152V35.5H134.048V36.76H129.152ZM144.771 38.416L144.267 38.62V32.236H145.863V40H144.267L137.991 33.868L138.495 33.664V40H136.899V32.236H138.495L144.771 38.416ZM156.895 37.204C156.823 37.828 156.603 38.36 156.235 38.8C155.867 39.24 155.367 39.576 154.735 39.808C154.103 40.04 153.351 40.156 152.479 40.156C151.751 40.156 151.083 40.072 150.475 39.904C149.875 39.736 149.355 39.484 148.915 39.148C148.483 38.812 148.147 38.396 147.907 37.9C147.667 37.396 147.547 36.808 147.547 36.136C147.547 35.464 147.667 34.876 147.907 34.372C148.147 33.868 148.483 33.448 148.915 33.112C149.355 32.768 149.875 32.512 150.475 32.344C151.083 32.168 151.751 32.08 152.479 32.08C153.351 32.08 154.103 32.2 154.735 32.44C155.375 32.68 155.879 33.024 156.247 33.472C156.615 33.912 156.831 34.448 156.895 35.08H155.311C155.207 34.744 155.031 34.456 154.783 34.216C154.543 33.968 154.231 33.78 153.847 33.652C153.463 33.524 153.007 33.46 152.479 33.46C151.823 33.46 151.247 33.564 150.751 33.772C150.255 33.972 149.871 34.272 149.599 34.672C149.327 35.064 149.191 35.552 149.191 36.136C149.191 36.712 149.327 37.196 149.599 37.588C149.871 37.98 150.255 38.28 150.751 38.488C151.247 38.688 151.823 38.788 152.479 38.788C153.007 38.788 153.459 38.724 153.835 38.596C154.219 38.468 154.531 38.284 154.771 38.044C155.019 37.804 155.199 37.524 155.311 37.204H156.895ZM165.714 32.236L162.306 37.552V40H160.698V37.552L157.29 32.236H159.138L162.006 36.88H161.046L163.866 32.236H165.714Z" fill="#1A1C1B" fill-opacity="0.55"/>
<defs>
<clipPath id="clip0_2701_4133">
<rect width="35.3149" height="38.9935" fill="white" transform="translate(0 2.00293)"/>
</clipPath>
</defs>
</svg>
