<svg width="32" height="32" viewBox="0 0 32 32" fill="none" xmlns="http://www.w3.org/2000/svg">
<path d="M3.4375 2.77505C2.65625 2.93755 2.25 3.37505 2.25 4.0438C2.25 4.97505 3.525 6.43755 5.70625 7.9938L6.25625 8.38755L6.03125 8.67505C3.25 12.3188 2.2875 16.5375 3.3125 20.575C4.03125 23.375 6 26.2938 8.44375 28.1875C10.75 29.9688 13.575 30.9063 15.7875 30.625C17.5063 30.4125 18.7188 29.8563 19.275 29.0438C19.575 28.6 19.6875 28.1563 19.6875 27.45C19.6875 26.75 19.5312 26.2188 19.1125 25.5C18.8563 25.0625 18.8438 25.0063 18.8438 24.5563C18.8438 24.1125 18.8563 24.0563 19.0375 23.8375C19.4813 23.2813 20.05 23.0125 20.875 22.9563C21.2437 22.9313 21.4625 22.95 21.875 23.0625C22.2688 23.1688 22.6313 23.2125 23.2812 23.2313C24.0625 23.2563 24.2188 23.2438 24.7688 23.1C27.1313 22.4938 28.95 20.425 29.575 17.625C29.7 17.05 29.7188 16.8063 29.7188 15.6875C29.7125 14.2188 29.625 13.6875 29.1812 12.4C28.0125 8.9938 25.2938 5.9688 22.2 4.62505C20.4312 3.86255 18.9375 3.58755 16.85 3.6438C15.1813 3.68755 13.8562 3.9313 12.1062 4.52505L11.3125 4.7938L10.325 4.37505C8.4875 3.58755 6.525 2.9813 5.18125 2.7813C4.40625 2.6688 3.91875 2.6688 3.4375 2.77505ZM5.80625 3.9063C6.74375 4.1063 8.11875 4.5438 9.28125 5.01255C10.175 5.37505 12.2438 6.33755 12.5437 6.53755L12.6875 6.62505L12.1562 7.68755C11.8188 8.3563 11.625 8.82505 11.625 8.95005C11.625 9.31255 11.9812 9.53755 12.3438 9.40005C12.4 9.37505 12.6938 8.8563 13.0063 8.2438C13.3125 7.62505 13.575 7.12505 13.5938 7.12505C13.7625 7.12505 15.9563 8.58755 16.775 9.2438C17.0188 9.43755 17.2375 9.61255 17.275 9.63755C17.3063 9.6563 17.2 9.82505 17.0375 10.0063C16.6625 10.4188 16.45 10.8375 16.3438 11.3563C16.2937 11.5813 16.2438 11.775 16.2312 11.7938C16.1313 11.8938 13.35 10.9625 12.1562 10.4313C11.4062 10.1 11.1313 10.0563 10.9375 10.25C10.775 10.4125 10.7688 10.7688 10.925 10.925C11.0625 11.0625 12.05 11.5 13.1875 11.925C13.9062 12.1938 15.075 12.55 16.1 12.8063C16.325 12.8688 16.3625 12.9063 16.4938 13.225C16.975 14.375 18.125 15.1375 19.375 15.1375C19.9062 15.1375 20.0438 15.1 21.0312 14.7438C21.5 14.5813 22.0813 14.6 22.3563 14.8C22.5688 14.95 22.8375 15.4188 22.9375 15.8125C23.0562 16.2938 23.1313 16.425 23.3188 16.5C23.6875 16.6563 23.9688 16.425 24.3813 15.6125C24.7313 14.9188 24.8438 14.0313 24.6812 13.2375C24.5562 12.6125 24.1125 11.8125 23.5938 11.2625C22.725 10.3375 22.3 10.1313 21.9688 10.4688C21.6812 10.75 21.7437 10.875 22.5562 11.675C23.45 12.5625 23.6875 12.9688 23.7375 13.7125C23.7688 14.1938 23.7125 14.75 23.6375 14.75C23.6125 14.7438 23.5 14.6063 23.3813 14.4438C23 13.9125 22.4125 13.6313 21.6875 13.6313C21.175 13.625 20.8438 13.7063 20.2875 13.95C19.2812 14.3938 18.2625 14.1125 17.6625 13.2313C17.075 12.3625 17.1375 11.2875 17.8125 10.6313C18.3687 10.0938 19.1375 9.8938 19.9312 10.0813C20.3813 10.1875 20.5562 10.15 20.7125 9.92505C20.8563 9.72505 20.8375 9.5188 20.6625 9.3438C20.3687 9.0563 19.4375 8.92505 18.7188 9.0813C18.3813 9.1563 18.2563 9.16255 18.1813 9.1063C18.125 9.06255 17.8125 8.8188 17.4938 8.5563C16.2563 7.56255 14.7937 6.60005 13.3875 5.8438L12.5688 5.4063L12.8 5.32505C12.925 5.2813 13.4 5.15005 13.8438 5.0313C17.6625 4.05005 21.5312 4.85005 24.4438 7.22505C24.9312 7.62505 25.875 8.57505 26.275 9.07505C27.5188 10.6188 28.4 12.5938 28.6812 14.4813C28.7812 15.1188 28.7688 16.5188 28.6562 17.1313C28.3875 18.6938 27.5562 20.1688 26.4188 21.1313C25.1375 22.2063 23.9125 22.4875 22.1187 22.1063C21.175 21.9063 20.6875 21.8938 20.025 22.0625C18.5813 22.4313 17.6062 23.7063 17.8125 24.95C17.8813 25.3813 17.9438 25.5438 18.2438 26.0125C18.375 26.2313 18.5312 26.5438 18.5875 26.7063C18.7 27.05 18.7188 27.7938 18.6187 28.15C18.5125 28.525 18.125 28.9 17.6062 29.1188C15.5312 29.975 13.1562 29.7938 10.9062 28.6C8.48125 27.3125 6.2875 24.9875 5.0375 22.375C3.73125 19.65 3.55625 16.4063 4.5625 13.4688C5.025 12.1188 5.775 10.7063 6.64375 9.55005C6.85625 9.26255 7.05 9.0063 7.06875 8.9813C7.09375 8.95005 7.43125 9.11255 7.81875 9.3438C8.90625 9.98755 9.21875 10.1313 9.44375 10.05C9.54375 10.0188 9.65625 9.93755 9.6875 9.87505C9.775 9.71255 9.7625 9.4188 9.675 9.30005C9.63125 9.25005 9.1875 8.97505 8.6875 8.68755C6.10625 7.22505 4.1875 5.70005 3.44375 4.5313C3.18125 4.1188 3.1875 3.90005 3.45625 3.77505C3.74375 3.6438 4.89375 3.7063 5.80625 3.9063Z" fill="#4B4B4B"/>
<path d="M9.25625 11.625C8.575 11.7687 7.9875 12.225 7.675 12.8625C7.4875 13.2437 7.46875 13.325 7.46875 13.875C7.46875 14.5937 7.5875 14.9 8.0625 15.4C8.525 15.8937 9 16.0938 9.6875 16.0938C10.1313 16.0938 10.275 16.0687 10.575 15.925C12.025 15.2437 12.375 13.4125 11.275 12.275C10.775 11.7625 9.925 11.4875 9.25625 11.625ZM9.96875 12.6312C11.1 12.9187 11.2687 14.4562 10.2188 14.975C9.775 15.1875 9.3625 15.1687 8.98125 14.9C8.6 14.6375 8.425 14.2562 8.45 13.775C8.475 13.3437 8.6375 13.05 8.975 12.8187C9.33125 12.575 9.56875 12.5312 9.96875 12.6312Z" fill="#4B4B4B"/>
<path d="M25.9062 12.9376C25.575 13.0688 25.5125 13.3438 25.7187 13.7813C26.2 14.7938 26.025 15.8563 25.25 16.6251C24.8562 17.0251 24.4625 17.2313 23.9187 17.3251C22.9375 17.5001 21.825 16.9438 21.3687 16.0501C21.2062 15.7376 20.9937 15.6001 20.75 15.6563C20.3125 15.7501 20.2625 16.1813 20.625 16.7376C21.4687 18.0501 23.0687 18.6563 24.5187 18.2188C25.7875 17.8376 26.7625 16.7001 26.95 15.3938C27.0875 14.4376 26.75 13.1938 26.2875 12.9751C26.1687 12.9188 26.0625 12.8751 26.05 12.8813C26.0437 12.8813 25.975 12.9063 25.9062 12.9376Z" fill="#4B4B4B"/>
<path d="M8.74997 18.0875C7.83122 18.3375 7.18747 19.0562 7.06872 19.9562C6.93747 20.975 7.44372 21.8938 8.37497 22.3375C8.72497 22.5 8.84997 22.5312 9.28122 22.5312C9.71247 22.5312 9.83747 22.5 10.1875 22.3375C11.8 21.575 11.9937 19.4062 10.5437 18.4125C10.0062 18.05 9.33747 17.925 8.74997 18.0875ZM9.65622 19.0687C10.0062 19.1688 10.4 19.5875 10.4937 19.9688C10.7187 20.8687 9.88122 21.7375 9.00622 21.5063C8.05622 21.25 7.71872 20.1625 8.36872 19.4312C8.70622 19.05 9.14372 18.9312 9.65622 19.0687Z" fill="#4B4B4B"/>
<path d="M13.4438 22.95C12.725 23.0625 12.0875 23.5562 11.7563 24.25C11.6188 24.5438 11.5938 24.675 11.5938 25.1562C11.5938 25.6437 11.6188 25.7687 11.775 26.1062C11.9875 26.5687 12.475 27.0625 12.9188 27.2625C13.1562 27.375 13.3375 27.4 13.8125 27.4062C14.3438 27.4062 14.4438 27.3875 14.75 27.2313C15.225 26.9875 15.6438 26.5562 15.8563 26.1C16.0062 25.7687 16.0312 25.6437 16.0312 25.1562C16.025 24.6688 16 24.5438 15.8438 24.225C15.6312 23.775 15.2438 23.375 14.8312 23.1625C14.5625 23.0312 14.4125 22.9875 13.9062 22.9125C13.8375 22.9 13.6313 22.9187 13.4438 22.95ZM14.2875 24.0062C14.5375 24.0938 14.8688 24.4437 14.975 24.7188C15.3813 25.7937 14.25 26.825 13.2437 26.2937C12.875 26.0938 12.6187 25.7188 12.575 25.3187C12.4875 24.3563 13.3813 23.675 14.2875 24.0062Z" fill="#4B4B4B"/>
</svg>
