<svg width="32" height="32" viewBox="0 0 32 32" fill="none" xmlns="http://www.w3.org/2000/svg">
<path d="M12.9125 3.56875C12.525 3.6625 11.9563 3.99375 11.6813 4.29375C11.5437 4.44375 11.3375 4.75625 11.2313 4.9875L11.0312 5.40625L11.0125 7.45L10.9938 9.49375L8.2 9.5125L5.40625 9.53125L4.9875 9.73125C4.40625 10.0063 4.04375 10.3562 3.7625 10.925L3.53125 11.4V15.5V19.6L3.7625 20.075C4.04375 20.6437 4.40625 20.9938 4.9875 21.2687L5.40625 21.4688L7.2 21.4875L8.99375 21.5062L9.0125 24.0563L9.03125 26.6L9.2625 27.075C9.54375 27.6438 9.90625 27.9938 10.4875 28.2687L10.9062 28.4688H15H19.0938L19.5125 28.2687C20.0938 27.9938 20.4563 27.6438 20.7375 27.075L20.9688 26.6L20.9875 24.5562L21.0063 22.5062L23.8 22.4875L26.5938 22.4688L27.0125 22.2687C27.5938 21.9938 27.9563 21.6437 28.2375 21.075L28.4688 20.6V16.5V12.4L28.2375 11.925C27.9563 11.3562 27.5938 11.0063 27.0125 10.7312L26.5938 10.5312L24.8 10.5125L23.0063 10.4937L22.9875 7.94375L22.9688 5.4L22.7375 4.925C22.4563 4.35625 22.0938 4.00625 21.5125 3.73125L21.0938 3.53125L17.125 3.51875C14.8562 3.5125 13.05 3.5375 12.9125 3.56875ZM20.9625 4.575C21.3062 4.675 21.825 5.19375 21.925 5.5375C22.0312 5.9 22.0312 14.0938 21.925 14.45C21.8313 14.7562 21.45 15.2 21.1438 15.35C20.9188 15.4625 20.6375 15.4688 15.9 15.5L10.9 15.5312L10.425 15.7625C9.85625 16.0437 9.50625 16.4062 9.23125 16.9875L9.03125 17.4062L9.0125 18.95L8.9875 20.5H7.39375C6.31875 20.5 5.7125 20.475 5.5375 20.425C5.19375 20.325 4.675 19.8062 4.575 19.4625C4.46875 19.0938 4.46875 11.9062 4.575 11.5375C4.675 11.1938 5.19375 10.675 5.5375 10.575C5.73125 10.5187 7.2 10.5 11.4938 10.5H17.1938L17.3438 10.3438C17.4438 10.25 17.5 10.1187 17.5 10C17.5 9.88125 17.4438 9.75 17.3438 9.65625L17.1938 9.5H14.5938H12V7.65C12 6.375 12.025 5.7125 12.075 5.5375C12.1687 5.21875 12.6938 4.68125 13 4.58125C13.325 4.48125 20.6187 4.475 20.9625 4.575ZM26.4625 11.575C26.8062 11.675 27.325 12.1938 27.425 12.5375C27.5312 12.9062 27.5312 20.0938 27.425 20.4625C27.325 20.8063 26.8062 21.325 26.4625 21.425C26.2688 21.4812 24.8 21.5 20.5063 21.5H14.8063L14.6562 21.6562C14.45 21.8562 14.45 22.1437 14.6562 22.3438L14.8063 22.5H17.4062H20V24.35C20 25.625 19.975 26.2875 19.925 26.4625C19.825 26.8062 19.3063 27.325 18.9625 27.425C18.5938 27.5312 11.4062 27.5312 11.0375 27.425C10.6937 27.325 10.175 26.8062 10.075 26.4625C9.96875 26.1 9.96875 17.9062 10.075 17.55C10.1688 17.2437 10.55 16.8 10.8563 16.65C11.0813 16.5375 11.3625 16.5312 16.0938 16.5L21.0938 16.4688L21.5125 16.2688C22.0938 15.9937 22.4563 15.6438 22.7375 15.075L22.9688 14.6L22.9875 13.05L23.0125 11.5H24.6063C25.6812 11.5 26.2875 11.525 26.4625 11.575Z" fill="#4B4B4B"/>
<path d="M14.0938 6.08746C13.4625 6.36246 13.3125 7.19996 13.8063 7.69371C14.5063 8.39996 15.6563 7.76871 15.475 6.78121C15.3625 6.19371 14.6563 5.83746 14.0938 6.08746Z" fill="#4B4B4B"/>
<path d="M17.0938 24.0875C16.4625 24.3625 16.3125 25.2 16.8063 25.6937C17.2125 26.1 17.7875 26.1 18.1938 25.6937C18.9688 24.9187 18.1 23.65 17.0938 24.0875Z" fill="#4B4B4B"/>
</svg>
