<svg width="32" height="32" viewBox="0 0 32 32" fill="none" xmlns="http://www.w3.org/2000/svg">
<g clip-path="url(#clip0_426_5037)">
<path d="M29.75 0.125021C25.55 0.562521 21.6812 1.80002 19.125 3.51877C18.2187 4.12502 17.825 4.47502 15.7687 6.51877L13.7 8.57502L10.7687 8.90627C9.16248 9.08127 7.78748 9.26252 7.71873 9.30002C7.64998 9.33752 6.36248 10.6 4.85623 12.1063C2.08748 14.8813 2.08123 14.8875 2.12498 15.2813C2.14373 15.4688 2.36873 15.6813 2.61873 15.7438C2.74373 15.775 3.68123 15.9188 4.69998 16.0625L6.56248 16.325L7.07498 16.8563C7.36248 17.1438 7.59998 17.4063 7.61248 17.4313C7.61873 17.4563 7.01248 17.85 6.26248 18.3C4.89373 19.1188 4.74998 19.2375 4.74998 19.5688C4.74998 19.6375 4.78123 19.7563 4.81873 19.8313C4.91873 20.025 11.9312 27.05 12.1375 27.1625C12.2312 27.2125 12.3625 27.25 12.4312 27.25C12.7625 27.25 12.8812 27.1063 13.7 25.7375C14.15 24.9875 14.5437 24.3813 14.5687 24.3875C14.5937 24.4 14.8562 24.6375 15.1437 24.925L15.675 25.4375L15.9375 27.3C16.0812 28.3188 16.225 29.2563 16.2562 29.3813C16.3187 29.6313 16.5312 29.8563 16.7187 29.875C17.1125 29.9188 17.1187 29.9125 19.8937 27.1438C21.4 25.6375 22.6625 24.35 22.7 24.2813C22.7375 24.2125 22.9187 22.8375 23.0937 21.2313L23.425 18.3L25.4812 16.2313C27.525 14.175 27.875 13.7813 28.4812 12.875C30.225 10.2938 31.45 6.41252 31.875 2.16252C32.0437 0.468771 32.0437 0.468771 31.7875 0.212521C31.5937 0.0187702 31.5437 2.09808e-05 31.2125 0.00627136C31.0062 0.0125217 30.35 0.062521 29.75 0.125021ZM30.6625 1.82502C30.5562 3.05002 30.2937 4.61252 29.9562 6.02502L29.7375 6.95627L27.4 4.61877C26.1125 3.33127 25.0625 2.27502 25.0625 2.26877C25.0625 2.26252 25.475 2.16252 25.9875 2.03752C26.9812 1.80002 28.3812 1.55002 29.2812 1.44377C29.5937 1.40627 29.9125 1.36252 30 1.35002C30.0875 1.33752 30.2812 1.32502 30.4312 1.31877L30.7062 1.31252L30.6625 1.82502ZM26.5187 5.48752L29.3187 8.28752L29.0937 8.91252C28.4812 10.575 27.425 12.3813 26.3875 13.5313C26.0812 13.875 24.0062 15.9688 21.7875 18.1875L17.75 22.2188L15.2312 19.7C12.7625 17.2375 12.7062 17.1875 12.4625 17.1875C12.2 17.1875 12 17.3125 11.875 17.5563C11.6937 17.9063 11.75 17.9688 14.3437 20.5625C15.7 21.9188 16.8125 23.0563 16.8125 23.0938C16.8125 23.175 16.05 23.9375 15.9687 23.9375C15.8875 23.9375 8.06248 16.1125 8.06248 16.0313C8.06248 15.9 18.65 5.40627 19.1625 5.01877C20.2625 4.20002 21.6312 3.46252 23 2.94377C23.3625 2.80627 23.6687 2.69377 23.6875 2.68752C23.7062 2.68752 24.9812 3.95002 26.5187 5.48752ZM9.71248 12.5688L7.13748 15.1375L5.71248 14.9438C4.92498 14.8313 4.23123 14.725 4.16873 14.7C4.08123 14.6625 4.48748 14.2313 6.16873 12.55L8.28123 10.4375L10.125 10.225C11.1375 10.1125 12.0375 10.0125 12.125 10.0063C12.25 10 11.7437 10.5375 9.71248 12.5688ZM11.1187 20.9L13.6375 23.425L13 24.4938C12.6437 25.0813 12.3437 25.5625 12.3187 25.5625C12.2375 25.5625 6.41248 19.6938 6.45623 19.65C6.50623 19.5938 8.51873 18.3813 8.56248 18.375C8.58123 18.375 9.73123 19.5125 11.1187 20.9ZM21.7812 21.7563L21.5625 23.7188L19.45 25.8313C17.7687 27.5125 17.3375 27.9188 17.3 27.8313C17.275 27.7688 17.1687 27.075 17.0562 26.2875L16.8625 24.8625L19.4125 22.3063C20.8125 20.9063 21.9687 19.7625 21.9812 19.775C21.9937 19.7813 21.9 20.675 21.7812 21.7563Z" fill="#4B4B4B"/>
<path d="M19.5312 8.0063C19.3625 8.0438 18.9812 8.1813 18.6875 8.32505C17.65 8.82505 16.8687 9.83755 16.6562 10.9688C16.5375 11.5688 16.5375 11.85 16.6562 12.4063C16.9625 13.8688 18.1312 15.0375 19.5937 15.3438C20.15 15.4625 20.4312 15.4625 21.0437 15.3438C22.1625 15.1313 23.1812 14.35 23.675 13.3125C24.6562 11.275 23.675 8.88755 21.5562 8.1438C21.0312 7.96255 20.0812 7.8938 19.5312 8.0063ZM21.025 9.2813C21.8625 9.53755 22.5125 10.2125 22.75 11.0813C22.9562 11.85 22.675 12.8313 22.0625 13.4438C20.8937 14.6125 18.8687 14.2875 18.125 12.8125C17.4062 11.3938 18.1125 9.76255 19.6562 9.27505C20 9.1688 20.6562 9.1688 21.025 9.2813Z" fill="#4B4B4B"/>
<path d="M10.5188 15.425C10.3063 15.4563 10.0625 15.7875 10.0625 16.0438C10.0625 16.2 10.1125 16.3125 10.2438 16.4438C10.7 16.8938 11.45 16.4438 11.25 15.8375C11.2125 15.725 11.1438 15.6063 11.0938 15.5625C10.9813 15.4688 10.6875 15.3938 10.5188 15.425Z" fill="#4B4B4B"/>
<path d="M3.04991 24.5438C1.92491 25.6687 0.974912 26.6625 0.931162 26.7562C0.881162 26.8875 0.881162 26.9875 0.937412 27.15C1.02491 27.4188 1.23741 27.5625 1.54366 27.5625C1.76866 27.5625 1.86241 27.475 3.82491 25.5187C4.94991 24.3937 5.89991 23.4 5.94366 23.3063C5.99366 23.175 5.99366 23.075 5.93741 22.9125C5.84366 22.625 5.66241 22.5 5.34991 22.5C5.10616 22.5 5.05616 22.5437 3.04991 24.5438Z" fill="#4B4B4B"/>
<path d="M6.81246 24.35C6.58746 24.5 0.393714 30.675 0.181214 30.9625C-0.0625357 31.2938 -0.0562856 31.5188 0.212464 31.7875C0.481214 32.0563 0.706214 32.0625 1.03746 31.8188C1.32496 31.6063 7.49996 25.4125 7.64996 25.1875C7.81246 24.9438 7.78121 24.6625 7.55621 24.4438C7.33746 24.2188 7.05621 24.1875 6.81246 24.35Z" fill="#4B4B4B"/>
<path d="M8.59375 26.1187C8.49375 26.1812 7.5125 27.1312 6.425 28.2312C4.53125 30.1312 4.4375 30.2375 4.4375 30.4625C4.4375 30.7625 4.58125 30.975 4.85 31.0625C5.0125 31.1187 5.1125 31.1187 5.24375 31.0687C5.3375 31.025 6.33125 30.075 7.45625 28.95C9.4125 26.9875 9.5 26.8937 9.5 26.6687C9.5 26.3687 9.35625 26.1562 9.1125 26.0687C8.85625 25.975 8.8125 25.9812 8.59375 26.1187Z" fill="#4B4B4B"/>
</g>
<defs>
<clipPath id="clip0_426_5037">
<rect width="32" height="32" fill="white"/>
</clipPath>
</defs>
</svg>
