<svg width="106" height="106" viewBox="0 0 106 106" fill="none" xmlns="http://www.w3.org/2000/svg">
<path d="M72.3574 1.67695C60.184 7.68085 46.8719 10.9934 32.773 11.5316C29.3156 11.6559 29.0672 11.6973 28.6324 12.132C28.3633 12.4012 28.1562 12.8152 28.1562 13.0844C28.177 13.3535 30.3301 27.618 32.9801 44.8223L37.8039 76.084L36.4582 76.2082C34.7398 76.3531 33.7461 76.8293 32.7316 77.968C31.8207 79.0031 31.4688 80.0383 31.4688 81.6531V82.8125H30.3094C29.6676 82.8125 28.7566 82.916 28.2805 83.0609C27.1418 83.3922 25.4234 85.1105 25.0922 86.2492C24.9059 86.8703 24.8438 89.6238 24.8438 96.0418V104.986L25.3613 105.482L25.8582 106H53H80.1418L80.6387 105.482L81.1563 104.986V96.0418C81.1563 89.6238 81.0941 86.8703 80.9078 86.2492C80.5766 85.1105 78.8582 83.3922 77.7195 83.0609C77.2434 82.916 76.3324 82.8125 75.6906 82.8125H74.5312V81.6531C74.5312 79.9762 74.1586 78.9824 73.1441 77.8437C72.109 76.6844 70.9082 76.1875 69.2105 76.1875H68.0926L68.2168 75.5043C68.4652 74.0344 69.1484 68.4445 69.1484 67.8648C69.1484 67.0988 68.3203 66.25 67.5957 66.25C67.2645 66.25 66.809 66.4777 66.4777 66.809C65.9602 67.3473 65.898 67.6371 65.4426 71.2188C65.1734 73.3305 64.925 75.2973 64.8629 75.6078L64.7594 76.1875H52.9793C46.4992 76.1875 41.1992 76.1668 41.1785 76.1254C41.1785 76.1047 39.0461 62.3371 36.4582 45.5469L31.7586 15.0098L33.7254 14.8648C41.4891 14.2852 44.8844 13.8504 49.9152 12.8359C57.182 11.3453 65.2977 8.67461 72.2125 5.46562C73.2477 4.96875 74.1172 4.61679 74.1172 4.6582C74.1172 4.69961 72.4816 17.2457 70.4941 32.5453C68.4859 47.8449 66.8297 60.7016 66.809 61.157C66.7883 61.7988 66.8918 62.0473 67.3473 62.4406C68.0719 63.0617 68.7551 63.0617 69.459 62.482C69.9766 62.0059 70.018 61.8402 73.9102 31.9242C76.084 15.3824 77.8438 1.65625 77.8438 1.42851C77.8438 0.807419 76.9328 0 76.2496 0.0206985C75.9391 0.0206985 74.1793 0.766014 72.3574 1.67695ZM70.7012 80.0176C71.1359 80.4316 71.2188 80.7215 71.2188 81.6738V82.8125H58.4863H45.7332L45.2363 83.3301C44.9051 83.6406 44.7188 84.0754 44.7188 84.4688C44.7188 84.8621 44.9051 85.2969 45.2363 85.6074L45.7332 86.125H61.2812H76.8293L77.3262 86.6426L77.8438 87.1395V94.9238V102.688H53H28.1562V94.9238V87.1395L28.6738 86.6426L29.1707 86.125H34.7812H40.3918L40.8887 85.6074C41.2199 85.2969 41.4062 84.8621 41.4062 84.4688C41.4062 84.0754 41.2199 83.6406 40.8887 83.3301C40.4125 82.8332 40.2883 82.8125 37.5762 82.8125H34.7812V81.6738C34.7812 80.7215 34.8641 80.4316 35.2988 80.0176L35.7957 79.5H53H70.2043L70.7012 80.0176Z" fill="#4B4B4B"/>
<path d="M41.9238 93.2676C41.5926 93.5781 41.4062 94.0129 41.4062 94.4062C41.4062 94.7996 41.5926 95.2344 41.9238 95.5449L42.4207 96.0625H53H63.5793L64.0762 95.5449C64.4074 95.2344 64.5938 94.7996 64.5938 94.4062C64.5938 94.0129 64.4074 93.5781 64.0762 93.2676L63.5793 92.75H53H42.4207L41.9238 93.2676Z" fill="#4B4B4B"/>
<path d="M52.5859 18.3637C51.882 18.6121 51.3852 19.3574 50.1016 21.9867C49.3563 23.498 48.7352 24.7816 48.7145 24.823C48.673 24.8852 42.5863 25.8375 42.0066 25.8789C41.5719 25.8996 40.9922 26.8105 40.9922 27.4938C40.9922 28.1977 41.1785 28.4461 43.4973 30.7027L46.0023 33.1457L45.4641 36.2926C45.1742 38.0316 44.9258 39.6465 44.9258 39.9156C44.9258 40.5367 45.816 41.4062 46.4578 41.4062C46.727 41.4062 48.3004 40.7023 49.9152 39.8535C51.5508 39.0047 52.9379 38.3008 53.0207 38.3008C53.1035 38.3008 54.4906 39.0047 56.0848 39.8535C57.6996 40.7023 59.2523 41.4062 59.5422 41.4062C60.2254 41.4062 61.0742 40.5367 61.0742 39.8328C61.0742 39.543 60.8258 37.9074 60.5359 36.2305L59.9977 33.1664L62.5027 30.7234C64.8215 28.4461 65.0078 28.1977 65.0078 27.473C65.0078 26.4793 64.4695 25.941 63.3102 25.7754C62.8133 25.6926 61.302 25.4855 59.9355 25.2992L57.4512 24.9473L55.8363 21.8004C54.4492 19.0883 54.1387 18.6328 53.5797 18.4465C53.2277 18.3223 52.9379 18.2188 52.9172 18.2395C52.8965 18.2395 52.7516 18.3016 52.5859 18.3637ZM54.0766 25.734C55.1738 27.9699 55.2359 27.9906 58.0309 28.3633L59.8527 28.6117L58.1965 30.3301C57.2648 31.2617 56.5195 32.1105 56.5195 32.2141C56.5195 32.3176 56.6645 33.1871 56.8301 34.1602C57.3063 36.9137 57.4098 36.8309 55.3809 35.7336C54.4078 35.216 53.352 34.7813 53.0207 34.7813C52.6895 34.7813 51.6129 35.216 50.6398 35.7336C48.5902 36.8102 48.6938 36.9137 49.1699 34.2016C49.3355 33.2699 49.3977 32.3383 49.3355 32.1313C49.2734 31.9449 48.5281 31.0754 47.6793 30.2059L46.1266 28.6117L47.9484 28.384C50.7641 27.9906 50.8262 27.9699 51.9234 25.734C52.4617 24.6781 52.9379 23.8086 53 23.8086C53.0621 23.8086 53.5383 24.6781 54.0766 25.734Z" fill="#4B4B4B"/>
<path d="M43.5801 50.2051C43.2488 50.5156 43.0625 50.9504 43.0625 51.3438C43.0625 51.7371 43.2488 52.1719 43.5801 52.4824L44.077 53H53H61.923L62.4199 52.4824C62.7512 52.1719 62.9375 51.7371 62.9375 51.3438C62.9375 50.9504 62.7512 50.5156 62.4199 50.2051L61.923 49.6875H53H44.077L43.5801 50.2051Z" fill="#4B4B4B"/>
<path d="M46.8926 56.8301C46.5613 57.1406 46.375 57.5754 46.375 57.9688C46.375 58.3621 46.5613 58.7969 46.8926 59.1074L47.3895 59.625H53H58.6105L59.1074 59.1074C59.4387 58.7969 59.625 58.3621 59.625 57.9688C59.625 57.5754 59.4387 57.1406 59.1074 56.8301L58.6105 56.3125H53H47.3895L46.8926 56.8301Z" fill="#4B4B4B"/>
</svg>
