<svg width="48" height="48" viewBox="0 0 48 48" fill="none" xmlns="http://www.w3.org/2000/svg">
<path d="M31.4531 7.64038C31.1344 7.94976 31.1438 8.38101 31.4813 8.70913C31.725 8.95288 31.8094 8.97163 33.1688 9.08413C33.9563 9.15913 34.5938 9.24351 34.575 9.29038C34.5563 9.32788 31.5563 11.7091 27.9094 14.5685L21.2719 19.781L20.4938 18.956C20.0719 18.506 19.2 17.5779 18.5625 16.8935C17.4094 15.6654 17.1656 15.4873 16.7625 15.5998C16.5375 15.656 5.95312 23.8873 5.7375 24.1591C5.68125 24.2435 5.625 24.4591 5.625 24.6279C5.625 25.2279 6.28125 25.5935 6.80625 25.2841C6.90938 25.2185 9.20625 23.4373 11.8969 21.3279C14.5969 19.2091 16.8281 17.4841 16.8656 17.4841C16.8938 17.4841 17.7844 18.4029 18.8438 19.5279C19.8938 20.6529 20.85 21.5904 20.9719 21.6185C21.0938 21.656 21.2813 21.6466 21.4031 21.6185C21.5156 21.581 24.7969 19.0591 28.6875 15.9935C32.5781 12.9373 35.775 10.4435 35.7938 10.4623C35.8125 10.4716 35.7563 11.156 35.6719 11.9904C35.5406 13.3498 35.5406 13.5279 35.6719 13.781C35.9063 14.2404 36.6375 14.2966 36.9469 13.8748C37.0875 13.6873 37.1719 13.1716 37.3594 11.156C37.4906 9.78726 37.5938 8.59663 37.5938 8.51226C37.5938 8.42788 37.5 8.24038 37.3781 8.10913C37.1719 7.86538 37.1156 7.85601 34.8281 7.63101C31.8094 7.34976 31.7344 7.34976 31.4531 7.64038Z" fill="#4B4B4B"/>
<path d="M40.8094 13.8469C38.7188 15.5438 36.2156 17.6813 36.1219 17.85C36.0375 18 36.0094 20.5875 36 28.9969C36 40.65 35.9906 40.3688 36.4219 40.5375C36.5063 40.5656 37.7813 40.5938 39.2438 40.5938H41.9156L42.1406 40.3594L42.375 40.1344V27.0563C42.375 19.8656 42.3469 13.9125 42.3188 13.8281C42.2438 13.65 41.8031 13.4063 41.5406 13.4063C41.4375 13.4063 41.1094 13.6031 40.8094 13.8469ZM40.7813 27.5156V39H39.1875H37.5938V28.8V18.6L39.1219 17.325C39.9563 16.6219 40.6688 16.0406 40.7156 16.0406C40.7531 16.0313 40.7813 21.1969 40.7813 27.5156Z" fill="#4B4B4B"/>
<path d="M31.6406 25.5188C31.3688 25.6781 27 29.3156 26.7 29.6344L26.4375 29.9063V35.025V40.1344L26.6719 40.3594L26.8969 40.5938H29.5969C32.4281 40.5844 32.475 40.5844 32.7 40.1531C32.7844 40.0031 32.8125 38.0906 32.8125 32.9531V25.95L32.5406 25.6781C32.25 25.3969 31.95 25.3406 31.6406 25.5188ZM31.2188 33.4688V39H29.625H28.0313V34.7906V30.5813L29.6063 29.2594C30.4688 28.5375 31.1813 27.9469 31.2 27.9375C31.2094 27.9375 31.2188 30.4219 31.2188 33.4688Z" fill="#4B4B4B"/>
<path d="M19.6406 27.8906C18.3 28.7906 17.1094 29.6344 16.9969 29.7656L16.7812 30.0094V34.9781C16.7812 40.0781 16.7906 40.2 17.1469 40.4719C17.2594 40.5563 18.0188 40.5844 19.9969 40.5938H22.6969L22.9219 40.3594L23.1563 40.1344V33.3938V26.6531L22.9406 26.4563C22.4906 26.0344 22.275 26.1281 19.6406 27.8906ZM21.5625 33.7969V39H19.9688H18.375V34.8281V30.6563L19.9031 29.6344C20.7375 29.0719 21.45 28.6031 21.4969 28.6031C21.5344 28.5938 21.5625 30.9375 21.5625 33.7969Z" fill="#4B4B4B"/>
<path d="M12.6188 33.45C12.3375 33.5063 7.425 36.8156 7.3125 37.0219C7.25625 37.125 7.21875 37.8281 7.21875 38.6719C7.21875 40.0969 7.22813 40.1344 7.45313 40.3594L7.67813 40.5938H10.4063H13.1344L13.3594 40.3594L13.5938 40.1344V37.05C13.5938 34.1156 13.5844 33.9469 13.4063 33.7313C13.2188 33.4875 12.9375 33.3844 12.6188 33.45ZM12 37.3594V39H10.4063H8.8125V38.4094L8.82188 37.8281L10.3875 36.7781C11.25 36.2063 11.9625 35.7281 11.9813 35.7281C11.9906 35.7188 12 36.4594 12 37.3594Z" fill="#4B4B4B"/>
</svg>
