<svg width="48" height="48" viewBox="0 0 48 48" fill="none" xmlns="http://www.w3.org/2000/svg">
<path d="M5.15625 4.16232C3.98438 4.40607 3.375 5.06232 3.375 6.06545C3.375 7.46232 5.2875 9.65608 8.55938 11.9905L9.38438 12.5811L9.04688 13.0123C4.875 18.478 3.43125 24.8061 4.96875 30.8623C6.04688 35.0623 9 39.4405 12.6656 42.2811C16.125 44.953 20.3625 46.3592 23.6813 45.9373C26.2594 45.6186 28.0781 44.7842 28.9125 43.5655C29.3625 42.8998 29.5313 42.2342 29.5313 41.1748C29.5313 40.1248 29.2969 39.328 28.6688 38.2498C28.2844 37.5936 28.2656 37.5092 28.2656 36.8342C28.2656 36.1686 28.2844 36.0842 28.5563 35.7561C29.2219 34.9217 30.075 34.5186 31.3125 34.4342C31.8656 34.3967 32.1938 34.4248 32.8125 34.5936C33.4031 34.753 33.9469 34.8186 34.9219 34.8467C36.0938 34.8842 36.3281 34.8655 37.1531 34.6498C40.6969 33.7405 43.425 30.6373 44.3625 26.4373C44.55 25.5748 44.5781 25.2092 44.5781 23.5311C44.5688 21.328 44.4375 20.5311 43.7719 18.5998C42.0188 13.4905 37.9406 8.95295 33.3 6.93732C30.6469 5.79357 28.4063 5.38107 25.275 5.46545C22.7719 5.53107 20.7844 5.8967 18.1594 6.78732L16.9688 7.19045L15.4875 6.56232C12.7313 5.38107 9.7875 4.4717 7.77188 4.1717C6.60938 4.00295 5.87813 4.00295 5.15625 4.16232ZM8.70938 5.8592C10.1156 6.1592 12.1781 6.81545 13.9219 7.51857C15.2625 8.06232 18.3656 9.50608 18.8156 9.80608L19.0313 9.93733L18.2344 11.5311C17.7281 12.5342 17.4375 13.2373 17.4375 13.4248C17.4375 13.9686 17.9719 14.3061 18.5156 14.0998C18.6 14.0623 19.0406 13.2842 19.5094 12.3655C19.9688 11.4373 20.3625 10.6873 20.3906 10.6873C20.6438 10.6873 23.9344 12.8811 25.1625 13.8655C25.5281 14.1561 25.8563 14.4186 25.9125 14.4561C25.9594 14.4842 25.8 14.7373 25.5563 15.0092C24.9938 15.628 24.675 16.2561 24.5156 17.0342C24.4406 17.3717 24.3656 17.6623 24.3469 17.6905C24.1969 17.8405 20.025 16.4436 18.2344 15.6467C17.1094 15.1498 16.6969 15.0842 16.4063 15.3748C16.1625 15.6186 16.1531 16.153 16.3875 16.3873C16.5938 16.5936 18.075 17.2498 19.7813 17.8873C20.8594 18.2905 22.6125 18.8248 24.15 19.2092C24.4875 19.303 24.5438 19.3592 24.7406 19.8373C25.4625 21.5623 27.1875 22.7061 29.0625 22.7061C29.8594 22.7061 30.0656 22.6498 31.5469 22.1155C32.25 21.8717 33.1219 21.8998 33.5344 22.1998C33.8531 22.4248 34.2563 23.128 34.4063 23.7186C34.5844 24.4405 34.6969 24.6373 34.9781 24.7498C35.5313 24.9842 35.9531 24.6373 36.5719 23.4186C37.0969 22.378 37.2656 21.0467 37.0219 19.8561C36.8344 18.9186 36.1688 17.7186 35.3906 16.8936C34.0875 15.5061 33.45 15.1967 32.9531 15.703C32.5219 16.1248 32.6156 16.3123 33.8344 17.5123C35.175 18.8436 35.5313 19.453 35.6063 20.5686C35.6531 21.2905 35.5688 22.1248 35.4563 22.1248C35.4188 22.1155 35.25 21.9092 35.0719 21.6655C34.5 20.8686 33.6188 20.4467 32.5313 20.4467C31.7625 20.4373 31.2656 20.5592 30.4313 20.9248C28.9219 21.5905 27.3938 21.1686 26.4938 19.8467C25.6125 18.5436 25.7063 16.9311 26.7188 15.9467C27.5531 15.1405 28.7063 14.8405 29.8969 15.1217C30.5719 15.2811 30.8344 15.2248 31.0688 14.8873C31.2844 14.5873 31.2563 14.278 30.9938 14.0155C30.5531 13.5842 29.1563 13.3873 28.0781 13.6217C27.5719 13.7342 27.3844 13.7436 27.2719 13.6592C27.1875 13.5936 26.7188 13.228 26.2406 12.8342C24.3844 11.3436 22.1906 9.89983 20.0813 8.76545L18.8531 8.1092L19.2 7.98733C19.3875 7.9217 20.1 7.72482 20.7656 7.5467C26.4938 6.07482 32.2969 7.27483 36.6656 10.8373C37.3969 11.4373 38.8125 12.8623 39.4125 13.6123C41.2781 15.928 42.6 18.8905 43.0219 21.7217C43.1719 22.678 43.1531 24.778 42.9844 25.6967C42.5813 28.0405 41.3344 30.253 39.6281 31.6967C37.7063 33.3092 35.8688 33.7311 33.1781 33.1592C31.7625 32.8592 31.0313 32.8405 30.0375 33.0936C27.8719 33.6467 26.4094 35.5592 26.7188 37.4248C26.8219 38.0717 26.9156 38.3155 27.3656 39.0186C27.5625 39.3467 27.7969 39.8155 27.8813 40.0592C28.05 40.5748 28.0781 41.6905 27.9281 42.2248C27.7688 42.7873 27.1875 43.3498 26.4094 43.678C23.2969 44.9623 19.7344 44.6905 16.3594 42.8998C12.7219 40.9686 9.43125 37.4811 7.55625 33.5623C5.59688 29.4748 5.33438 24.6092 6.84375 20.203C7.5375 18.178 8.6625 16.0592 9.96563 14.3248C10.2844 13.8936 10.575 13.5092 10.6031 13.4717C10.6406 13.4248 11.1469 13.6686 11.7281 14.0155C13.3594 14.9811 13.8281 15.1967 14.1656 15.0748C14.3156 15.028 14.4844 14.9061 14.5313 14.8123C14.6625 14.5686 14.6438 14.128 14.5125 13.9498C14.4469 13.8748 13.7813 13.4623 13.0313 13.0311C9.15938 10.8373 6.28125 8.54982 5.16563 6.7967C4.77188 6.17795 4.78125 5.84982 5.18438 5.66232C5.61563 5.46545 7.34063 5.5592 8.70938 5.8592Z" fill="#4B4B4B"/>
<path d="M13.8844 17.4375C12.8625 17.6531 11.9812 18.3375 11.5125 19.2937C11.2312 19.8656 11.2031 19.9875 11.2031 20.8125C11.2031 21.8906 11.3812 22.35 12.0937 23.1C12.7875 23.8406 13.5 24.1406 14.5312 24.1406C15.1969 24.1406 15.4125 24.1031 15.8625 23.8875C18.0375 22.8656 18.5625 20.1187 16.9125 18.4125C16.1625 17.6437 14.8875 17.2312 13.8844 17.4375ZM14.9531 18.9469C16.65 19.3781 16.9031 21.6844 15.3281 22.4625C14.6625 22.7812 14.0437 22.7531 13.4719 22.35C12.9 21.9562 12.6375 21.3844 12.675 20.6625C12.7125 20.0156 12.9562 19.575 13.4625 19.2281C13.9969 18.8625 14.3531 18.7969 14.9531 18.9469Z" fill="#4B4B4B"/>
<path d="M38.8594 19.406C38.3626 19.6028 38.2688 20.0153 38.5782 20.6716C39.3001 22.1903 39.0376 23.7841 37.8751 24.9372C37.2844 25.5372 36.6938 25.8466 35.8782 25.9872C34.4063 26.2497 32.7376 25.4153 32.0532 24.0747C31.8094 23.606 31.4907 23.3997 31.1251 23.4841C30.4688 23.6247 30.3938 24.2716 30.9376 25.106C32.2032 27.0747 34.6032 27.9841 36.7782 27.3278C38.6813 26.756 40.1438 25.0497 40.4251 23.0903C40.6313 21.656 40.1251 19.7903 39.4313 19.4622C39.2532 19.3778 39.0938 19.3122 39.0751 19.3216C39.0657 19.3216 38.9626 19.3591 38.8594 19.406Z" fill="#4B4B4B"/>
<path d="M13.125 27.1312C11.7469 27.5062 10.7813 28.5844 10.6031 29.9344C10.4063 31.4625 11.1656 32.8406 12.5625 33.5062C13.0875 33.75 13.275 33.7969 13.9219 33.7969C14.5688 33.7969 14.7563 33.75 15.2813 33.5062C17.7 32.3625 17.9906 29.1094 15.8156 27.6187C15.0094 27.075 14.0063 26.8875 13.125 27.1312ZM14.4844 28.6031C15.0094 28.7531 15.6 29.3812 15.7406 29.9531C16.0781 31.3031 14.8219 32.6062 13.5094 32.2594C12.0844 31.875 11.5781 30.2437 12.5531 29.1469C13.0594 28.575 13.7156 28.3969 14.4844 28.6031Z" fill="#4B4B4B"/>
<path d="M20.1656 34.425C19.0875 34.5937 18.1313 35.3344 17.6344 36.375C17.4281 36.8156 17.3906 37.0125 17.3906 37.7344C17.3906 38.4656 17.4281 38.6531 17.6625 39.1594C17.9813 39.8531 18.7125 40.5937 19.3781 40.8937C19.7344 41.0625 20.0063 41.1 20.7188 41.1094C21.5156 41.1094 21.6656 41.0812 22.125 40.8469C22.8375 40.4812 23.4656 39.8344 23.7844 39.15C24.0094 38.6531 24.0469 38.4656 24.0469 37.7344C24.0375 37.0031 24 36.8156 23.7656 36.3375C23.4469 35.6625 22.8656 35.0625 22.2469 34.7437C21.8438 34.5469 21.6188 34.4812 20.8594 34.3687C20.7563 34.35 20.4469 34.3781 20.1656 34.425ZM21.4313 36.0094C21.8063 36.1406 22.3031 36.6656 22.4625 37.0781C23.0719 38.6906 21.375 40.2375 19.8656 39.4406C19.3125 39.1406 18.9281 38.5781 18.8625 37.9781C18.7313 36.5344 20.0719 35.5125 21.4313 36.0094Z" fill="#4B4B4B"/>
</svg>
