<svg width="48" height="48" viewBox="0 0 48 48" fill="none" xmlns="http://www.w3.org/2000/svg">
<path d="M19.3688 5.35313C18.7875 5.49375 17.9344 5.99063 17.5219 6.44063C17.3156 6.66563 17.0063 7.13438 16.8469 7.48125L16.5469 8.10938L16.5188 11.175L16.4906 14.2406L12.3 14.2688L8.10938 14.2969L7.48125 14.5969C6.60938 15.0094 6.06563 15.5344 5.64375 16.3875L5.29688 17.1V23.25V29.4L5.64375 30.1125C6.06563 30.9656 6.60938 31.4906 7.48125 31.9031L8.10938 32.2031L10.8 32.2313L13.4906 32.2594L13.5188 36.0844L13.5469 39.9L13.8938 40.6125C14.3156 41.4656 14.8594 41.9906 15.7313 42.4031L16.3594 42.7031H22.5H28.6406L29.2688 42.4031C30.1406 41.9906 30.6844 41.4656 31.1063 40.6125L31.4531 39.9L31.4813 36.8344L31.5094 33.7594L35.7 33.7313L39.8906 33.7031L40.5188 33.4031C41.3906 32.9906 41.9344 32.4656 42.3563 31.6125L42.7031 30.9V24.75V18.6L42.3563 17.8875C41.9344 17.0344 41.3906 16.5094 40.5188 16.0969L39.8906 15.7969L37.2 15.7688L34.5094 15.7406L34.4813 11.9156L34.4531 8.1L34.1063 7.3875C33.6844 6.53438 33.1406 6.00938 32.2688 5.59688L31.6406 5.29688L25.6875 5.27813C22.2844 5.26875 19.575 5.30625 19.3688 5.35313ZM31.4438 6.8625C31.9594 7.0125 32.7375 7.79063 32.8875 8.30625C33.0469 8.85 33.0469 21.1406 32.8875 21.675C32.7469 22.1344 32.175 22.8 31.7156 23.025C31.3781 23.1938 30.9563 23.2031 23.85 23.25L16.35 23.2969L15.6375 23.6438C14.7844 24.0656 14.2594 24.6094 13.8469 25.4813L13.5469 26.1094L13.5188 28.425L13.4813 30.75H11.0906C9.47813 30.75 8.56875 30.7125 8.30625 30.6375C7.79063 30.4875 7.0125 29.7094 6.8625 29.1938C6.70312 28.6406 6.70312 17.8594 6.8625 17.3063C7.0125 16.7906 7.79063 16.0125 8.30625 15.8625C8.59688 15.7781 10.8 15.75 17.2406 15.75H25.7906L26.0156 15.5156C26.1656 15.375 26.25 15.1781 26.25 15C26.25 14.8219 26.1656 14.625 26.0156 14.4844L25.7906 14.25H21.8906H18V11.475C18 9.5625 18.0375 8.56875 18.1125 8.30625C18.2531 7.82813 19.0406 7.02188 19.5 6.87188C19.9875 6.72188 30.9281 6.7125 31.4438 6.8625ZM39.6938 17.3625C40.2094 17.5125 40.9875 18.2906 41.1375 18.8063C41.2969 19.3594 41.2969 30.1406 41.1375 30.6938C40.9875 31.2094 40.2094 31.9875 39.6938 32.1375C39.4031 32.2219 37.2 32.25 30.7594 32.25H22.2094L21.9844 32.4844C21.675 32.7844 21.675 33.2156 21.9844 33.5156L22.2094 33.75H26.1094H30V36.525C30 38.4375 29.9625 39.4313 29.8875 39.6938C29.7375 40.2094 28.9594 40.9875 28.4438 41.1375C27.8906 41.2969 17.1094 41.2969 16.5563 41.1375C16.0406 40.9875 15.2625 40.2094 15.1125 39.6938C14.9531 39.15 14.9531 26.8594 15.1125 26.325C15.2531 25.8656 15.825 25.2 16.2844 24.975C16.6219 24.8063 17.0438 24.7969 24.1406 24.75L31.6406 24.7031L32.2688 24.4031C33.1406 23.9906 33.6844 23.4656 34.1063 22.6125L34.4531 21.9L34.4813 19.575L34.5188 17.25H36.9094C38.5219 17.25 39.4313 17.2875 39.6938 17.3625Z" fill="#4B4B4B"/>
<path d="M21.1406 9.13125C20.1938 9.54375 19.9688 10.8 20.7094 11.5406C21.7594 12.6 23.4844 11.6531 23.2125 10.1719C23.0438 9.29063 21.9844 8.75625 21.1406 9.13125Z" fill="#4B4B4B"/>
<path d="M25.6406 36.1312C24.6938 36.5437 24.4688 37.7999 25.2094 38.5405C25.8188 39.1499 26.6813 39.1499 27.2906 38.5405C28.4531 37.378 27.15 35.4749 25.6406 36.1312Z" fill="#4B4B4B"/>
</svg>
