<svg width="48" height="48" viewBox="0 0 48 48" fill="none" xmlns="http://www.w3.org/2000/svg">
<g clip-path="url(#clip0_426_34871)">
<path d="M44.625 0.187164C38.325 0.843414 32.5219 2.69967 28.6875 5.27779C27.3281 6.18716 26.7375 6.71217 23.6531 9.77779L20.55 12.8622L16.1531 13.359C13.7437 13.6215 11.6812 13.8934 11.5781 13.9497C11.475 14.0059 9.54375 15.8997 7.28437 18.159C3.13125 22.3215 3.12187 22.3309 3.1875 22.9215C3.21562 23.2028 3.55312 23.5215 3.92812 23.6153C4.11562 23.6622 5.52187 23.8778 7.05 24.0934L9.84375 24.4872L10.6125 25.284C11.0437 25.7153 11.4 26.109 11.4187 26.1465C11.4281 26.184 10.5187 26.7747 9.39375 27.4497C7.34062 28.6778 7.125 28.8559 7.125 29.3528C7.125 29.4559 7.17187 29.634 7.22812 29.7465C7.37812 30.0372 17.8969 40.5747 18.2062 40.7434C18.3469 40.8184 18.5437 40.8747 18.6469 40.8747C19.1437 40.8747 19.3219 40.659 20.55 38.6059C21.225 37.4809 21.8156 36.5715 21.8531 36.5809C21.8906 36.5997 22.2844 36.9559 22.7156 37.3872L23.5125 38.1559L23.9062 40.9497C24.1219 42.4778 24.3375 43.884 24.3844 44.0715C24.4781 44.4465 24.7969 44.784 25.0781 44.8122C25.6687 44.8778 25.6781 44.8684 29.8406 40.7153C32.1 38.4559 33.9937 36.5247 34.05 36.4215C34.1062 36.3184 34.3781 34.2559 34.6406 31.8465L35.1375 27.4497L38.2219 24.3465C41.2875 21.2622 41.8125 20.6715 42.7219 19.3122C45.3375 15.4403 47.175 9.61842 47.8125 3.24342C48.0656 0.702789 48.0656 0.702789 47.6812 0.318413C47.3906 0.0277901 47.3156 -0.000335693 46.8187 0.00904083C46.5094 0.0184135 45.525 0.0934143 44.625 0.187164ZM45.9937 2.73716C45.8344 4.57467 45.4406 6.91842 44.9344 9.03716L44.6062 10.434L41.1 6.92779C39.1687 4.99654 37.5937 3.41216 37.5937 3.40279C37.5937 3.39341 38.2125 3.24342 38.9812 3.05592C40.4719 2.69967 42.5719 2.32467 43.9219 2.16529C44.3906 2.10904 44.8687 2.04342 45 2.02467C45.1312 2.00591 45.4219 1.98716 45.6469 1.97779L46.0594 1.96841L45.9937 2.73716ZM39.7781 8.23092L43.9781 12.4309L43.6406 13.3684C42.7219 15.8622 41.1375 18.5715 39.5812 20.2965C39.1219 20.8122 36.0094 23.9528 32.6812 27.2809L26.625 33.3278L22.8469 29.5497C19.1437 25.8559 19.0594 25.7809 18.6937 25.7809C18.3 25.7809 18 25.9684 17.8125 26.334C17.5406 26.859 17.625 26.9528 21.5156 30.8434C23.55 32.8778 25.2187 34.584 25.2187 34.6403C25.2187 34.7622 24.075 35.9059 23.9531 35.9059C23.8312 35.9059 12.0937 24.1684 12.0937 24.0465C12.0937 23.8497 27.975 8.10904 28.7437 7.52779C30.3937 6.29966 32.4469 5.19341 34.5 4.41529C35.0437 4.20904 35.5031 4.04029 35.5312 4.03091C35.5594 4.03091 37.4719 5.92466 39.7781 8.23092ZM14.5687 18.8528L10.7062 22.7059L8.56875 22.4153C7.3875 22.2465 6.34687 22.0872 6.25312 22.0497C6.12187 21.9934 6.73125 21.3465 9.25312 18.8247L12.4219 15.6559L15.1875 15.3372C16.7062 15.1684 18.0562 15.0184 18.1875 15.009C18.375 14.9997 17.6156 15.8059 14.5687 18.8528ZM16.6781 31.3497L20.4562 35.1372L19.5 36.7403C18.9656 37.6215 18.5156 38.3434 18.4781 38.3434C18.3562 38.3434 9.61875 29.5403 9.68437 29.4747C9.75937 29.3903 12.7781 27.5715 12.8437 27.5622C12.8719 27.5622 14.5969 29.2684 16.6781 31.3497ZM32.6719 32.634L32.3437 35.5778L29.175 38.7465C26.6531 41.2684 26.0062 41.8778 25.95 41.7465C25.9125 41.6528 25.7531 40.6122 25.5844 39.4309L25.2937 37.2934L29.1187 33.459C31.2187 31.359 32.9531 29.6434 32.9719 29.6622C32.9906 29.6715 32.85 31.0122 32.6719 32.634Z" fill="#4B4B4B"/>
<path d="M29.2969 12.0091C29.0438 12.0653 28.4719 12.2716 28.0313 12.4872C26.475 13.2372 25.3031 14.756 24.9844 16.4528C24.8063 17.3528 24.8063 17.7747 24.9844 18.6091C25.4438 20.8028 27.1969 22.556 29.3906 23.0153C30.225 23.1935 30.6469 23.1935 31.5656 23.0153C33.2438 22.6966 34.7719 21.5247 35.5125 19.9685C36.9844 16.9122 35.5125 13.331 32.3344 12.2153C31.5469 11.9435 30.1219 11.8403 29.2969 12.0091ZM31.5375 13.9216C32.7938 14.306 33.7688 15.3185 34.125 16.6216C34.4344 17.7747 34.0125 19.2466 33.0938 20.1653C31.3406 21.9185 28.3031 21.431 27.1875 19.2185C26.1094 17.0903 27.1688 14.6435 29.4844 13.9122C30 13.7528 30.9844 13.7528 31.5375 13.9216Z" fill="#4B4B4B"/>
<path d="M15.7781 23.1373C15.4594 23.1842 15.0938 23.6811 15.0938 24.0655C15.0938 24.2998 15.1688 24.4686 15.3656 24.6655C16.05 25.3405 17.175 24.6655 16.875 23.7561C16.8188 23.5873 16.7156 23.4092 16.6406 23.3436C16.4719 23.203 16.0313 23.0905 15.7781 23.1373Z" fill="#4B4B4B"/>
<path d="M4.57502 36.8156C2.88752 38.5031 1.46252 39.9937 1.3969 40.1344C1.3219 40.3312 1.3219 40.4812 1.40627 40.725C1.53752 41.1281 1.85627 41.3438 2.31565 41.3438C2.65315 41.3438 2.79377 41.2125 5.73752 38.2781C7.42502 36.5906 8.85002 35.1 8.91565 34.9594C8.99065 34.7625 8.99065 34.6125 8.90627 34.3687C8.76565 33.9375 8.49377 33.75 8.02502 33.75C7.6594 33.75 7.5844 33.8156 4.57502 36.8156Z" fill="#4B4B4B"/>
<path d="M10.2188 36.5248C9.88126 36.7498 0.590633 46.0123 0.271883 46.4436C-0.0937425 46.9404 -0.0843674 47.2779 0.318758 47.6811C0.721883 48.0842 1.05938 48.0936 1.55626 47.7279C1.98751 47.4092 11.25 38.1186 11.475 37.7811C11.7188 37.4154 11.6719 36.9936 11.3344 36.6654C11.0063 36.3279 10.5844 36.2811 10.2188 36.5248Z" fill="#4B4B4B"/>
<path d="M12.8906 39.1781C12.7406 39.2718 11.2687 40.6968 9.6375 42.3468C6.79687 45.1968 6.65625 45.3562 6.65625 45.6937C6.65625 46.1437 6.87187 46.4624 7.275 46.5937C7.51875 46.6781 7.66875 46.6781 7.86562 46.6031C8.00625 46.5374 9.49687 45.1124 11.1844 43.4249C14.1187 40.4812 14.25 40.3406 14.25 40.0031C14.25 39.5531 14.0344 39.2343 13.6687 39.1031C13.2844 38.9624 13.2187 38.9718 12.8906 39.1781Z" fill="#4B4B4B"/>
</g>
<defs>
<clipPath id="clip0_426_34871">
<rect width="48" height="48" fill="white"/>
</clipPath>
</defs>
</svg>
