<svg width="115" height="55" viewBox="0 0 115 55" fill="none" xmlns="http://www.w3.org/2000/svg">
<path d="M31.5824 48.0046V48.6572H28.9887V48.0046H31.5824ZM29.7446 46.8039H30.5136V51.5806C30.5136 51.7981 30.5451 51.9613 30.6081 52.07C30.6733 52.1766 30.7558 52.2484 30.8558 52.2854C30.9579 52.3202 31.0654 52.3376 31.1784 52.3376C31.2631 52.3376 31.3326 52.3332 31.3869 52.3245C31.4412 52.3137 31.4847 52.305 31.5172 52.2984L31.6736 52.9901C31.6215 53.0097 31.5487 53.0293 31.4553 53.0489C31.3619 53.0706 31.2435 53.0815 31.1002 53.0815C30.8829 53.0815 30.67 53.0347 30.4615 52.9412C30.2551 52.8477 30.0835 52.7052 29.9467 52.5138C29.812 52.3224 29.7446 52.0809 29.7446 51.7894V46.8039Z" fill="#C4EF17"/>
<path d="M34.212 53.1337C33.8948 53.1337 33.607 53.0739 33.3485 52.9543C33.09 52.8324 32.8847 52.6573 32.7326 52.4289C32.5806 52.1984 32.5045 51.92 32.5045 51.5937C32.5045 51.3066 32.561 51.0738 32.674 50.8954C32.7869 50.7149 32.9379 50.5735 33.1269 50.4713C33.3159 50.3691 33.5244 50.2929 33.7525 50.2429C33.9828 50.1907 34.2141 50.1494 34.4466 50.1189C34.7507 50.0798 34.9973 50.0504 35.1862 50.0308C35.3774 50.0091 35.5164 49.9732 35.6033 49.9231C35.6924 49.8731 35.7369 49.7861 35.7369 49.6621V49.636C35.7369 49.3141 35.6489 49.064 35.473 48.8856C35.2992 48.7072 35.0353 48.618 34.6812 48.618C34.3141 48.618 34.0262 48.6985 33.8177 48.8595C33.6092 49.0205 33.4625 49.1923 33.3778 49.375L32.6479 49.114C32.7783 48.8095 32.952 48.5724 33.1693 48.4027C33.3887 48.2309 33.6276 48.1112 33.8861 48.0438C34.1468 47.9742 34.4031 47.9394 34.6551 47.9394C34.8159 47.9394 35.0005 47.959 35.2091 47.9981C35.4198 48.0351 35.6229 48.1123 35.8184 48.2298C36.0161 48.3472 36.1801 48.5245 36.3104 48.7616C36.4407 48.9987 36.5059 49.3163 36.5059 49.7143V53.0162H35.7369V52.3376H35.6978C35.6457 52.4463 35.5588 52.5627 35.4371 52.6867C35.3155 52.8107 35.1537 52.9162 34.9516 53.0032C34.7496 53.0902 34.5031 53.1337 34.212 53.1337ZM34.3293 52.442C34.6334 52.442 34.8897 52.3822 35.0983 52.2625C35.309 52.1429 35.4676 51.9885 35.574 51.7992C35.6826 51.61 35.7369 51.411 35.7369 51.2021V50.4974C35.7043 50.5365 35.6327 50.5724 35.5219 50.6051C35.4133 50.6355 35.2873 50.6627 35.1439 50.6866C35.0027 50.7084 34.8647 50.728 34.7301 50.7454C34.5976 50.7606 34.49 50.7736 34.4075 50.7845C34.2076 50.8106 34.0208 50.853 33.847 50.9118C33.6754 50.9683 33.5364 51.0542 33.4299 51.1695C33.3257 51.2826 33.2735 51.4371 33.2735 51.6328C33.2735 51.9004 33.3724 52.1027 33.5701 52.2397C33.7699 52.3746 34.023 52.442 34.3293 52.442Z" fill="#C4EF17"/>
<path d="M39.9297 55C39.5583 55 39.2389 54.9522 38.9717 54.8564C38.7046 54.7629 38.4819 54.6389 38.3038 54.4845C38.1278 54.3322 37.9877 54.1691 37.8834 53.9951L38.496 53.5644C38.5655 53.6557 38.6535 53.7602 38.7599 53.8776C38.8664 53.9972 39.0119 54.1006 39.1966 54.1876C39.3834 54.2768 39.6278 54.3213 39.9297 54.3213C40.3338 54.3213 40.6672 54.2235 40.9301 54.0277C41.1929 53.8319 41.3243 53.5252 41.3243 53.1076V52.0896H41.2592C41.2027 52.181 41.1223 52.2941 41.018 52.4289C40.9159 52.5616 40.7682 52.6802 40.5749 52.7846C40.3837 52.8868 40.1252 52.9379 39.7994 52.9379C39.3953 52.9379 39.0326 52.8422 38.7111 52.6508C38.3917 52.4594 38.1387 52.181 37.9518 51.8155C37.7672 51.4501 37.6749 51.0064 37.6749 50.4843C37.6749 49.971 37.765 49.524 37.9453 49.1433C38.1256 48.7605 38.3765 48.4647 38.698 48.2559C39.0195 48.0449 39.391 47.9394 39.8124 47.9394C40.1383 47.9394 40.3968 47.9938 40.5879 48.1025C40.7813 48.2091 40.929 48.3309 41.0311 48.468C41.1353 48.6028 41.2157 48.7138 41.2722 48.8008H41.3504V48.0046H42.0933V53.1598C42.0933 53.5905 41.9956 53.9407 41.8001 54.2104C41.6067 54.4823 41.3461 54.6813 41.018 54.8075C40.6922 54.9358 40.3294 55 39.9297 55ZM39.9037 52.2462C40.2121 52.2462 40.4728 52.1755 40.6857 52.0342C40.8986 51.8928 41.0604 51.6894 41.1712 51.424C41.282 51.1586 41.3374 50.8411 41.3374 50.4713C41.3374 50.1102 41.2831 49.7915 41.1744 49.5153C41.0658 49.2391 40.9051 49.0226 40.6922 48.866C40.4793 48.7094 40.2165 48.6311 39.9037 48.6311C39.5778 48.6311 39.3063 48.7137 39.089 48.8791C38.874 49.0444 38.7122 49.2662 38.6035 49.5447C38.4971 49.8231 38.4439 50.132 38.4439 50.4713C38.4439 50.8193 38.4982 51.1271 38.6068 51.3947C38.7176 51.66 38.8805 51.8688 39.0956 52.0211C39.3128 52.1712 39.5822 52.2462 39.9037 52.2462Z" fill="#C4EF17"/>
<path d="M44.27 46.3341V53.0162H43.501V46.3341H44.27Z" fill="#C4EF17"/>
<path d="M45.6784 53.0162V48.0046H46.4474V53.0162H45.6784ZM46.0694 47.1694C45.9196 47.1694 45.7903 47.1183 45.6817 47.016C45.5752 46.9138 45.522 46.7909 45.522 46.6473C45.522 46.5038 45.5752 46.3809 45.6817 46.2786C45.7903 46.1764 45.9196 46.1253 46.0694 46.1253C46.2193 46.1253 46.3475 46.1764 46.4539 46.2786C46.5626 46.3809 46.6169 46.5038 46.6169 46.6473C46.6169 46.7909 46.5626 46.9138 46.4539 47.016C46.3475 47.1183 46.2193 47.1694 46.0694 47.1694Z" fill="#C4EF17"/>
<path d="M48.6249 50.0015V53.0162H47.8559V48.0046H48.5988V48.7877H48.664C48.7813 48.5332 48.9594 48.3287 49.1984 48.1743C49.4373 48.0177 49.7458 47.9394 50.1238 47.9394C50.4626 47.9394 50.7592 48.009 51.0133 48.1482C51.2675 48.2852 51.4652 48.4941 51.6064 48.7747C51.7476 49.0531 51.8182 49.4055 51.8182 49.8318V53.0162H51.0492V49.884C51.0492 49.4903 50.9471 49.1836 50.7429 48.9639C50.5387 48.742 50.2584 48.6311 49.9022 48.6311C49.6567 48.6311 49.4373 48.6844 49.244 48.791C49.0528 48.8976 48.9018 49.0531 48.7911 49.2575C48.6803 49.462 48.6249 49.71 48.6249 50.0015Z" fill="#C4EF17"/>
<path d="M55.3218 53.1207C54.8395 53.1207 54.4235 53.0141 54.0738 52.8009C53.7262 52.5856 53.458 52.2854 53.269 51.9004C53.0822 51.5132 52.9887 51.0629 52.9887 50.5496C52.9887 50.0363 53.0822 49.5838 53.269 49.1923C53.458 48.7986 53.7208 48.4919 54.0575 48.2722C54.3964 48.0503 54.7918 47.9394 55.2436 47.9394C55.5043 47.9394 55.7617 47.9829 56.0158 48.0699C56.27 48.1569 56.5014 48.2983 56.7099 48.4941C56.9184 48.6877 57.0846 48.9443 57.2084 49.2641C57.3322 49.5838 57.3942 49.9775 57.3942 50.4452V50.7715H53.5362V50.1059H56.6121C56.6121 49.8231 56.5557 49.5708 56.4427 49.3489C56.3319 49.127 56.1733 48.9519 55.967 48.8236C55.7628 48.6953 55.5216 48.6311 55.2436 48.6311C54.9373 48.6311 54.6723 48.7072 54.4485 48.8595C54.227 49.0096 54.0564 49.2053 53.937 49.4468C53.8175 49.6882 53.7577 49.9471 53.7577 50.2233V50.6671C53.7577 51.0455 53.8229 51.3664 53.9532 51.6296C54.0858 51.8906 54.2693 52.0896 54.5039 52.2267C54.7385 52.3615 55.0112 52.4289 55.3218 52.4289C55.5238 52.4289 55.7063 52.4007 55.8692 52.3441C56.0343 52.2854 56.1766 52.1984 56.2961 52.0831C56.4155 51.9656 56.5079 51.8199 56.573 51.6459L57.316 51.8547C57.2378 52.107 57.1063 52.3289 56.9217 52.5203C56.737 52.7095 56.509 52.8575 56.2374 52.964C55.9659 53.0684 55.6607 53.1207 55.3218 53.1207Z" fill="#C4EF17"/>
<path d="M61.9136 50.0015V53.0162H61.1446V46.3341H61.9136V48.7877H61.9788C62.0961 48.5289 62.2721 48.3233 62.5067 48.171C62.7434 48.0166 63.0584 47.9394 63.4516 47.9394C63.7927 47.9394 64.0913 48.0079 64.3477 48.1449C64.604 48.2798 64.8028 48.4875 64.944 48.7681C65.0873 49.0466 65.159 49.4011 65.159 49.8318V53.0162H64.39V49.884C64.39 49.4859 64.2869 49.1782 64.0805 48.9606C63.8763 48.7409 63.5928 48.6311 63.23 48.6311C62.978 48.6311 62.7521 48.6844 62.5523 48.791C62.3546 48.8976 62.1982 49.0531 62.0831 49.2575C61.9701 49.462 61.9136 49.71 61.9136 50.0015Z" fill="#C4EF17"/>
<path d="M68.6643 53.1207C68.182 53.1207 67.7661 53.0141 67.4163 52.8009C67.0687 52.5856 66.8005 52.2854 66.6115 51.9004C66.4247 51.5132 66.3313 51.0629 66.3313 50.5496C66.3313 50.0363 66.4247 49.5838 66.6115 49.1923C66.8005 48.7986 67.0633 48.4919 67.4 48.2722C67.7389 48.0503 68.1343 47.9394 68.5861 47.9394C68.8468 47.9394 69.1042 47.9829 69.3583 48.0699C69.6125 48.1569 69.8439 48.2983 70.0524 48.4941C70.2609 48.6877 70.4271 48.9443 70.5509 49.2641C70.6748 49.5838 70.7367 49.9775 70.7367 50.4452V50.7715H66.8787V50.1059H69.9546C69.9546 49.8231 69.8982 49.5708 69.7852 49.3489C69.6744 49.127 69.5158 48.9519 69.3095 48.8236C69.1053 48.6953 68.8642 48.6311 68.5861 48.6311C68.2798 48.6311 68.0148 48.7072 67.791 48.8595C67.5695 49.0096 67.3989 49.2053 67.2795 49.4468C67.16 49.6882 67.1002 49.9471 67.1002 50.2233V50.6671C67.1002 51.0455 67.1654 51.3664 67.2958 51.6296C67.4283 51.8906 67.6118 52.0896 67.8464 52.2267C68.081 52.3615 68.3537 52.4289 68.6643 52.4289C68.8663 52.4289 69.0488 52.4007 69.2117 52.3441C69.3768 52.2854 69.5191 52.1984 69.6386 52.0831C69.758 51.9656 69.8504 51.8199 69.9155 51.6459L70.6585 51.8547C70.5803 52.107 70.4488 52.3289 70.2642 52.5203C70.0795 52.7095 69.8515 52.8575 69.5799 52.964C69.3084 53.0684 69.0032 53.1207 68.6643 53.1207Z" fill="#C4EF17"/>
<path d="M71.9064 53.0162V48.0046H72.6494V48.7616H72.7015C72.7927 48.5136 72.9578 48.3124 73.1968 48.158C73.4357 48.0036 73.7051 47.9263 74.0049 47.9263C74.0614 47.9263 74.132 47.9274 74.2167 47.9296C74.3014 47.9318 74.3655 47.935 74.4089 47.9394V48.7225C74.3829 48.7159 74.3231 48.7061 74.2297 48.6931C74.1385 48.6779 74.0418 48.6702 73.9397 48.6702C73.6964 48.6702 73.4792 48.7214 73.288 48.8236C73.099 48.9237 72.9492 49.0629 72.8384 49.2412C72.7298 49.4174 72.6754 49.6186 72.6754 49.8448V53.0162H71.9064Z" fill="#C4EF17"/>
<path d="M77.2666 53.1207C76.7843 53.1207 76.3683 53.0141 76.0186 52.8009C75.671 52.5856 75.4028 52.2854 75.2138 51.9004C75.027 51.5132 74.9335 51.0629 74.9335 50.5496C74.9335 50.0363 75.027 49.5838 75.2138 49.1923C75.4028 48.7986 75.6656 48.4919 76.0023 48.2722C76.3412 48.0503 76.7366 47.9394 77.1884 47.9394C77.4491 47.9394 77.7065 47.9829 77.9606 48.0699C78.2148 48.1569 78.4461 48.2983 78.6547 48.4941C78.8632 48.6877 79.0294 48.9443 79.1532 49.2641C79.277 49.5838 79.339 49.9775 79.339 50.4452V50.7715H75.481V50.1059H78.5569C78.5569 49.8231 78.5005 49.5708 78.3875 49.3489C78.2767 49.127 78.1181 48.9519 77.9118 48.8236C77.7076 48.6953 77.4664 48.6311 77.1884 48.6311C76.8821 48.6311 76.6171 48.7072 76.3933 48.8595C76.1718 49.0096 76.0012 49.2053 75.8817 49.4468C75.7623 49.6882 75.7025 49.9471 75.7025 50.2233V50.6671C75.7025 51.0455 75.7677 51.3664 75.898 51.6296C76.0306 51.8906 76.2141 52.0896 76.4487 52.2267C76.6833 52.3615 76.956 52.4289 77.2666 52.4289C77.4686 52.4289 77.6511 52.4007 77.814 52.3441C77.9791 52.2854 78.1214 52.1984 78.2409 52.0831C78.3603 51.9656 78.4527 51.8199 78.5178 51.6459L79.2608 51.8547C79.1826 52.107 79.0511 52.3289 78.8665 52.5203C78.6818 52.7095 78.4537 52.8575 78.1822 52.964C77.9107 53.0684 77.6055 53.1207 77.2666 53.1207Z" fill="#C4EF17"/>
<path d="M0 28.1532V26.4871H11.6172V28.1532H6.74646V41.9972H4.87077V28.1532H0Z" fill="#C4EF17"/>
<path d="M14.5121 41.9972V26.4871H23.8603V28.1532H16.3878V33.3939H23.3763V35.0601H16.3878V40.3311H23.9813V41.9972H14.5121Z" fill="#C4EF17"/>
<path d="M39.7054 31.334H37.8297C37.7188 30.7937 37.5247 30.3192 37.2474 29.9102C36.9751 29.5012 36.6423 29.1579 36.249 28.8802C35.8608 28.5975 35.4297 28.3854 34.9557 28.2441C34.4817 28.1027 33.9876 28.032 33.4733 28.032C32.5354 28.032 31.6858 28.2693 30.9244 28.7439C30.1681 29.2185 29.5656 29.9178 29.1168 30.8417C28.6731 31.7657 28.4512 32.8991 28.4512 34.2421C28.4512 35.5851 28.6731 36.7186 29.1168 37.6426C29.5656 38.5665 30.1681 39.2658 30.9244 39.7404C31.6858 40.215 32.5354 40.4523 33.4733 40.4523C33.9876 40.4523 34.4817 40.3816 34.9557 40.2402C35.4297 40.0988 35.8608 39.8893 36.249 39.6116C36.6423 39.3289 36.9751 38.983 37.2474 38.5741C37.5247 38.1601 37.7188 37.6855 37.8297 37.1503H39.7054C39.5643 37.943 39.3071 38.6523 38.934 39.2784C38.5609 39.9045 38.097 40.4371 37.5423 40.8764C36.9877 41.3106 36.365 41.6413 35.6742 41.8685C34.9885 42.0957 34.2548 42.2093 33.4733 42.2093C32.1522 42.2093 30.9774 41.8861 29.9488 41.2399C28.9202 40.5936 28.1109 39.6747 27.521 38.4832C26.931 37.2917 26.6361 35.878 26.6361 34.2421C26.6361 32.6063 26.931 31.1926 27.521 30.0011C28.1109 28.8095 28.9202 27.8906 29.9488 27.2444C30.9774 26.5981 32.1522 26.275 33.4733 26.275C34.2548 26.275 34.9885 26.3886 35.6742 26.6158C36.365 26.843 36.9877 27.1762 37.5423 27.6155C38.097 28.0497 38.5609 28.5798 38.934 29.2059C39.3071 29.8269 39.5643 30.5363 39.7054 31.334Z" fill="#C4EF17"/>
<path d="M42.7364 41.9972V26.4871H44.6121V33.3939H52.8713V26.4871H54.747V41.9972H52.8713V35.0601H44.6121V41.9972H42.7364Z" fill="#C4EF17"/>
<path d="M58.5021 41.9972V26.4871H60.3778V40.3311H67.5781V41.9972H58.5021Z" fill="#C4EF17"/>
<path d="M82.9486 34.2421C82.9486 35.878 82.6536 37.2917 82.0637 38.4832C81.4738 39.6747 80.6645 40.5936 79.6359 41.2399C78.6073 41.8861 77.4324 42.2093 76.1114 42.2093C74.7903 42.2093 73.6155 41.8861 72.5869 41.2399C71.5583 40.5936 70.749 39.6747 70.1591 38.4832C69.5691 37.2917 69.2742 35.878 69.2742 34.2421C69.2742 32.6063 69.5691 31.1926 70.1591 30.0011C70.749 28.8095 71.5583 27.8906 72.5869 27.2444C73.6155 26.5981 74.7903 26.275 76.1114 26.275C77.4324 26.275 78.6073 26.5981 79.6359 27.2444C80.6645 27.8906 81.4738 28.8095 82.0637 30.0011C82.6536 31.1926 82.9486 32.6063 82.9486 34.2421ZM81.1334 34.2421C81.1334 32.8991 80.909 31.7657 80.4603 30.8417C80.0166 29.9178 79.414 29.2185 78.6527 28.7439C77.8963 28.2693 77.0492 28.032 76.1114 28.032C75.1735 28.032 74.3239 28.2693 73.5626 28.7439C72.8062 29.2185 72.2037 29.9178 71.7549 30.8417C71.3112 31.7657 71.0894 32.8991 71.0894 34.2421C71.0894 35.5851 71.3112 36.7186 71.7549 37.6426C72.2037 38.5665 72.8062 39.2658 73.5626 39.7404C74.3239 40.215 75.1735 40.4523 76.1114 40.4523C77.0492 40.4523 77.8963 40.215 78.6527 39.7404C79.414 39.2658 80.0166 38.5665 80.4603 37.6426C80.909 36.7186 81.1334 35.5851 81.1334 34.2421Z" fill="#C4EF17"/>
<path d="M96.6911 31.334C96.5247 30.824 96.3054 30.3671 96.0331 29.9632C95.7659 29.5542 95.4457 29.2059 95.0726 28.9181C94.7045 28.6303 94.286 28.4107 93.8171 28.2592C93.3482 28.1077 92.8339 28.032 92.2742 28.032C91.3565 28.032 90.522 28.2693 89.7707 28.7439C89.0194 29.2185 88.4219 29.9178 87.9782 30.8417C87.5345 31.7657 87.3126 32.8991 87.3126 34.2421C87.3126 35.5851 87.537 36.7186 87.9858 37.6426C88.4345 38.5665 89.0421 39.2658 89.8085 39.7404C90.5749 40.215 91.4372 40.4523 92.3952 40.4523C93.2826 40.4523 94.0642 40.2629 94.7398 39.8843C95.4205 39.5005 95.9499 38.9603 96.3281 38.2636C96.7113 37.5618 96.9029 36.7363 96.9029 35.7871L97.4777 35.9083H92.8187V34.2421H98.7181V35.9083C98.7181 37.1856 98.4458 38.2964 97.9013 39.2405C97.3617 40.1847 96.6155 40.9168 95.6625 41.4368C94.7146 41.9518 93.6255 42.2093 92.3952 42.2093C91.0237 42.2093 89.8186 41.8861 88.7799 41.2399C87.7463 40.5936 86.9395 39.6747 86.3597 38.4832C85.7849 37.2917 85.4974 35.878 85.4974 34.2421C85.4974 33.0153 85.6613 31.9121 85.9891 30.9326C86.3218 29.9481 86.7908 29.1099 87.3958 28.4182C88.0009 27.7266 88.7169 27.1964 89.5438 26.8278C90.3707 26.4593 91.2809 26.275 92.2742 26.275C93.091 26.275 93.8524 26.3987 94.5583 26.6461C95.2692 26.8884 95.902 27.2343 96.4567 27.6836C97.0164 28.1279 97.4828 28.6606 97.8559 29.2816C98.229 29.8976 98.4862 30.5817 98.6273 31.334H96.6911Z" fill="#C4EF17"/>
<path d="M115 34.2421C115 35.878 114.705 37.2917 114.115 38.4832C113.525 39.6747 112.716 40.5936 111.687 41.2399C110.659 41.8861 109.484 42.2093 108.163 42.2093C106.842 42.2093 105.667 41.8861 104.638 41.2399C103.61 40.5936 102.8 39.6747 102.21 38.4832C101.621 37.2917 101.326 35.878 101.326 34.2421C101.326 32.6063 101.621 31.1926 102.21 30.0011C102.8 28.8095 103.61 27.8906 104.638 27.2444C105.667 26.5981 106.842 26.275 108.163 26.275C109.484 26.275 110.659 26.5981 111.687 27.2444C112.716 27.8906 113.525 28.8095 114.115 30.0011C114.705 31.1926 115 32.6063 115 34.2421ZM113.185 34.2421C113.185 32.8991 112.96 31.7657 112.512 30.8417C112.068 29.9178 111.465 29.2185 110.704 28.7439C109.948 28.2693 109.101 28.032 108.163 28.032C107.225 28.032 106.375 28.2693 105.614 28.7439C104.858 29.2185 104.255 29.9178 103.806 30.8417C103.363 31.7657 103.141 32.8991 103.141 34.2421C103.141 35.5851 103.363 36.7186 103.806 37.6426C104.255 38.5665 104.858 39.2658 105.614 39.7404C106.375 40.215 107.225 40.4523 108.163 40.4523C109.101 40.4523 109.948 40.215 110.704 39.7404C111.465 39.2658 112.068 38.5665 112.512 37.6426C112.96 36.7186 113.185 35.5851 113.185 34.2421Z" fill="#C4EF17"/>
<path d="M71.7535 16.3588L68.391 20.371C67.3568 21.6051 65.5193 21.7664 64.2869 20.7308C63.0544 19.6952 62.8933 17.8553 63.9275 16.6212L67.29 12.609C68.3242 11.3749 70.1617 11.2144 71.3941 12.2492C72.6266 13.2848 72.7877 15.1247 71.7535 16.3588ZM57.4409 0.682407C56.2085 -0.353169 54.371 -0.191853 53.3368 1.04221L40.2818 16.6212C39.2476 17.8553 39.4088 19.6952 40.6412 20.7308C41.8736 21.7664 43.7111 21.6051 44.7453 20.371L57.8002 4.79274C58.8337 3.55793 58.6733 1.71798 57.4409 0.682407ZM64.6997 6.6996C63.4672 5.66402 61.6297 5.82535 60.5955 7.05942L51.7888 16.9981C50.7546 18.2322 50.9157 20.0721 52.1481 21.1077C53.3806 22.1433 55.2181 21.982 56.2523 20.7479L65.059 10.8092C66.0932 9.57512 65.9321 7.73517 64.6997 6.6996Z" fill="#C4EF17"/>
</svg>
