<svg width="97" height="55" viewBox="0 0 97 55" fill="none" xmlns="http://www.w3.org/2000/svg">
<path d="M17.4297 53.4349C17.1639 53.4349 16.9228 53.3848 16.7062 53.2844C16.4897 53.1823 16.3177 53.0354 16.1903 52.8439C16.0629 52.6506 15.9992 52.4171 15.9992 52.1435C15.9992 51.9027 16.0465 51.7075 16.1411 51.5579C16.2358 51.4065 16.3623 51.2879 16.5206 51.2022C16.6789 51.1165 16.8536 51.0526 17.0447 51.0107C17.2376 50.9669 17.4315 50.9322 17.6262 50.9067C17.881 50.8739 18.0876 50.8493 18.2459 50.8328C18.406 50.8146 18.5225 50.7845 18.5953 50.7425C18.6699 50.7006 18.7072 50.6276 18.7072 50.5237V50.5018C18.7072 50.2318 18.6335 50.022 18.4861 49.8724C18.3405 49.7229 18.1194 49.6481 17.8228 49.6481C17.5152 49.6481 17.274 49.7156 17.0993 49.8506C16.9246 49.9855 16.8018 50.1296 16.7308 50.2829L16.1193 50.064C16.2285 49.8086 16.3741 49.6098 16.5561 49.4675C16.7399 49.3234 16.9401 49.2231 17.1567 49.1665C17.3751 49.1081 17.5898 49.079 17.8009 49.079C17.9356 49.079 18.0903 49.0954 18.265 49.1282C18.4415 49.1592 18.6117 49.224 18.7755 49.3225C18.9411 49.421 19.0785 49.5696 19.1877 49.7685C19.2969 49.9673 19.3515 50.2336 19.3515 50.5674V53.3364H18.7072V52.7673H18.6745C18.6308 52.8585 18.558 52.9561 18.4561 53.0601C18.3542 53.164 18.2186 53.2525 18.0493 53.3255C17.8801 53.3984 17.6735 53.4349 17.4297 53.4349ZM17.5279 52.8549C17.7827 52.8549 17.9975 52.8047 18.1722 52.7044C18.3487 52.604 18.4816 52.4745 18.5707 52.3158C18.6617 52.1571 18.7072 51.9902 18.7072 51.8151V51.2241C18.6799 51.2569 18.6199 51.287 18.5271 51.3144C18.4361 51.3399 18.3305 51.3627 18.2104 51.3828C18.0921 51.401 17.9765 51.4175 17.8637 51.4321C17.7527 51.4448 17.6626 51.4558 17.5934 51.4649C17.426 51.4868 17.2695 51.5223 17.1239 51.5716C16.9801 51.619 16.8637 51.6911 16.7745 51.7878C16.6871 51.8826 16.6434 52.0121 16.6434 52.1763C16.6434 52.4007 16.7263 52.5703 16.8919 52.6852C17.0593 52.7983 17.2713 52.8549 17.5279 52.8549Z" fill="#C4EF17"/>
<path d="M21.4774 53.3364L20.1998 49.1337H20.8768L21.7831 52.3514H21.8268L22.7222 49.1337H23.4102L24.2946 52.3405H24.3383L25.2446 49.1337H25.9217L24.6441 53.3364H24.0107L23.0935 50.1078H23.028L22.1107 53.3364H21.4774Z" fill="#C4EF17"/>
<path d="M28.3888 53.424C27.9848 53.424 27.6362 53.3346 27.3432 53.1558C27.0521 52.9752 26.8273 52.7235 26.669 52.4007C26.5124 52.076 26.4342 51.6984 26.4342 51.2679C26.4342 50.8374 26.5124 50.458 26.669 50.1296C26.8273 49.7995 27.0475 49.5423 27.3296 49.358C27.6135 49.172 27.9447 49.079 28.3233 49.079C28.5417 49.079 28.7573 49.1154 28.9703 49.1884C29.1832 49.2614 29.377 49.3799 29.5517 49.5441C29.7264 49.7065 29.8657 49.9217 29.9694 50.1898C30.0731 50.458 30.125 50.7881 30.125 51.1803V51.4539H26.8928V50.8958H29.4698C29.4698 50.6586 29.4225 50.447 29.3279 50.261C29.2351 50.0749 29.1022 49.9281 28.9293 49.8205C28.7582 49.7128 28.5562 49.659 28.3233 49.659C28.0667 49.659 27.8446 49.7229 27.6572 49.8506C27.4715 49.9764 27.3287 50.1406 27.2286 50.3431C27.1285 50.5455 27.0784 50.7626 27.0784 50.9943V51.3664C27.0784 51.6838 27.133 51.9528 27.2422 52.1736C27.3532 52.3924 27.507 52.5593 27.7036 52.6743C27.9001 52.7874 28.1285 52.8439 28.3888 52.8439C28.558 52.8439 28.7109 52.8202 28.8474 52.7728C28.9857 52.7235 29.1049 52.6506 29.205 52.5539C29.3051 52.4554 29.3825 52.3332 29.4371 52.1872L30.0595 52.3623C29.994 52.5739 29.8839 52.76 29.7292 52.9205C29.5745 53.0792 29.3834 53.2033 29.1559 53.2926C28.9284 53.3802 28.6727 53.424 28.3888 53.424Z" fill="#C4EF17"/>
<path d="M34.0751 50.0749L33.4964 50.2391C33.46 50.1424 33.4063 50.0485 33.3353 49.9573C33.2662 49.8642 33.1716 49.7876 33.0514 49.7274C32.9313 49.6672 32.7775 49.6371 32.5901 49.6371C32.3335 49.6371 32.1196 49.6964 31.9486 49.815C31.7793 49.9317 31.6947 50.0804 31.6947 50.261C31.6947 50.4215 31.7529 50.5483 31.8694 50.6413C31.9859 50.7343 32.1679 50.8119 32.4154 50.8739L33.0378 51.0271C33.4127 51.1183 33.6921 51.2579 33.8759 51.4457C34.0597 51.6318 34.1516 51.8717 34.1516 52.1653C34.1516 52.4061 34.0824 52.6214 33.9441 52.8111C33.8076 53.0008 33.6165 53.1504 33.3708 53.2598C33.1251 53.3693 32.8394 53.424 32.5136 53.424C32.086 53.424 31.732 53.3309 31.4517 53.1449C31.1715 52.9588 30.994 52.687 30.9194 52.3295L31.5309 52.1763C31.5891 52.4025 31.6992 52.5721 31.8612 52.6852C32.025 52.7983 32.2388 52.8549 32.5027 52.8549C32.803 52.8549 33.0414 52.791 33.218 52.6633C33.3963 52.5338 33.4855 52.3788 33.4855 52.1982C33.4855 52.0522 33.4345 51.93 33.3326 51.8315C33.2307 51.7312 33.0742 51.6564 32.8631 51.6072L32.1642 51.443C31.7802 51.3518 31.4981 51.2104 31.318 51.0189C31.1396 50.8255 31.0504 50.5838 31.0504 50.2938C31.0504 50.0567 31.1169 49.8469 31.2497 49.6645C31.3844 49.4821 31.5673 49.3389 31.7984 49.2349C32.0314 49.1309 32.2953 49.079 32.5901 49.079C33.005 49.079 33.3308 49.1702 33.5674 49.3526C33.8058 49.535 33.975 49.7758 34.0751 50.0749Z" fill="#C4EF17"/>
<path d="M36.8248 53.424C36.4463 53.424 36.1141 53.3337 35.8284 53.1531C35.5445 52.9725 35.3225 52.7199 35.1623 52.3952C35.004 52.0705 34.9248 51.6911 34.9248 51.2569C34.9248 50.8192 35.004 50.437 35.1623 50.1105C35.3225 49.784 35.5445 49.5304 35.8284 49.3498C36.1141 49.1693 36.4463 49.079 36.8248 49.079C37.2034 49.079 37.5346 49.1693 37.8185 49.3498C38.1042 49.5304 38.3263 49.784 38.4846 50.1105C38.6448 50.437 38.7248 50.8192 38.7248 51.2569C38.7248 51.6911 38.6448 52.0705 38.4846 52.3952C38.3263 52.7199 38.1042 52.9725 37.8185 53.1531C37.5346 53.3337 37.2034 53.424 36.8248 53.424ZM36.8248 52.8439C37.1124 52.8439 37.349 52.77 37.5346 52.6223C37.7202 52.4745 37.8576 52.2803 37.9468 52.0395C38.036 51.7987 38.0806 51.5378 38.0806 51.2569C38.0806 50.976 38.036 50.7143 37.9468 50.4717C37.8576 50.2291 37.7202 50.033 37.5346 49.8834C37.349 49.7338 37.1124 49.659 36.8248 49.659C36.5373 49.659 36.3007 49.7338 36.1151 49.8834C35.9294 50.033 35.792 50.2291 35.7028 50.4717C35.6137 50.7143 35.5691 50.976 35.5691 51.2569C35.5691 51.5378 35.6137 51.7987 35.7028 52.0395C35.792 52.2803 35.9294 52.4745 36.1151 52.6223C36.3007 52.77 36.5373 52.8439 36.8248 52.8439Z" fill="#C4EF17"/>
<path d="M39.7083 53.3364V49.1337H40.3307V49.7904H40.3853C40.4726 49.566 40.6137 49.3918 40.8084 49.2678C41.0031 49.1419 41.237 49.079 41.51 49.079C41.7866 49.079 42.0168 49.1419 42.2007 49.2678C42.3863 49.3918 42.531 49.566 42.6347 49.7904H42.6784C42.7858 49.5733 42.9468 49.4009 43.1616 49.2732C43.3763 49.1437 43.6338 49.079 43.9341 49.079C44.309 49.079 44.6157 49.1966 44.8541 49.4319C45.0925 49.6654 45.2117 50.0293 45.2117 50.5237V53.3364H44.5675V50.5237C44.5675 50.2136 44.4828 49.9919 44.3136 49.8588C44.1443 49.7256 43.9451 49.659 43.7157 49.659C43.4209 49.659 43.1925 49.7484 43.0305 49.9272C42.8686 50.1041 42.7876 50.3285 42.7876 50.6003V53.3364H42.1324V50.458C42.1324 50.219 42.0551 50.0266 41.9004 49.8807C41.7457 49.7329 41.5464 49.659 41.3025 49.659C41.1351 49.659 40.9786 49.7037 40.833 49.7931C40.6892 49.8825 40.5727 50.0065 40.4836 50.1652C40.3962 50.3221 40.3525 50.5036 40.3525 50.7097V53.3364H39.7083Z" fill="#C4EF17"/>
<path d="M48.1477 53.424C47.7437 53.424 47.3952 53.3346 47.1022 53.1558C46.811 52.9752 46.5862 52.7235 46.4279 52.4007C46.2714 52.076 46.1931 51.6984 46.1931 51.2679C46.1931 50.8374 46.2714 50.458 46.4279 50.1296C46.5862 49.7995 46.8064 49.5423 47.0885 49.358C47.3724 49.172 47.7037 49.079 48.0822 49.079C48.3006 49.079 48.5163 49.1154 48.7292 49.1884C48.9421 49.2614 49.1359 49.3799 49.3107 49.5441C49.4854 49.7065 49.6246 49.9217 49.7283 50.1898C49.8321 50.458 49.8839 50.7881 49.8839 51.1803V51.4539H46.6517V50.8958H49.2288C49.2288 50.6586 49.1814 50.447 49.0868 50.261C48.994 50.0749 48.8611 49.9281 48.6882 49.8205C48.5172 49.7128 48.3152 49.659 48.0822 49.659C47.8256 49.659 47.6036 49.7229 47.4161 49.8506C47.2305 49.9764 47.0876 50.1406 46.9875 50.3431C46.8874 50.5455 46.8374 50.7626 46.8374 50.9943V51.3664C46.8374 51.6838 46.892 51.9528 47.0012 52.1736C47.1122 52.3924 47.266 52.5593 47.4625 52.6743C47.6591 52.7874 47.8875 52.8439 48.1477 52.8439C48.317 52.8439 48.4698 52.8202 48.6063 52.7728C48.7447 52.7235 48.8639 52.6506 48.964 52.5539C49.0641 52.4554 49.1414 52.3332 49.196 52.1872L49.8184 52.3623C49.7529 52.5739 49.6428 52.76 49.4881 52.9205C49.3334 53.0792 49.1423 53.2033 48.9148 53.2926C48.6873 53.3802 48.4316 53.424 48.1477 53.424Z" fill="#C4EF17"/>
<path d="M55.9961 50.0749L55.4174 50.2391C55.381 50.1424 55.3273 50.0485 55.2563 49.9573C55.1872 49.8642 55.0926 49.7876 54.9724 49.7274C54.8523 49.6672 54.6985 49.6371 54.5111 49.6371C54.2545 49.6371 54.0406 49.6964 53.8696 49.815C53.7003 49.9317 53.6157 50.0804 53.6157 50.261C53.6157 50.4215 53.6739 50.5483 53.7904 50.6413C53.9069 50.7343 54.0889 50.8119 54.3364 50.8739L54.9588 51.0271C55.3337 51.1183 55.6131 51.2579 55.7969 51.4457C55.9807 51.6318 56.0726 51.8717 56.0726 52.1653C56.0726 52.4061 56.0034 52.6214 55.8651 52.8111C55.7286 53.0008 55.5375 53.1504 55.2918 53.2598C55.0461 53.3693 54.7604 53.424 54.4347 53.424C54.007 53.424 53.653 53.3309 53.3727 53.1449C53.0925 52.9588 52.915 52.687 52.8404 52.3295L53.4519 52.1763C53.5101 52.4025 53.6202 52.5721 53.7822 52.6852C53.946 52.7983 54.1598 52.8549 54.4237 52.8549C54.724 52.8549 54.9624 52.791 55.139 52.6633C55.3173 52.5338 55.4065 52.3788 55.4065 52.1982C55.4065 52.0522 55.3555 51.93 55.2536 51.8315C55.1517 51.7312 54.9952 51.6564 54.7841 51.6072L54.0852 51.443C53.7012 51.3518 53.4191 51.2104 53.239 51.0189C53.0606 50.8255 52.9714 50.5838 52.9714 50.2938C52.9714 50.0567 53.0379 49.8469 53.1707 49.6645C53.3054 49.4821 53.4883 49.3389 53.7194 49.2349C53.9524 49.1309 54.2163 49.079 54.5111 49.079C54.926 49.079 55.2518 49.1702 55.4884 49.3526C55.7268 49.535 55.8961 49.7758 55.9961 50.0749Z" fill="#C4EF17"/>
<path d="M57.6866 47.7328V53.3364H57.0424V47.7328H57.6866Z" fill="#C4EF17"/>
<path d="M60.5701 53.424C60.1915 53.424 59.8594 53.3337 59.5737 53.1531C59.2898 52.9725 59.0677 52.7199 58.9076 52.3952C58.7492 52.0705 58.6701 51.6911 58.6701 51.2569C58.6701 50.8192 58.7492 50.437 58.9076 50.1105C59.0677 49.784 59.2898 49.5304 59.5737 49.3498C59.8594 49.1693 60.1915 49.079 60.5701 49.079C60.9486 49.079 61.2798 49.1693 61.5638 49.3498C61.8495 49.5304 62.0715 49.784 62.2298 50.1105C62.39 50.437 62.4701 50.8192 62.4701 51.2569C62.4701 51.6911 62.39 52.0705 62.2298 52.3952C62.0715 52.7199 61.8495 52.9725 61.5638 53.1531C61.2798 53.3337 60.9486 53.424 60.5701 53.424ZM60.5701 52.8439C60.8576 52.8439 61.0942 52.77 61.2798 52.6223C61.4655 52.4745 61.6029 52.2803 61.6921 52.0395C61.7812 51.7987 61.8258 51.5378 61.8258 51.2569C61.8258 50.976 61.7812 50.7143 61.6921 50.4717C61.6029 50.2291 61.4655 50.033 61.2798 49.8834C61.0942 49.7338 60.8576 49.659 60.5701 49.659C60.2825 49.659 60.0459 49.7338 59.8603 49.8834C59.6747 50.033 59.5373 50.2291 59.4481 50.4717C59.3589 50.7143 59.3143 50.976 59.3143 51.2569C59.3143 51.5378 59.3589 51.7987 59.4481 52.0395C59.5373 52.2803 59.6747 52.4745 59.8603 52.6223C60.0459 52.77 60.2825 52.8439 60.5701 52.8439Z" fill="#C4EF17"/>
<path d="M65.1461 55C64.8348 55 64.5673 54.9599 64.3435 54.8796C64.1196 54.8012 63.9331 54.6972 63.7838 54.5677C63.6364 54.44 63.519 54.3032 63.4317 54.1573L63.9449 53.7961C64.0031 53.8727 64.0768 53.9603 64.166 54.0588C64.2552 54.1591 64.3771 54.2457 64.5318 54.3187C64.6883 54.3935 64.8931 54.4309 65.1461 54.4309C65.4846 54.4309 65.7639 54.3488 65.9841 54.1846C66.2043 54.0205 66.3144 53.7633 66.3144 53.413V52.5593H66.2598C66.2125 52.636 66.1452 52.7308 66.0578 52.8439C65.9723 52.9552 65.8485 53.0546 65.6866 53.1422C65.5264 53.2279 65.3098 53.2708 65.0369 53.2708C64.6984 53.2708 64.3944 53.1905 64.1251 53.03C63.8575 52.8694 63.6455 52.636 63.489 52.3295C63.3343 52.0231 63.257 51.6509 63.257 51.2132C63.257 50.7827 63.3325 50.4078 63.4836 50.0886C63.6346 49.7676 63.8448 49.5195 64.1142 49.3444C64.3835 49.1674 64.6947 49.079 65.0478 49.079C65.3208 49.079 65.5373 49.1246 65.6975 49.2158C65.8595 49.3052 65.9832 49.4073 66.0688 49.5222C66.1561 49.6353 66.2234 49.7283 66.2708 49.8013H66.3363V49.1337H66.9587V53.4568C66.9587 53.818 66.8768 54.1117 66.713 54.3379C66.551 54.5659 66.3326 54.7328 66.0578 54.8386C65.7848 54.9462 65.4809 55 65.1461 55ZM65.1242 52.6907C65.3826 52.6907 65.601 52.6314 65.7794 52.5128C65.9577 52.3943 66.0933 52.2237 66.1861 52.0012C66.279 51.7786 66.3254 51.5123 66.3254 51.2022C66.3254 50.8994 66.2799 50.6322 66.1889 50.4005C66.0979 50.1689 65.9632 49.9874 65.7848 49.856C65.6065 49.7247 65.3863 49.659 65.1242 49.659C64.8512 49.659 64.6237 49.7283 64.4417 49.867C64.2616 50.0056 64.126 50.1917 64.035 50.4251C63.9458 50.6586 63.9012 50.9177 63.9012 51.2022C63.9012 51.4941 63.9467 51.7522 64.0377 51.9765C64.1305 52.1991 64.267 52.3742 64.4472 52.5019C64.6292 52.6278 64.8549 52.6907 65.1242 52.6907Z" fill="#C4EF17"/>
<path d="M69.3719 53.4349C69.1062 53.4349 68.8651 53.3848 68.6485 53.2844C68.4319 53.1823 68.2599 53.0354 68.1325 52.8439C68.0052 52.6506 67.9415 52.4171 67.9415 52.1435C67.9415 51.9027 67.9888 51.7075 68.0834 51.5579C68.178 51.4065 68.3045 51.2879 68.4629 51.2022C68.6212 51.1165 68.7959 51.0526 68.987 51.0107C69.1799 50.9669 69.3737 50.9322 69.5685 50.9067C69.8233 50.8739 70.0298 50.8493 70.1882 50.8328C70.3483 50.8146 70.4648 50.7845 70.5376 50.7425C70.6122 50.7006 70.6495 50.6276 70.6495 50.5237V50.5018C70.6495 50.2318 70.5758 50.022 70.4284 49.8724C70.2828 49.7229 70.0617 49.6481 69.765 49.6481C69.4575 49.6481 69.2163 49.7156 69.0416 49.8506C68.8669 49.9855 68.744 50.1296 68.6731 50.2829L68.0616 50.064C68.1708 49.8086 68.3164 49.6098 68.4984 49.4675C68.6822 49.3234 68.8824 49.2231 69.0989 49.1665C69.3173 49.1081 69.5321 49.079 69.7432 49.079C69.8779 49.079 70.0326 49.0954 70.2073 49.1282C70.3838 49.1592 70.554 49.224 70.7178 49.3225C70.8834 49.421 71.0208 49.5696 71.13 49.7685C71.2392 49.9673 71.2938 50.2336 71.2938 50.5674V53.3364H70.6495V52.7673H70.6167C70.5731 52.8585 70.5003 52.9561 70.3984 53.0601C70.2964 53.164 70.1609 53.2525 69.9916 53.3255C69.8223 53.3984 69.6158 53.4349 69.3719 53.4349ZM69.4702 52.8549C69.725 52.8549 69.9397 52.8047 70.1144 52.7044C70.291 52.604 70.4238 52.4745 70.513 52.3158C70.604 52.1571 70.6495 51.9902 70.6495 51.8151V51.2241C70.6222 51.2569 70.5622 51.287 70.4693 51.3144C70.3783 51.3399 70.2728 51.3627 70.1527 51.3828C70.0344 51.401 69.9188 51.4175 69.806 51.4321C69.695 51.4448 69.6049 51.4558 69.5357 51.4649C69.3683 51.4868 69.2118 51.5223 69.0662 51.5716C68.9224 51.619 68.8059 51.6911 68.7167 51.7878C68.6294 51.8826 68.5857 52.0121 68.5857 52.1763C68.5857 52.4007 68.6685 52.5703 68.8341 52.6852C69.0016 52.7983 69.2136 52.8549 69.4702 52.8549Z" fill="#C4EF17"/>
<path d="M73.1139 50.8082V53.3364H72.4697V49.1337H73.0921V49.7904H73.1467C73.2449 49.5769 73.3942 49.4055 73.5944 49.276C73.7946 49.1446 74.053 49.079 74.3697 49.079C74.6536 49.079 74.902 49.1373 75.1149 49.2541C75.3279 49.369 75.4935 49.5441 75.6118 49.7794C75.7301 50.0129 75.7892 50.3084 75.7892 50.6659V53.3364H75.1449V50.7097C75.1449 50.3795 75.0594 50.1223 74.8883 49.9381C74.7173 49.7521 74.4825 49.659 74.184 49.659C73.9784 49.659 73.7946 49.7037 73.6326 49.7931C73.4724 49.8825 73.346 50.0129 73.2531 50.1844C73.1603 50.3558 73.1139 50.5638 73.1139 50.8082Z" fill="#C4EF17"/>
<path d="M0 32.4871V31.0899H9.73279V32.4871H5.65212V44.0967H4.08068V32.4871H0Z" fill="#C4EF17"/>
<path d="M12.1581 44.0967V31.0899H19.9899V32.4871H13.7295V36.882H19.5844V38.2792H13.7295V42.6995H20.0913V44.0967H12.1581Z" fill="#C4EF17"/>
<path d="M33.2648 35.1545H31.6934C31.6004 34.7015 31.4378 34.3035 31.2054 33.9605C30.9773 33.6176 30.6985 33.3297 30.369 33.0968C30.0438 32.8597 29.6826 32.6818 29.2855 32.5633C28.8884 32.4447 28.4744 32.3855 28.0436 32.3855C27.2578 32.3855 26.546 32.5845 25.9082 32.9825C25.2745 33.3805 24.7697 33.9669 24.3938 34.7417C24.022 35.5165 23.8361 36.467 23.8361 37.5933C23.8361 38.7195 24.022 39.6701 24.3938 40.4449C24.7697 41.2197 25.2745 41.8061 25.9082 42.2041C26.546 42.6021 27.2578 42.8011 28.0436 42.8011C28.4744 42.8011 28.8884 42.7418 29.2855 42.6233C29.6826 42.5047 30.0438 42.329 30.369 42.0961C30.6985 41.859 30.9773 41.569 31.2054 41.2261C31.4378 40.8789 31.6004 40.4809 31.6934 40.0321H33.2648C33.1465 40.6968 32.9311 41.2917 32.6185 41.8167C32.3059 42.3417 31.9172 42.7884 31.4526 43.1568C30.9879 43.5209 30.4662 43.7982 29.8875 43.9887C29.313 44.1793 28.6983 44.2745 28.0436 44.2745C26.9368 44.2745 25.9525 44.0036 25.0908 43.4616C24.229 42.9197 23.551 42.1491 23.0568 41.1498C22.5625 40.1506 22.3154 38.9651 22.3154 37.5933C22.3154 36.2215 22.5625 35.036 23.0568 34.0367C23.551 33.0375 24.229 32.2669 25.0908 31.725C25.9525 31.183 26.9368 30.912 28.0436 30.912C28.6983 30.912 29.313 31.0073 29.8875 31.1978C30.4662 31.3884 30.9879 31.6678 31.4526 32.0362C31.9172 32.4003 32.3059 32.8449 32.6185 33.3699C32.9311 33.8907 33.1465 34.4855 33.2648 35.1545Z" fill="#C4EF17"/>
<path d="M35.8041 44.0967V31.0899H37.3756V36.882H44.295V31.0899H45.8664V44.0967H44.295V38.2792H37.3756V44.0967H35.8041Z" fill="#C4EF17"/>
<path d="M57.8835 35.1545C57.7441 34.7269 57.5603 34.3437 57.3322 34.005C57.1083 33.662 56.8401 33.3699 56.5275 33.1285C56.2191 32.8872 55.8685 32.703 55.4756 32.576C55.0828 32.449 54.6519 32.3855 54.183 32.3855C53.4142 32.3855 52.7151 32.5845 52.0856 32.9825C51.4562 33.3805 50.9556 33.9669 50.5839 34.7417C50.2122 35.5165 50.0263 36.467 50.0263 37.5933C50.0263 38.7195 50.2143 39.6701 50.5902 40.4449C50.9662 41.2197 51.4752 41.8061 52.1173 42.2041C52.7594 42.6021 53.4818 42.8011 54.2844 42.8011C55.0279 42.8011 55.6826 42.6423 56.2487 42.3248C56.819 42.003 57.2625 41.55 57.5793 40.9657C57.9004 40.3771 58.0609 39.6849 58.0609 38.8889L58.5425 38.9905H54.6392V37.5933H59.5817V38.9905C59.5817 40.0617 59.3536 40.9932 58.8973 41.7849C58.4453 42.5767 57.8201 43.1906 57.0217 43.6267C56.2276 44.0586 55.3151 44.2745 54.2844 44.2745C53.1354 44.2745 52.1258 44.0036 51.2556 43.4616C50.3896 42.9197 49.7137 42.1491 49.2279 41.1498C48.7463 40.1506 48.5055 38.9651 48.5055 37.5933C48.5055 36.5644 48.6428 35.6393 48.9174 34.8179C49.1962 33.9923 49.5891 33.2894 50.096 32.7094C50.6029 32.1293 51.2028 31.6847 51.8955 31.3757C52.5883 31.0666 53.3508 30.912 54.183 30.912C54.8673 30.912 55.5052 31.0158 56.0966 31.2232C56.6922 31.4265 57.2224 31.7165 57.6871 32.0933C58.156 32.4659 58.5467 32.9126 58.8593 33.4334C59.1719 33.9499 59.3873 34.5236 59.5056 35.1545H57.8835Z" fill="#C4EF17"/>
<path d="M70.7893 31.0899H72.3607V39.7018C72.3607 40.591 72.1516 41.3848 71.7334 42.0834C71.3194 42.7778 70.7343 43.3261 69.9782 43.7284C69.222 44.1263 68.3349 44.3253 67.3169 44.3253C66.2988 44.3253 65.4117 44.1263 64.6556 43.7284C63.8994 43.3261 63.3122 42.7778 62.894 42.0834C62.4801 41.3848 62.2731 40.591 62.2731 39.7018V31.0899H63.8445V39.5748C63.8445 40.2099 63.9839 40.7751 64.2627 41.2705C64.5415 41.7617 64.9386 42.1491 65.454 42.4327C65.9736 42.7122 66.5945 42.8519 67.3169 42.8519C68.0392 42.8519 68.6602 42.7122 69.1798 42.4327C69.6994 42.1491 70.0965 41.7617 70.3711 41.2705C70.6499 40.7751 70.7893 40.2099 70.7893 39.5748V31.0899Z" fill="#C4EF17"/>
<path d="M75.4988 44.0967V31.0899H79.8837C80.8975 31.0899 81.7297 31.2635 82.3802 31.6106C83.0308 31.9536 83.5123 32.4257 83.8249 33.0269C84.1375 33.6281 84.2938 34.3119 84.2938 35.0783C84.2938 35.8446 84.1375 36.5242 83.8249 37.117C83.5123 37.7097 83.0329 38.1755 82.3866 38.5142C81.7402 38.8487 80.9144 39.0159 79.909 39.0159H76.3606V37.5933H79.8583C80.5511 37.5933 81.1087 37.4917 81.5311 37.2884C81.9578 37.0852 82.2662 36.7973 82.4563 36.4247C82.6506 36.0479 82.7477 35.5991 82.7477 35.0783C82.7477 34.5575 82.6506 34.1024 82.4563 33.7128C82.2619 33.3233 81.9515 33.0227 81.5248 32.811C81.0981 32.5951 80.5342 32.4871 79.833 32.4871H77.0703V44.0967H75.4988ZM81.6072 38.2538L84.8007 44.0967H82.9758L79.833 38.2538H81.6072Z" fill="#C4EF17"/>
<path d="M95.4286 31.0899H97V39.7018C97 40.591 96.7909 41.3848 96.3727 42.0834C95.9587 42.7778 95.3736 43.3261 94.6175 43.7284C93.8613 44.1263 92.9742 44.3253 91.9562 44.3253C90.9381 44.3253 90.051 44.1263 89.2949 43.7284C88.5387 43.3261 87.9515 42.7778 87.5333 42.0834C87.1194 41.3848 86.9124 40.591 86.9124 39.7018V31.0899H88.4838V39.5748C88.4838 40.2099 88.6232 40.7751 88.902 41.2705C89.1808 41.7617 89.5779 42.1491 90.0933 42.4327C90.6128 42.7122 91.2338 42.8519 91.9562 42.8519C92.6785 42.8519 93.2995 42.7122 93.8191 42.4327C94.3387 42.1491 94.7358 41.7617 95.0104 41.2705C95.2892 40.7751 95.4286 40.2099 95.4286 39.5748V31.0899Z" fill="#C4EF17"/>
<path d="M61.491 10.3096L55.0483 26.0811C54.0158 28.6079 50.4455 28.6073 49.4142 26.0805C49.1119 25.3399 49.1119 24.5101 49.4142 23.7695L54.1377 12.2049H42.2146L44.7076 6.10274H58.5887C59.3836 6.10274 60.1692 6.37455 60.749 6.92005C61.6913 7.80657 61.9594 9.15505 61.491 10.3096Z" fill="#C4EF17"/>
<path d="M43.4617 5.85649H43.4611V12.4505H43.4617V5.85649Z" fill="#C4EF17"/>
<path d="M51.2865 6.10274L48.7941 12.2049H52.4098L54.9028 6.10274H51.2865Z" fill="#C4EF17"/>
<path d="M45.6182 19.9803L52.0273 4.28919C52.3289 3.55105 52.3756 2.71877 52.0919 1.97377C51.631 0.76183 50.4872 0 49.2432 0H36.3591C34.1951 0 32.7222 2.19946 33.542 4.2069C34.0104 5.35338 35.1232 6.10274 36.3591 6.10274H44.7076L39.9841 17.668C39.6812 18.4086 39.6812 19.239 39.9841 19.9796C41.0166 22.5064 44.5863 22.507 45.6182 19.9803Z" fill="#C4EF17"/>
<path d="M47.2005 0H36.3597C34.1958 0 32.7228 2.19946 33.5426 4.2069C34.011 5.35338 35.1238 6.10274 36.3597 6.10274H44.7082L39.9841 17.668L47.2005 0Z" fill="#C4EF17"/>
</svg>
