<svg width="117" height="55" viewBox="0 0 117 55" fill="none" xmlns="http://www.w3.org/2000/svg">
<path d="M0 41.8572V27.5163H5.00991C6.00816 27.5163 6.83149 27.6891 7.47988 28.0345C8.12828 28.3753 8.61108 28.8351 8.92828 29.414C9.24548 29.9882 9.40408 30.6254 9.40408 31.3256C9.40408 31.9418 9.29446 32.4507 9.07522 32.8521C8.86064 33.2536 8.57609 33.571 8.22157 33.8045C7.87172 34.0379 7.49154 34.2106 7.08105 34.3226V34.4627C7.51953 34.4907 7.96035 34.6447 8.4035 34.9248C8.84665 35.2049 9.21749 35.6064 9.51603 36.1292C9.81458 36.6521 9.96385 37.2916 9.96385 38.0479C9.96385 38.7668 9.80058 39.4133 9.47405 39.9875C9.14752 40.5617 8.63207 41.0169 7.9277 41.353C7.22332 41.6891 6.30671 41.8572 5.17784 41.8572H0ZM1.73528 40.3167H5.17784C6.31137 40.3167 7.11603 40.0972 7.59184 39.6584C8.0723 39.2149 8.31254 38.6781 8.31254 38.0479C8.31254 37.5624 8.18892 37.1142 7.94169 36.7034C7.69446 36.288 7.34227 35.9565 6.88513 35.7091C6.42799 35.457 5.88688 35.331 5.26181 35.331H1.73528V40.3167ZM1.73528 33.8185H4.95394C5.47638 33.8185 5.94752 33.7158 6.36735 33.5104C6.79184 33.305 7.1277 33.0155 7.37493 32.6421C7.62682 32.2686 7.75277 31.8298 7.75277 31.3256C7.75277 30.6954 7.53353 30.1609 7.09504 29.7221C6.65656 29.2786 5.96152 29.0569 5.00991 29.0569H1.73528V33.8185Z" fill="#C4EF17"/>
<path d="M12.8152 41.8572V27.5163H17.6571C18.7767 27.5163 19.6956 27.7077 20.414 28.0905C21.1324 28.4687 21.6641 28.9892 22.0093 29.6521C22.3545 30.3149 22.5271 31.0689 22.5271 31.9138C22.5271 32.7588 22.3545 33.508 22.0093 34.1616C21.6641 34.8151 21.1347 35.3286 20.421 35.7021C19.7073 36.0709 18.7953 36.2553 17.6851 36.2553H13.7668V34.6868H17.6292C18.3942 34.6868 19.0099 34.5747 19.4764 34.3506C19.9475 34.1266 20.288 33.8091 20.498 33.3983C20.7125 32.9828 20.8198 32.488 20.8198 31.9138C20.8198 31.3396 20.7125 30.8378 20.498 30.4083C20.2834 29.9788 19.9405 29.6474 19.4694 29.414C18.9982 29.1759 18.3755 29.0569 17.6012 29.0569H14.5504V41.8572H12.8152ZM19.5603 35.415L23.0869 41.8572H21.0717L17.6012 35.415H19.5603Z" fill="#C4EF17"/>
<path d="M26.0064 41.8572H24.1872L29.449 27.5163H31.2402L36.502 41.8572H34.6828L30.4006 29.7851H30.2886L26.0064 41.8572ZM26.6781 36.2553H34.0111V37.7958H26.6781V36.2553Z" fill="#C4EF17"/>
<path d="M50.0974 27.5163V41.8572H48.4181L40.6093 30.5974H40.4694V41.8572H38.7341V27.5163H40.4134L48.2501 38.8041H48.3901V27.5163H50.0974Z" fill="#C4EF17"/>
<path d="M57.9918 41.8572H53.5697V27.5163H58.1878C59.5778 27.5163 60.7673 27.8034 61.7563 28.3776C62.7452 28.9472 63.5032 29.7664 64.0303 30.8355C64.5574 31.8998 64.821 33.1742 64.821 34.6587C64.821 36.1526 64.5551 37.4387 64.0233 38.517C63.4915 39.5907 62.7172 40.417 61.7003 40.9959C60.6834 41.5701 59.4472 41.8572 57.9918 41.8572ZM55.305 40.3167H57.8799C59.0647 40.3167 60.0466 40.0879 60.8257 39.6304C61.6047 39.1729 62.1854 38.5217 62.5679 37.6768C62.9504 36.8318 63.1417 35.8258 63.1417 34.6587C63.1417 33.501 62.9528 32.5044 62.5749 31.6687C62.1971 30.8285 61.6327 30.1842 60.8816 29.7361C60.1306 29.2833 59.1953 29.0569 58.0758 29.0569H55.305V40.3167Z" fill="#C4EF17"/>
<path d="M66.3516 29.0569V27.5163H77.0991V29.0569H72.593V41.8572H70.8577V29.0569H66.3516Z" fill="#C4EF17"/>
<path d="M79.7773 41.8572V27.5163H88.4256V29.0569H81.5125V33.9025H87.9778V35.443H81.5125V40.3167H88.5376V41.8572H79.7773Z" fill="#C4EF17"/>
<path d="M103.085 31.9978H101.349C101.247 31.4983 101.067 31.0595 100.81 30.6814C100.559 30.3033 100.251 29.9858 99.8869 29.7291C99.5277 29.4677 99.1289 29.2716 98.6904 29.1409C98.2519 29.0102 97.7948 28.9448 97.3189 28.9448C96.4513 28.9448 95.6653 29.1642 94.9609 29.603C94.2612 30.0419 93.7038 30.6884 93.2886 31.5427C92.8781 32.397 92.6729 33.445 92.6729 34.6868C92.6729 35.9285 92.8781 36.9765 93.2886 37.8308C93.7038 38.6851 94.2612 39.3317 94.9609 39.7705C95.6653 40.2093 96.4513 40.4287 97.3189 40.4287C97.7948 40.4287 98.2519 40.3633 98.6904 40.2326C99.1289 40.1019 99.5277 39.9082 99.8869 39.6514C100.251 39.39 100.559 39.0702 100.81 38.6921C101.067 38.3093 101.247 37.8705 101.349 37.3757H103.085C102.954 38.1086 102.716 38.7645 102.371 39.3433C102.026 39.9222 101.596 40.4147 101.083 40.8208C100.57 41.2223 99.9942 41.5281 99.3551 41.7381C98.7207 41.9482 98.042 42.0532 97.3189 42.0532C96.0968 42.0532 95.0099 41.7545 94.0583 41.1569C93.1067 40.5594 92.358 39.7098 91.8122 38.6081C91.2665 37.5064 90.9936 36.1993 90.9936 34.6868C90.9936 33.1742 91.2665 31.8671 91.8122 30.7654C92.358 29.6637 93.1067 28.8141 94.0583 28.2166C95.0099 27.619 96.0968 27.3203 97.3189 27.3203C98.042 27.3203 98.7207 27.4253 99.3551 27.6354C99.9942 27.8454 100.57 28.1535 101.083 28.5597C101.596 28.9612 102.026 29.4513 102.371 30.0302C102.716 30.6044 102.954 31.2603 103.085 31.9978Z" fill="#C4EF17"/>
<path d="M105.889 41.8572V27.5163H107.624V33.9025H115.265V27.5163H117V41.8572H115.265V35.443H107.624V41.8572H105.889Z" fill="#C4EF17"/>
<path d="M33.5838 54.9035C33.4632 54.9035 33.3557 54.8934 33.2612 54.8733C33.1668 54.8552 33.1014 54.8371 33.0653 54.819L33.2461 54.1915C33.419 54.2357 33.5717 54.2518 33.7043 54.2398C33.837 54.2277 33.9546 54.1684 34.057 54.0618C34.1615 53.9572 34.257 53.7873 34.3434 53.5519L34.4761 53.1899L32.7638 48.532H33.5355L34.8137 52.2246H34.8619L36.1401 48.532H36.9118L34.9463 53.8416C34.8579 54.0809 34.7484 54.279 34.6177 54.4359C34.4871 54.5947 34.3354 54.7124 34.1626 54.7888C33.9917 54.8653 33.7988 54.9035 33.5838 54.9035Z" fill="#C4EF17"/>
<path d="M39.5661 53.2623C39.148 53.2623 38.7813 53.1628 38.4658 52.9637C38.1522 52.7646 37.9071 52.486 37.7302 52.128C37.5554 51.77 37.468 51.3517 37.468 50.873C37.468 50.3904 37.5554 49.969 37.7302 49.609C37.9071 49.249 38.1522 48.9695 38.4658 48.7704C38.7813 48.5712 39.148 48.4717 39.5661 48.4717C39.9841 48.4717 40.3498 48.5712 40.6633 48.7704C40.9788 48.9695 41.224 49.249 41.3989 49.609C41.5757 49.969 41.6641 50.3904 41.6641 50.873C41.6641 51.3517 41.5757 51.77 41.3989 52.128C41.224 52.486 40.9788 52.7646 40.6633 52.9637C40.3498 53.1628 39.9841 53.2623 39.5661 53.2623ZM39.5661 52.6228C39.8836 52.6228 40.1448 52.5413 40.3498 52.3784C40.5548 52.2155 40.7065 52.0013 40.805 51.7358C40.9035 51.4704 40.9527 51.1828 40.9527 50.873C40.9527 50.5633 40.9035 50.2747 40.805 50.0072C40.7065 49.7397 40.5548 49.5235 40.3498 49.3586C40.1448 49.1937 39.8836 49.1113 39.5661 49.1113C39.2485 49.1113 38.9873 49.1937 38.7823 49.3586C38.5773 49.5235 38.4256 49.7397 38.3271 50.0072C38.2286 50.2747 38.1794 50.5633 38.1794 50.873C38.1794 51.1828 38.2286 51.4704 38.3271 51.7358C38.4256 52.0013 38.5773 52.2155 38.7823 52.3784C38.9873 52.5413 39.2485 52.6228 39.5661 52.6228Z" fill="#C4EF17"/>
<path d="M45.6682 51.2713V48.532H46.3796V53.1658H45.6682V52.3814H45.6199C45.5114 52.6167 45.3426 52.8169 45.1135 52.9818C44.8844 53.1447 44.595 53.2261 44.2453 53.2261C43.9559 53.2261 43.6987 53.1628 43.4736 53.0361C43.2485 52.9074 43.0717 52.7143 42.943 52.4569C42.8144 52.1974 42.7501 51.8706 42.7501 51.4764V48.532H43.4615V51.4281C43.4615 51.766 43.556 52.0355 43.7449 52.2366C43.9358 52.4378 44.179 52.5383 44.4744 52.5383C44.6513 52.5383 44.8311 52.4931 45.014 52.4026C45.1989 52.312 45.3536 52.1733 45.4782 51.9862C45.6049 51.7992 45.6682 51.5609 45.6682 51.2713Z" fill="#C4EF17"/>
<path d="M47.6826 53.1658V48.532H48.3699V49.2319H48.4181C48.5025 49.0026 48.6553 48.8166 48.8763 48.6738C49.0974 48.531 49.3466 48.4596 49.6239 48.4596C49.6762 48.4596 49.7415 48.4606 49.8199 48.4626C49.8983 48.4647 49.9575 48.4677 49.9977 48.4717V49.1957C49.9736 49.1897 49.9184 49.1806 49.8319 49.1686C49.7475 49.1545 49.6581 49.1475 49.5636 49.1475C49.3386 49.1475 49.1376 49.1947 48.9607 49.2892C48.7859 49.3818 48.6472 49.5105 48.5447 49.6754C48.4443 49.8383 48.394 50.0243 48.394 50.2335V53.1658H47.6826Z" fill="#C4EF17"/>
<path d="M56.5083 49.5698L55.8692 49.7508C55.829 49.6442 55.7698 49.5406 55.6914 49.4401C55.615 49.3375 55.5105 49.253 55.3779 49.1867C55.2452 49.1203 55.0754 49.0871 54.8684 49.0871C54.5851 49.0871 54.3489 49.1525 54.16 49.2832C53.9731 49.4119 53.8797 49.5758 53.8797 49.7749C53.8797 49.9519 53.944 50.0917 54.0726 50.1943C54.2012 50.2968 54.4022 50.3823 54.6755 50.4507L55.3628 50.6196C55.7768 50.7202 56.0853 50.8741 56.2883 51.0812C56.4912 51.2863 56.5927 51.5508 56.5927 51.8746C56.5927 52.1401 56.5164 52.3774 56.3636 52.5866C56.2129 52.7957 56.0019 52.9607 55.7306 53.0813C55.4593 53.202 55.1437 53.2623 54.784 53.2623C54.3117 53.2623 53.9209 53.1598 53.6114 52.9546C53.3019 52.7495 53.1059 52.4498 53.0235 52.0556L53.6988 51.8867C53.7631 52.1361 53.8847 52.3231 54.0636 52.4478C54.2444 52.5725 54.4806 52.6348 54.772 52.6348C55.1036 52.6348 55.3668 52.5645 55.5618 52.4237C55.7587 52.2809 55.8572 52.1099 55.8572 51.9108C55.8572 51.7499 55.8009 51.6152 55.6884 51.5066C55.5758 51.396 55.403 51.3135 55.1699 51.2592L54.3982 51.0782C53.9741 50.9776 53.6626 50.8218 53.4637 50.6106C53.2667 50.3974 53.1682 50.1309 53.1682 49.8111C53.1682 49.5497 53.2416 49.3184 53.3883 49.1173C53.537 48.9162 53.739 48.7583 53.9942 48.6436C54.2515 48.529 54.5429 48.4717 54.8684 48.4717C55.3266 48.4717 55.6864 48.5723 55.9476 48.7734C56.2109 48.9745 56.3978 49.24 56.5083 49.5698Z" fill="#C4EF17"/>
<path d="M58.375 46.9874V53.1658H57.6636V46.9874H58.375Z" fill="#C4EF17"/>
<path d="M61.5591 53.2623C61.1411 53.2623 60.7743 53.1628 60.4588 52.9637C60.1453 52.7646 59.9001 52.486 59.7233 52.128C59.5484 51.77 59.461 51.3517 59.461 50.873C59.461 50.3904 59.5484 49.969 59.7233 49.609C59.9001 49.249 60.1453 48.9695 60.4588 48.7704C60.7743 48.5712 61.1411 48.4717 61.5591 48.4717C61.9771 48.4717 62.3429 48.5712 62.6564 48.7704C62.9719 48.9695 63.2171 49.249 63.3919 49.609C63.5688 49.969 63.6572 50.3904 63.6572 50.873C63.6572 51.3517 63.5688 51.77 63.3919 52.128C63.2171 52.486 62.9719 52.7646 62.6564 52.9637C62.3429 53.1628 61.9771 53.2623 61.5591 53.2623ZM61.5591 52.6228C61.8766 52.6228 62.1379 52.5413 62.3429 52.3784C62.5479 52.2155 62.6996 52.0013 62.7981 51.7358C62.8966 51.4704 62.9458 51.1828 62.9458 50.873C62.9458 50.5633 62.8966 50.2747 62.7981 50.0072C62.6996 49.7397 62.5479 49.5235 62.3429 49.3586C62.1379 49.1937 61.8766 49.1113 61.5591 49.1113C61.2416 49.1113 60.9803 49.1937 60.7753 49.3586C60.5704 49.5235 60.4186 49.7397 60.3202 50.0072C60.2217 50.2747 60.1724 50.5633 60.1724 50.873C60.1724 51.1828 60.2217 51.4704 60.3202 51.7358C60.4186 52.0013 60.5704 52.2155 60.7753 52.3784C60.9803 52.5413 61.2416 52.6228 61.5591 52.6228Z" fill="#C4EF17"/>
<path d="M66.6122 55C66.2685 55 65.9731 54.9558 65.7259 54.8673C65.4787 54.7808 65.2727 54.6661 65.1079 54.5233C64.9452 54.3826 64.8155 54.2317 64.7191 54.0708L65.2858 53.6726C65.3501 53.7571 65.4315 53.8536 65.53 53.9622C65.6284 54.0728 65.7631 54.1684 65.9339 54.2488C66.1067 54.3313 66.3328 54.3725 66.6122 54.3725C66.986 54.3725 67.2945 54.282 67.5376 54.101C67.7808 53.92 67.9024 53.6364 67.9024 53.2503V52.309H67.8421C67.7898 52.3935 67.7155 52.4981 67.619 52.6228C67.5246 52.7455 67.3879 52.8551 67.209 52.9516C67.0322 53.0461 66.793 53.0934 66.4916 53.0934C66.1178 53.0934 65.7822 53.0049 65.4848 52.8279C65.1893 52.6509 64.9552 52.3935 64.7824 52.0556C64.6115 51.7177 64.5261 51.3075 64.5261 50.8248C64.5261 50.3501 64.6095 49.9368 64.7763 49.5849C64.9431 49.2309 65.1753 48.9574 65.4727 48.7643C65.7701 48.5692 66.1138 48.4717 66.5037 48.4717C66.8051 48.4717 67.0443 48.522 67.2211 48.6225C67.4 48.7211 67.5366 48.8337 67.6311 48.9604C67.7275 49.0851 67.8019 49.1877 67.8541 49.2681H67.9265V48.532H68.6138V53.2985C68.6138 53.6967 68.5234 54.0206 68.3425 54.2699C68.1636 54.5213 67.9225 54.7054 67.619 54.822C67.3176 54.9407 66.982 55 66.6122 55ZM66.5881 52.4538C66.8734 52.4538 67.1146 52.3885 67.3115 52.2578C67.5085 52.127 67.6582 51.939 67.7607 51.6936C67.8632 51.4482 67.9144 51.1546 67.9144 50.8127C67.9144 50.4789 67.8642 50.1842 67.7637 49.9288C67.6632 49.6734 67.5145 49.4733 67.3176 49.3285C67.1206 49.1837 66.8775 49.1113 66.5881 49.1113C66.2866 49.1113 66.0354 49.1877 65.8344 49.3405C65.6355 49.4934 65.4858 49.6985 65.3853 49.9559C65.2868 50.2134 65.2376 50.499 65.2376 50.8127C65.2376 51.1345 65.2878 51.4191 65.3883 51.6665C65.4908 51.9118 65.6415 52.1049 65.8405 52.2457C66.0414 52.3845 66.2906 52.4538 66.5881 52.4538Z" fill="#C4EF17"/>
<path d="M71.2786 53.2744C70.9852 53.2744 70.7189 53.2191 70.4798 53.1085C70.2406 52.9959 70.0507 52.834 69.91 52.6228C69.7694 52.4096 69.699 52.1522 69.699 51.8505C69.699 51.585 69.7513 51.3698 69.8558 51.2049C69.9603 51.038 70.1 50.9072 70.2748 50.8127C70.4496 50.7182 70.6426 50.6478 70.8536 50.6015C71.0666 50.5533 71.2806 50.5151 71.4957 50.4869C71.777 50.4507 72.0051 50.4235 72.18 50.4054C72.3568 50.3853 72.4854 50.3522 72.5658 50.3059C72.6482 50.2596 72.6894 50.1792 72.6894 50.0646V50.0404C72.6894 49.7428 72.608 49.5115 72.4452 49.3466C72.2845 49.1816 72.0403 49.0992 71.7127 49.0992C71.3731 49.0992 71.1068 49.1736 70.9139 49.3224C70.7209 49.4713 70.5853 49.6301 70.5069 49.7991L69.8317 49.5577C69.9522 49.2762 70.113 49.0569 70.314 48.9001C70.517 48.7412 70.738 48.6306 70.9772 48.5682C71.2183 48.5039 71.4555 48.4717 71.6886 48.4717C71.8373 48.4717 72.0081 48.4898 72.2011 48.526C72.396 48.5602 72.5839 48.6316 72.7648 48.7402C72.9477 48.8488 73.0994 49.0127 73.22 49.2319C73.3405 49.4511 73.4008 49.7448 73.4008 50.1128V53.1658H72.6894V52.5383H72.6532C72.605 52.6389 72.5246 52.7465 72.4121 52.8611C72.2995 52.9757 72.1498 53.0733 71.9629 53.1537C71.776 53.2342 71.5479 53.2744 71.2786 53.2744ZM71.3871 52.6348C71.6685 52.6348 71.9056 52.5795 72.0986 52.4689C72.2935 52.3583 72.4402 52.2155 72.5387 52.0405C72.6392 51.8656 72.6894 51.6815 72.6894 51.4885V50.8368C72.6593 50.873 72.5929 50.9062 72.4905 50.9364C72.39 50.9646 72.2734 50.9897 72.1408 51.0118C72.0101 51.0319 71.8825 51.05 71.7579 51.0661C71.6353 51.0802 71.5359 51.0923 71.4595 51.1023C71.2746 51.1265 71.1018 51.1657 70.941 51.22C70.7822 51.2723 70.6536 51.3517 70.5551 51.4583C70.4587 51.5629 70.4105 51.7057 70.4105 51.8867C70.4105 52.1341 70.5019 52.3211 70.6848 52.4478C70.8697 52.5725 71.1038 52.6348 71.3871 52.6348Z" fill="#C4EF17"/>
<path d="M75.4108 50.3783V53.1658H74.6993V48.532H75.3866V49.2561H75.4469C75.5555 49.0207 75.7202 48.8317 75.9413 48.6889C76.1624 48.5441 76.4477 48.4717 76.7974 48.4717C77.1109 48.4717 77.3853 48.5361 77.6204 48.6648C77.8555 48.7915 78.0384 48.9845 78.169 49.244C78.2997 49.5014 78.365 49.8272 78.365 50.2214V53.1658H77.6535V50.2697C77.6535 49.9057 77.5591 49.6221 77.3702 49.419C77.1813 49.2138 76.922 49.1113 76.5924 49.1113C76.3653 49.1113 76.1624 49.1605 75.9835 49.2591C75.8067 49.3576 75.667 49.5014 75.5645 49.6905C75.462 49.8795 75.4108 50.1088 75.4108 50.3783Z" fill="#C4EF17"/>
<path d="M36.0702 6.54237L44.5583 21.2555C46.8586 25.2429 52.6089 25.2429 54.9091 21.2555L54.9758 21.1393L46.5543 6.54237H36.0702Z" fill="#C4EF17"/>
<path d="M63.3972 6.54237L54.9758 21.1393L55.0424 21.2555C57.3426 25.2429 63.0929 25.2429 65.3932 21.2555L73.8813 6.54237H63.3972Z" fill="#C4EF17"/>
<path d="M63.3972 6.54237L67.1715 0H42.7801L46.5543 6.54237H63.3972Z" fill="#C4EF17"/>
<path d="M46.5543 6.54237L54.9758 21.14L63.3972 6.54237H46.5543Z" fill="#C4EF17"/>
</svg>
