<svg width="115" height="55" viewBox="0 0 115 55" fill="none" xmlns="http://www.w3.org/2000/svg">
<path d="M1.5853 30.6176L5.29247 41.1276H5.43881L9.14598 30.6176H10.7313L6.1461 43.1028H4.58518L0 30.6176H1.5853Z" fill="#C4EF17"/>
<path d="M14.1885 30.6176V43.1028H12.6763V30.6176H14.1885Z" fill="#C4EF17"/>
<path d="M17.2204 43.1028V30.6176H21.4397C22.4153 30.6176 23.216 30.7842 23.842 31.1175C24.468 31.4467 24.9314 31.8999 25.2322 32.477C25.533 33.0541 25.6834 33.7104 25.6834 34.4461C25.6834 35.1817 25.533 35.834 25.2322 36.403C24.9314 36.9719 24.4701 37.419 23.8481 37.7441C23.2262 38.0652 22.4315 38.2257 21.4641 38.2257H18.0496V36.8602H21.4153C22.0819 36.8602 22.6185 36.7626 23.025 36.5676C23.4356 36.3725 23.7323 36.0961 23.9152 35.7385C24.1022 35.3768 24.1957 34.946 24.1957 34.4461C24.1957 33.9462 24.1022 33.5093 23.9152 33.1354C23.7282 32.7615 23.4295 32.4729 23.0189 32.2697C22.6083 32.0624 22.0657 31.9588 21.3909 31.9588H18.7325V43.1028H17.2204ZM23.0982 37.4942L26.1712 43.1028H24.4152L21.3909 37.4942H23.0982Z" fill="#C4EF17"/>
<path d="M27.5202 31.9588V30.6176H36.8857V31.9588H32.9591V43.1028H31.4469V31.9588H27.5202Z" fill="#C4EF17"/>
<path d="M47.4143 30.6176H48.9264V38.8841C48.9264 39.7376 48.7252 40.4997 48.3228 41.1702C47.9244 41.8368 47.3614 42.3631 46.6338 42.7492C45.9062 43.1312 45.0526 43.3222 44.0729 43.3222C43.0933 43.3222 42.2397 43.1312 41.5121 42.7492C40.7845 42.3631 40.2194 41.8368 39.817 41.1702C39.4187 40.4997 39.2195 39.7376 39.2195 38.8841V30.6176H40.7316V38.7622C40.7316 39.3718 40.8658 39.9144 41.134 40.3899C41.4023 40.8614 41.7844 41.2332 42.2803 41.5055C42.7803 41.7738 43.3779 41.9079 44.0729 41.9079C44.768 41.9079 45.3656 41.7738 45.8656 41.5055C46.3655 41.2332 46.7476 40.8614 47.0119 40.3899C47.2801 39.9144 47.4143 39.3718 47.4143 38.7622V30.6176Z" fill="#C4EF17"/>
<path d="M52.4583 43.1028H50.873L55.4582 30.6176H57.0191L61.6043 43.1028H60.019L56.2874 32.5928H56.1898L52.4583 43.1028ZM53.0436 38.2257H59.4336V39.5669H53.0436V38.2257Z" fill="#C4EF17"/>
<path d="M63.5493 43.1028V30.6176H65.0614V41.7616H70.8661V43.1028H63.5493Z" fill="#C4EF17"/>
<path d="M70.8646 31.9588V30.6176H80.23V31.9588H76.3034V43.1028H74.7912V31.9588H70.8646Z" fill="#C4EF17"/>
<path d="M82.5638 43.1028V30.6176H90.1001V31.9588H84.0759V36.1774H89.7098V37.5186H84.0759V41.7616H90.1976V43.1028H82.5638Z" fill="#C4EF17"/>
<path d="M102.874 34.5192H101.362C101.272 34.0844 101.116 33.7023 100.892 33.3731C100.673 33.0439 100.405 32.7676 100.087 32.544C99.7745 32.3164 99.4269 32.1457 99.0448 32.0319C98.6627 31.9181 98.2644 31.8612 97.8498 31.8612C97.0937 31.8612 96.4088 32.0523 95.795 32.4343C95.1852 32.8163 94.6995 33.3792 94.3377 34.123C93.98 34.8667 93.8012 35.7791 93.8012 36.8602C93.8012 37.9413 93.98 38.8537 94.3377 39.5974C94.6995 40.3412 95.1852 40.904 95.795 41.2861C96.4088 41.6681 97.0937 41.8591 97.8498 41.8591C98.2644 41.8591 98.6627 41.8022 99.0448 41.6884C99.4269 41.5746 99.7745 41.406 100.087 41.1824C100.405 40.9548 100.673 40.6764 100.892 40.3472C101.116 40.014 101.272 39.632 101.362 39.2011H102.874C102.76 39.8392 102.553 40.4102 102.252 40.9142C101.951 41.4182 101.577 41.8469 101.13 42.2005C100.683 42.55 100.181 42.8162 99.6241 42.9991C99.0713 43.182 98.4798 43.2735 97.8498 43.2735C96.7848 43.2735 95.8377 43.0133 95.0084 42.4931C94.1792 41.9729 93.5268 41.2332 93.0512 40.2741C92.5756 39.3149 92.3378 38.177 92.3378 36.8602C92.3378 35.5434 92.5756 34.4054 93.0512 33.4463C93.5268 32.4871 94.1792 31.7475 95.0084 31.2272C95.8377 30.707 96.7848 30.4469 97.8498 30.4469C98.4798 30.4469 99.0713 30.5384 99.6241 30.7212C100.181 30.9041 100.683 31.1724 101.13 31.526C101.577 31.8755 101.951 32.3022 102.252 32.8062C102.553 33.3061 102.76 33.8771 102.874 34.5192Z" fill="#C4EF17"/>
<path d="M105.317 43.1028V30.6176H106.83V36.1774H113.488V30.6176H115V43.1028H113.488V37.5186H106.83V43.1028H105.317Z" fill="#C4EF17"/>
<path d="M24.2089 53.2524C23.7719 53.2524 23.3957 53.1493 23.0801 52.943C22.7645 52.7367 22.5217 52.4525 22.3518 52.0904C22.1819 51.7284 22.0969 51.3147 22.0969 50.8495C22.0969 50.3762 22.1839 49.9586 22.3579 49.5965C22.5339 49.2324 22.7786 48.9482 23.0922 48.744C23.4078 48.5376 23.776 48.4345 24.1968 48.4345C24.5245 48.4345 24.8198 48.4952 25.0828 48.6165C25.3458 48.7379 25.5613 48.9078 25.7292 49.1262C25.8971 49.3447 26.0013 49.5995 26.0417 49.8908H25.3256C25.271 49.6784 25.1496 49.4903 24.9614 49.3265C24.7753 49.1606 24.5245 49.0777 24.2089 49.0777C23.9297 49.0777 23.6849 49.1505 23.4746 49.2961C23.2662 49.4397 23.1033 49.643 22.986 49.906C22.8707 50.1669 22.813 50.4733 22.813 50.8253C22.813 51.1853 22.8697 51.4988 22.983 51.7658C23.0983 52.0328 23.2601 52.2401 23.4685 52.3878C23.6789 52.5354 23.9257 52.6092 24.2089 52.6092C24.395 52.6092 24.5639 52.5769 24.7157 52.5121C24.8674 52.4474 24.9958 52.3544 25.101 52.233C25.2062 52.1117 25.2811 51.966 25.3256 51.7961H26.0417C26.0013 52.0712 25.9011 52.319 25.7413 52.5395C25.5835 52.7579 25.3741 52.9318 25.1132 53.0613C24.8542 53.1887 24.5528 53.2524 24.2089 53.2524Z" fill="#C4EF17"/>
<path d="M28.9822 53.2524C28.5614 53.2524 28.1922 53.1523 27.8746 52.9521C27.559 52.7518 27.3122 52.4717 27.1341 52.1117C26.9581 51.7516 26.8701 51.3309 26.8701 50.8495C26.8701 50.3641 26.9581 49.9404 27.1341 49.5783C27.3122 49.2162 27.559 48.9351 27.8746 48.7349C28.1922 48.5346 28.5614 48.4345 28.9822 48.4345C29.4029 48.4345 29.7711 48.5346 30.0867 48.7349C30.4043 48.9351 30.6511 49.2162 30.8271 49.5783C31.0051 49.9404 31.0942 50.3641 31.0942 50.8495C31.0942 51.3309 31.0051 51.7516 30.8271 52.1117C30.6511 52.4717 30.4043 52.7518 30.0867 52.9521C29.7711 53.1523 29.4029 53.2524 28.9822 53.2524ZM28.9822 52.6092C29.3018 52.6092 29.5648 52.5273 29.7711 52.3635C29.9775 52.1996 30.1302 51.9842 30.2293 51.7172C30.3285 51.4503 30.378 51.161 30.378 50.8495C30.378 50.538 30.3285 50.2478 30.2293 49.9788C30.1302 49.7098 29.9775 49.4923 29.7711 49.3265C29.5648 49.1606 29.3018 49.0777 28.9822 49.0777C28.6625 49.0777 28.3995 49.1606 28.1932 49.3265C27.9868 49.4923 27.8341 49.7098 27.735 49.9788C27.6358 50.2478 27.5863 50.538 27.5863 50.8495C27.5863 51.161 27.6358 51.4503 27.735 51.7172C27.8341 51.9842 27.9868 52.1996 28.1932 52.3635C28.3995 52.5273 28.6625 52.6092 28.9822 52.6092Z" fill="#C4EF17"/>
<path d="M32.1873 53.1553V48.4952H32.8792V49.2233H32.9399C33.037 48.9745 33.1938 48.7814 33.4102 48.6438C33.6267 48.5043 33.8867 48.4345 34.1901 48.4345C34.4976 48.4345 34.7535 48.5043 34.9578 48.6438C35.1642 48.7814 35.325 48.9745 35.4403 49.2233H35.4889C35.6082 48.9826 35.7873 48.7915 36.026 48.6499C36.2647 48.5063 36.5509 48.4345 36.8847 48.4345C37.3015 48.4345 37.6423 48.565 37.9074 48.8259C38.1724 49.0848 38.3049 49.4883 38.3049 50.0364V53.1553H37.5887V50.0364C37.5887 49.6926 37.4947 49.4468 37.3065 49.2992C37.1184 49.1515 36.8969 49.0777 36.642 49.0777C36.3142 49.0777 36.0604 49.1768 35.8803 49.375C35.7003 49.5712 35.6102 49.82 35.6102 50.1214V53.1553H34.882V49.9636C34.882 49.6986 34.796 49.4853 34.624 49.3234C34.4521 49.1596 34.2306 49.0777 33.9595 49.0777C33.7734 49.0777 33.5994 49.1272 33.4375 49.2264C33.2777 49.3255 33.1483 49.463 33.0491 49.639C32.952 49.8129 32.9035 50.0142 32.9035 50.2427V53.1553H32.1873Z" fill="#C4EF17"/>
<path d="M39.6143 54.9029V48.4952H40.3061V49.2355H40.3911C40.4437 49.1546 40.5165 49.0514 40.6096 48.926C40.7047 48.7986 40.8402 48.6853 41.0162 48.5862C41.1942 48.4851 41.435 48.4345 41.7384 48.4345C42.1309 48.4345 42.4768 48.5326 42.7762 48.7288C43.0756 48.925 43.3093 49.2031 43.4772 49.5631C43.6451 49.9232 43.729 50.3479 43.729 50.8374C43.729 51.3309 43.6451 51.7587 43.4772 52.1208C43.3093 52.4808 43.0766 52.7599 42.7792 52.9581C42.4819 53.1543 42.139 53.2524 41.7505 53.2524C41.4511 53.2524 41.2114 53.2029 41.0314 53.1038C40.8513 53.0026 40.7127 52.8884 40.6156 52.7609C40.5185 52.6315 40.4437 52.5243 40.3911 52.4393H40.3304V54.9029H39.6143ZM40.3183 50.8253C40.3183 51.1772 40.3698 51.4877 40.473 51.7567C40.5762 52.0237 40.7269 52.233 40.9252 52.3847C41.1234 52.5344 41.3662 52.6092 41.6534 52.6092C41.9528 52.6092 42.2027 52.5304 42.403 52.3726C42.6053 52.2128 42.757 51.9984 42.8581 51.7294C42.9613 51.4583 43.0129 51.157 43.0129 50.8253C43.0129 50.4976 42.9623 50.2023 42.8612 49.9393C42.762 49.6744 42.6113 49.465 42.409 49.3113C42.2087 49.1556 41.9569 49.0777 41.6534 49.0777C41.3621 49.0777 41.1173 49.1515 40.9191 49.2992C40.7208 49.4448 40.5711 49.6491 40.47 49.912C40.3688 50.173 40.3183 50.4774 40.3183 50.8253Z" fill="#C4EF17"/>
<path d="M46.193 53.2646C45.8977 53.2646 45.6296 53.2089 45.3889 53.0977C45.1482 52.9844 44.957 52.8216 44.8154 52.6092C44.6738 52.3948 44.603 52.1359 44.603 51.8325C44.603 51.5656 44.6556 51.3491 44.7608 51.1833C44.8659 51.0154 45.0065 50.8839 45.1825 50.7889C45.3585 50.6938 45.5528 50.623 45.7652 50.5765C45.9796 50.5279 46.1951 50.4895 46.4115 50.4612C46.6947 50.4248 46.9244 50.3975 47.1004 50.3793C47.2784 50.359 47.4078 50.3257 47.4888 50.2791C47.5717 50.2326 47.6132 50.1517 47.6132 50.0364V50.0122C47.6132 49.7128 47.5312 49.4802 47.3674 49.3143C47.2055 49.1485 46.9597 49.0656 46.63 49.0656C46.2881 49.0656 46.0201 49.1404 45.8259 49.2901C45.6317 49.4397 45.4951 49.5995 45.4162 49.7694L44.7365 49.5267C44.8579 49.2436 45.0197 49.0231 45.222 48.8653C45.4263 48.7055 45.6489 48.5943 45.8896 48.5316C46.1323 48.4669 46.3711 48.4345 46.6057 48.4345C46.7554 48.4345 46.9274 48.4527 47.1216 48.4891C47.3178 48.5235 47.507 48.5953 47.689 48.7045C47.8731 48.8137 48.0259 48.9786 48.1472 49.1991C48.2686 49.4195 48.3293 49.7148 48.3293 50.085V53.1553H47.6132V52.5243H47.5768C47.5282 52.6254 47.4473 52.7336 47.334 52.8489C47.2207 52.9642 47.07 53.0623 46.8819 53.1432C46.6937 53.2241 46.4641 53.2646 46.193 53.2646ZM46.3023 52.6214C46.5855 52.6214 46.8242 52.5657 47.0184 52.4545C47.2147 52.3433 47.3623 52.1996 47.4615 52.0237C47.5626 51.8477 47.6132 51.6626 47.6132 51.4685V50.8131C47.5828 50.8495 47.5161 50.8829 47.4129 50.9132C47.3117 50.9416 47.1944 50.9668 47.0609 50.9891C46.9294 51.0093 46.8009 51.0275 46.6755 51.0437C46.5521 51.0579 46.452 51.07 46.3751 51.0801C46.189 51.1044 46.015 51.1438 45.8532 51.1984C45.6934 51.251 45.5639 51.3309 45.4648 51.4381C45.3677 51.5433 45.3191 51.6869 45.3191 51.8689C45.3191 52.1177 45.4111 52.3058 45.5952 52.4333C45.7814 52.5587 46.017 52.6214 46.3023 52.6214Z" fill="#C4EF17"/>
<path d="M50.3526 50.352V53.1553H49.6364V48.4952H50.3283V49.2233H50.389C50.4982 48.9867 50.6641 48.7965 50.8866 48.6529C51.1092 48.5073 51.3964 48.4345 51.7484 48.4345C52.064 48.4345 52.3402 48.4992 52.5768 48.6287C52.8135 48.7561 52.9976 48.9503 53.1291 49.2112C53.2606 49.4701 53.3264 49.7978 53.3264 50.1942V53.1553H52.6102V50.2427C52.6102 49.8766 52.5152 49.5914 52.325 49.3872C52.1348 49.1808 51.8739 49.0777 51.5421 49.0777C51.3135 49.0777 51.1092 49.1272 50.9291 49.2264C50.7511 49.3255 50.6105 49.4701 50.5073 49.6602C50.4042 49.8503 50.3526 50.0809 50.3526 50.352Z" fill="#C4EF17"/>
<path d="M54.9293 54.9029C54.808 54.9029 54.6997 54.8928 54.6047 54.8726C54.5096 54.8544 54.4438 54.8362 54.4074 54.818L54.5895 54.1869C54.7635 54.2314 54.9172 54.2476 55.0507 54.2354C55.1842 54.2233 55.3026 54.1636 55.4058 54.0564C55.511 53.9513 55.607 53.7803 55.694 53.5437L55.8275 53.1796L54.104 48.4952H54.8808L56.1674 52.2088H56.216L57.5026 48.4952H58.2794L56.3009 53.835C56.2119 54.0757 56.1017 54.2749 55.9702 54.4326C55.8387 54.5924 55.6859 54.7108 55.512 54.7876C55.34 54.8645 55.1458 54.9029 54.9293 54.9029Z" fill="#C4EF17"/>
<path d="M63.655 48.4952V49.102H61.2396V48.4952H63.655ZM61.9436 47.3787H62.6597V51.8204C62.6597 52.0227 62.689 52.1744 62.7477 52.2755C62.8084 52.3746 62.8853 52.4414 62.9783 52.4757C63.0734 52.5081 63.1736 52.5243 63.2787 52.5243C63.3576 52.5243 63.4224 52.5202 63.473 52.5121C63.5235 52.502 63.564 52.4939 63.5943 52.4879L63.74 53.1311C63.6914 53.1493 63.6237 53.1675 63.5367 53.1857C63.4497 53.2059 63.3394 53.216 63.2059 53.216C63.0036 53.216 62.8054 53.1725 62.6112 53.0856C62.419 52.9986 62.2592 52.8661 62.1317 52.6881C62.0063 52.5101 61.9436 52.2856 61.9436 52.0146V47.3787Z" fill="#C4EF17"/>
<path d="M66.1039 53.2646C65.8085 53.2646 65.5405 53.2089 65.2997 53.0977C65.059 52.9844 64.8678 52.8216 64.7262 52.6092C64.5846 52.3948 64.5138 52.1359 64.5138 51.8325C64.5138 51.5656 64.5664 51.3491 64.6716 51.1833C64.7768 51.0154 64.9174 50.8839 65.0934 50.7889C65.2694 50.6938 65.4636 50.623 65.676 50.5765C65.8904 50.5279 66.1059 50.4895 66.3223 50.4612C66.6056 50.4248 66.8352 50.3975 67.0112 50.3793C67.1892 50.359 67.3187 50.3257 67.3996 50.2791C67.4825 50.2326 67.524 50.1517 67.524 50.0364V50.0122C67.524 49.7128 67.4421 49.4802 67.2782 49.3143C67.1164 49.1485 66.8706 49.0656 66.5408 49.0656C66.1989 49.0656 65.9309 49.1404 65.7367 49.2901C65.5425 49.4397 65.4059 49.5995 65.327 49.7694L64.6473 49.5267C64.7687 49.2436 64.9305 49.0231 65.1328 48.8653C65.3371 48.7055 65.5597 48.5943 65.8004 48.5316C66.0432 48.4669 66.2819 48.4345 66.5165 48.4345C66.6662 48.4345 66.8382 48.4527 67.0324 48.4891C67.2286 48.5235 67.4178 48.5953 67.5999 48.7045C67.784 48.8137 67.9367 48.9786 68.0581 49.1991C68.1794 49.4195 68.2401 49.7148 68.2401 50.085V53.1553H67.524V52.5243H67.4876C67.439 52.6254 67.3581 52.7336 67.2448 52.8489C67.1315 52.9642 66.9808 53.0623 66.7927 53.1432C66.6046 53.2241 66.3749 53.2646 66.1039 53.2646ZM66.2131 52.6214C66.4963 52.6214 66.735 52.5657 66.9292 52.4545C67.1255 52.3433 67.2732 52.1996 67.3723 52.0237C67.4734 51.8477 67.524 51.6626 67.524 51.4685V50.8131C67.4937 50.8495 67.4269 50.8829 67.3237 50.9132C67.2226 50.9416 67.1052 50.9668 66.9717 50.9891C66.8402 51.0093 66.7118 51.0275 66.5863 51.0437C66.4629 51.0579 66.3628 51.07 66.2859 51.0801C66.0998 51.1044 65.9258 51.1438 65.764 51.1984C65.6042 51.251 65.4747 51.3309 65.3756 51.4381C65.2785 51.5433 65.2299 51.6869 65.2299 51.8689C65.2299 52.1177 65.322 52.3058 65.5061 52.4333C65.6922 52.5587 65.9279 52.6214 66.2131 52.6214Z" fill="#C4EF17"/>
<path d="M71.4286 55C71.0827 55 70.7853 54.9555 70.5365 54.8665C70.2877 54.7795 70.0803 54.6642 69.9144 54.5206C69.7506 54.379 69.6201 54.2273 69.523 54.0655L70.0935 53.6651C70.1582 53.75 70.2401 53.8471 70.3393 53.9563C70.4384 54.0676 70.5739 54.1636 70.7459 54.2445C70.9199 54.3275 71.1474 54.3689 71.4286 54.3689C71.8049 54.3689 72.1154 54.2779 72.3602 54.0959C72.605 53.9138 72.7274 53.6286 72.7274 53.2403V52.2937H72.6667C72.6141 52.3787 72.5393 52.4838 72.4422 52.6092C72.3471 52.7326 72.2095 52.8429 72.0295 52.9399C71.8514 53.035 71.6107 53.0825 71.3073 53.0825C70.931 53.0825 70.5931 52.9935 70.2937 52.8155C69.9964 52.6376 69.7607 52.3787 69.5867 52.0388C69.4147 51.699 69.3288 51.2864 69.3288 50.801C69.3288 50.3236 69.4127 49.908 69.5806 49.554C69.7485 49.198 69.9822 48.923 70.2816 48.7288C70.581 48.5326 70.9269 48.4345 71.3194 48.4345C71.6228 48.4345 71.8636 48.4851 72.0416 48.5862C72.2216 48.6853 72.3592 48.7986 72.4543 48.926C72.5514 49.0514 72.6263 49.1546 72.6788 49.2355H72.7517V48.4952H73.4435V53.2888C73.4435 53.6893 73.3525 54.015 73.1704 54.2658C72.9904 54.5186 72.7476 54.7037 72.4422 54.821C72.1387 54.9403 71.8009 55 71.4286 55ZM71.4044 52.4393C71.6916 52.4393 71.9344 52.3736 72.1326 52.2421C72.3309 52.1107 72.4816 51.9215 72.5848 51.6748C72.688 51.428 72.7395 51.1327 72.7395 50.7889C72.7395 50.4531 72.689 50.1568 72.5878 49.8999C72.4867 49.643 72.337 49.4418 72.1387 49.2961C71.9405 49.1505 71.6957 49.0777 71.4044 49.0777C71.1009 49.0777 70.848 49.1546 70.6457 49.3083C70.4455 49.462 70.2947 49.6683 70.1936 49.9272C70.0945 50.1861 70.0449 50.4733 70.0449 50.7889C70.0449 51.1125 70.0955 51.3987 70.1966 51.6475C70.2998 51.8942 70.4515 52.0884 70.6518 52.23C70.8541 52.3696 71.105 52.4393 71.4044 52.4393Z" fill="#C4EF17"/>
<path d="M75.4706 46.9418V53.1553H74.7544V46.9418H75.4706Z" fill="#C4EF17"/>
<path d="M76.7822 53.1553V48.4952H77.4984V53.1553H76.7822ZM77.1464 47.7185C77.0068 47.7185 76.8864 47.6709 76.7853 47.5759C76.6861 47.4808 76.6366 47.3665 76.6366 47.233C76.6366 47.0996 76.6861 46.9853 76.7853 46.8902C76.8864 46.7951 77.0068 46.7476 77.1464 46.7476C77.286 46.7476 77.4053 46.7951 77.5044 46.8902C77.6056 46.9853 77.6562 47.0996 77.6562 47.233C77.6562 47.3665 77.6056 47.4808 77.5044 47.5759C77.4053 47.6709 77.286 47.7185 77.1464 47.7185Z" fill="#C4EF17"/>
<path d="M79.5262 50.352V53.1553H78.81V48.4952H79.5019V49.2233H79.5626C79.6718 48.9867 79.8377 48.7965 80.0603 48.6529C80.2828 48.5073 80.57 48.4345 80.922 48.4345C81.2376 48.4345 81.5138 48.4992 81.7505 48.6287C81.9872 48.7561 82.1712 48.9503 82.3027 49.2112C82.4342 49.4701 82.5 49.7978 82.5 50.1942V53.1553H81.7838V50.2427C81.7838 49.8766 81.6888 49.5914 81.4986 49.3872C81.3084 49.1808 81.0475 49.0777 80.7157 49.0777C80.4871 49.0777 80.2828 49.1272 80.1027 49.2264C79.9247 49.3255 79.7841 49.4701 79.6809 49.6602C79.5778 49.8503 79.5262 50.0809 79.5262 50.352Z" fill="#C4EF17"/>
<path d="M85.7628 53.2524C85.3137 53.2524 84.9263 53.1533 84.6006 52.9551C84.2769 52.7549 84.0271 52.4757 83.8511 52.1177C83.6771 51.7577 83.5901 51.339 83.5901 50.8617C83.5901 50.3843 83.6771 49.9636 83.8511 49.5995C84.0271 49.2334 84.2719 48.9482 84.5854 48.744C84.901 48.5376 85.2692 48.4345 85.69 48.4345C85.9328 48.4345 86.1725 48.4749 86.4092 48.5559C86.6459 48.6368 86.8613 48.7682 87.0555 48.9503C87.2497 49.1303 87.4045 49.369 87.5198 49.6663C87.6351 49.9636 87.6928 50.3297 87.6928 50.7646V51.068H84.0999V50.449H86.9645C86.9645 50.1861 86.9119 49.9515 86.8067 49.7452C86.7035 49.5389 86.5558 49.376 86.3636 49.2567C86.1735 49.1374 85.9489 49.0777 85.69 49.0777C85.4048 49.0777 85.1579 49.1485 84.9496 49.2901C84.7432 49.4296 84.5844 49.6117 84.4732 49.8362C84.3619 50.0607 84.3063 50.3014 84.3063 50.5583V50.9709C84.3063 51.3228 84.367 51.6212 84.4883 51.8659C84.6117 52.1086 84.7827 52.2937 85.0012 52.4211C85.2196 52.5465 85.4735 52.6092 85.7628 52.6092C85.951 52.6092 86.1209 52.5829 86.2726 52.5303C86.4264 52.4757 86.5589 52.3948 86.6701 52.2876C86.7814 52.1784 86.8674 52.0429 86.9281 51.8811L87.6199 52.0753C87.5471 52.3099 87.4247 52.5162 87.2528 52.6942C87.0808 52.8702 86.8684 53.0077 86.6155 53.1068C86.3626 53.2039 86.0784 53.2524 85.7628 53.2524Z" fill="#C4EF17"/>
<path d="M52.8248 6.87621L58.6181 24.6961H51.3867L43.3581 0C47.6704 0 51.4918 2.7762 52.8248 6.87621Z" fill="#C4EF17"/>
<path d="M52.8248 6.87621C52.8193 6.85893 52.8117 6.84302 52.8061 6.82643C51.0043 8.89199 49.2572 11.0053 47.6538 13.2153L51.386 24.6954H58.6174L52.8248 6.87621Z" fill="#C4EF17"/>
<path d="M63.9785 15.7613H57.2104V9.55632H70.1846C70.1839 12.983 67.4058 15.7613 63.9785 15.7613Z" fill="#C4EF17"/>
<path d="M67.9223 9.55632H57.2104V15.7613H63.9785C64.7584 15.7613 65.501 15.6113 66.189 15.3486C66.7746 13.4199 67.3685 11.4933 67.9223 9.55632Z" fill="#C4EF17"/>
<path d="M57.1821 6.87621L51.3888 24.6961H58.6202L66.6487 0C62.3365 0 58.5151 2.7762 57.1821 6.87621Z" fill="#C4EF17"/>
</svg>
