<svg width="84" height="55" viewBox="0 0 84 55" fill="none" xmlns="http://www.w3.org/2000/svg">
<path d="M23.7072 49.803L23.0956 49.9763C23.0572 49.8743 23.0004 49.7751 22.9254 49.6789C22.8523 49.5807 22.7523 49.4999 22.6254 49.4364C22.4984 49.3728 22.3359 49.3411 22.1378 49.3411C21.8666 49.3411 21.6406 49.4036 21.4598 49.5288C21.2809 49.6519 21.1915 49.8088 21.1915 49.9994C21.1915 50.1688 21.253 50.3025 21.3761 50.4007C21.4992 50.4989 21.6916 50.5807 21.9531 50.6461L22.6109 50.8078C23.0071 50.904 23.3024 51.0513 23.4966 51.2495C23.6909 51.4459 23.788 51.699 23.788 52.0089C23.788 52.2629 23.7149 52.4901 23.5688 52.6902C23.4245 52.8904 23.2226 53.0483 22.9629 53.1637C22.7033 53.2792 22.4013 53.337 22.057 53.337C21.605 53.337 21.2309 53.2388 20.9347 53.0425C20.6385 52.8462 20.451 52.5594 20.3721 52.1821L21.0184 52.0204C21.0799 52.2591 21.1963 52.4381 21.3675 52.5574C21.5406 52.6768 21.7666 52.7364 22.0455 52.7364C22.3628 52.7364 22.6148 52.6691 22.8013 52.5343C22.9898 52.3977 23.0841 52.2341 23.0841 52.0435C23.0841 51.8895 23.0302 51.7606 22.9225 51.6566C22.8148 51.5508 22.6494 51.4718 22.4263 51.4199L21.6877 51.2466C21.2819 51.1504 20.9838 51.0012 20.7934 50.7991C20.6049 50.5951 20.5106 50.3401 20.5106 50.034C20.5106 49.7838 20.5808 49.5624 20.7212 49.37C20.8636 49.1775 21.0569 49.0264 21.3011 48.9167C21.5473 48.807 21.8262 48.7521 22.1378 48.7521C22.5763 48.7521 22.9206 48.8483 23.1706 49.0408C23.4226 49.2333 23.6015 49.4874 23.7072 49.803Z" fill="#C4EF17"/>
<path d="M25.4938 47.3316V53.2446H24.8129V47.3316H25.4938Z" fill="#C4EF17"/>
<path d="M28.5411 53.337C28.1411 53.337 27.79 53.2417 27.4881 53.0511C27.188 52.8606 26.9534 52.594 26.7841 52.2514C26.6168 51.9088 26.5331 51.5084 26.5331 51.0503C26.5331 50.5884 26.6168 50.1851 26.7841 49.8406C26.9534 49.496 27.188 49.2285 27.4881 49.0379C27.79 48.8474 28.1411 48.7521 28.5411 48.7521C28.9412 48.7521 29.2912 48.8474 29.5913 49.0379C29.8932 49.2285 30.1279 49.496 30.2952 49.8406C30.4645 50.1851 30.5491 50.5884 30.5491 51.0503C30.5491 51.5084 30.4645 51.9088 30.2952 52.2514C30.1279 52.594 29.8932 52.8606 29.5913 53.0511C29.2912 53.2417 28.9412 53.337 28.5411 53.337ZM28.5411 52.7249C28.845 52.7249 29.095 52.6469 29.2912 52.491C29.4874 52.3351 29.6326 52.1301 29.7269 51.8761C29.8211 51.622 29.8682 51.3467 29.8682 51.0503C29.8682 50.7539 29.8211 50.4777 29.7269 50.2217C29.6326 49.9657 29.4874 49.7588 29.2912 49.6009C29.095 49.4431 28.845 49.3642 28.5411 49.3642C28.2372 49.3642 27.9872 49.4431 27.791 49.6009C27.5948 49.7588 27.4496 49.9657 27.3554 50.2217C27.2611 50.4777 27.214 50.7539 27.214 51.0503C27.214 51.3467 27.2611 51.622 27.3554 51.8761C27.4496 52.1301 27.5948 52.3351 27.791 52.491C27.9872 52.6469 28.2372 52.7249 28.5411 52.7249Z" fill="#C4EF17"/>
<path d="M33.3772 55C33.0483 55 32.7655 54.9577 32.529 54.873C32.2924 54.7902 32.0952 54.6805 31.9375 54.5438C31.7817 54.4091 31.6577 54.2647 31.5654 54.1107L32.1077 53.7296C32.1693 53.8105 32.2472 53.9029 32.3414 54.0068C32.4357 54.1127 32.5645 54.2041 32.728 54.2811C32.8934 54.36 33.1098 54.3995 33.3772 54.3995C33.7349 54.3995 34.0301 54.3128 34.2629 54.1396C34.4956 53.9664 34.6119 53.695 34.6119 53.3254V52.4246H34.5542C34.5042 52.5055 34.4331 52.6055 34.3408 52.7249C34.2504 52.8423 34.1196 52.9472 33.9484 53.0396C33.7791 53.1301 33.5503 53.1753 33.2617 53.1753C32.904 53.1753 32.5828 53.0906 32.2981 52.9212C32.0154 52.7518 31.7913 52.5055 31.6259 52.1821C31.4625 51.8587 31.3807 51.4661 31.3807 51.0041C31.3807 50.5499 31.4605 50.1543 31.6202 49.8175C31.7798 49.4787 32.002 49.2169 32.2866 49.0322C32.5713 48.8455 32.9002 48.7521 33.2733 48.7521C33.5618 48.7521 33.7907 48.8002 33.9599 48.8965C34.1311 48.9908 34.2619 49.0986 34.3523 49.2198C34.4446 49.3392 34.5158 49.4373 34.5658 49.5143H34.635V48.8098H35.2928V53.3716C35.2928 53.7527 35.2063 54.0626 35.0332 54.3013C34.862 54.5419 34.6312 54.718 34.3408 54.8297C34.0522 54.9432 33.731 55 33.3772 55ZM33.3541 52.5632C33.6272 52.5632 33.858 52.5006 34.0465 52.3755C34.235 52.2504 34.3783 52.0705 34.4763 51.8356C34.5744 51.6008 34.6235 51.3198 34.6235 50.9926C34.6235 50.673 34.5754 50.3911 34.4792 50.1466C34.3831 49.9022 34.2407 49.7106 34.0522 49.5721C33.8638 49.4335 33.631 49.3642 33.3541 49.3642C33.0656 49.3642 32.8251 49.4373 32.6328 49.5836C32.4424 49.7299 32.2991 49.9262 32.2029 50.1726C32.1087 50.419 32.0616 50.6923 32.0616 50.9926C32.0616 51.3005 32.1097 51.5729 32.2058 51.8096C32.3039 52.0445 32.4482 52.2293 32.6386 52.364C32.8309 52.4968 33.0694 52.5632 33.3541 52.5632Z" fill="#C4EF17"/>
<path d="M37.8432 53.3485C37.5624 53.3485 37.3075 53.2956 37.0786 53.1897C36.8498 53.0819 36.668 52.927 36.5334 52.7249C36.3987 52.5209 36.3314 52.2745 36.3314 51.9858C36.3314 51.7317 36.3814 51.5257 36.4814 51.3679C36.5815 51.2081 36.7151 51.083 36.8825 50.9926C37.0498 50.9021 37.2344 50.8347 37.4364 50.7905C37.6403 50.7443 37.8451 50.7077 38.0509 50.6807C38.3202 50.6461 38.5385 50.6201 38.7058 50.6028C38.8751 50.5835 38.9982 50.5518 39.0751 50.5075C39.1539 50.4632 39.1934 50.3863 39.1934 50.2765V50.2534C39.1934 49.9686 39.1155 49.7472 38.9597 49.5894C38.8058 49.4316 38.5721 49.3526 38.2586 49.3526C37.9336 49.3526 37.6787 49.4239 37.4941 49.5663C37.3094 49.7087 37.1796 49.8608 37.1046 50.0225L36.4584 49.7915C36.5738 49.522 36.7276 49.3122 36.92 49.1621C37.1142 49.01 37.3258 48.9042 37.5547 48.8445C37.7855 48.7829 38.0124 48.7521 38.2355 48.7521C38.3779 48.7521 38.5414 48.7694 38.726 48.8041C38.9126 48.8368 39.0924 48.9051 39.2655 49.0091C39.4405 49.113 39.5857 49.2699 39.7011 49.4797C39.8165 49.6895 39.8742 49.9705 39.8742 50.3227V53.2446H39.1934V52.644H39.1588C39.1126 52.7403 39.0357 52.8433 38.928 52.953C38.8202 53.0627 38.677 53.156 38.4981 53.233C38.3192 53.31 38.1009 53.3485 37.8432 53.3485ZM37.947 52.7364C38.2163 52.7364 38.4433 52.6835 38.6279 52.5776C38.8145 52.4718 38.9549 52.3351 39.0491 52.1677C39.1453 52.0002 39.1934 51.8241 39.1934 51.6393V51.0157C39.1645 51.0503 39.1011 51.0821 39.003 51.1109C38.9068 51.1379 38.7952 51.1619 38.6683 51.1831C38.5433 51.2024 38.4211 51.2197 38.3019 51.2351C38.1846 51.2486 38.0894 51.2601 38.0163 51.2697C37.8393 51.2928 37.6739 51.3304 37.5201 51.3823C37.3681 51.4324 37.245 51.5084 37.1508 51.6104C37.0585 51.7105 37.0123 51.8472 37.0123 52.0204C37.0123 52.2572 37.0998 52.4362 37.2748 52.5574C37.4518 52.6768 37.6758 52.7364 37.947 52.7364Z" fill="#C4EF17"/>
<path d="M41.7978 50.5768V53.2446H41.117V48.8098H41.7748V49.5028H41.8325C41.9363 49.2776 42.094 49.0966 42.3056 48.96C42.5172 48.8214 42.7903 48.7521 43.125 48.7521C43.425 48.7521 43.6875 48.8137 43.9126 48.9369C44.1376 49.0581 44.3126 49.2429 44.4376 49.4912C44.5627 49.7376 44.6252 50.0494 44.6252 50.4267V53.2446H43.9443V50.4729C43.9443 50.1245 43.8539 49.8531 43.6731 49.6587C43.4923 49.4624 43.2442 49.3642 42.9288 49.3642C42.7114 49.3642 42.5172 49.4113 42.346 49.5057C42.1767 49.6 42.0431 49.7376 41.945 49.9185C41.8469 50.0995 41.7978 50.3189 41.7978 50.5768Z" fill="#C4EF17"/>
<path d="M48.8351 50.5768V53.2446H48.1543V47.3316H48.8351V49.5028H48.8928C48.9967 49.2737 49.1525 49.0918 49.3602 48.9571C49.5699 48.8204 49.8488 48.7521 50.1969 48.7521C50.4988 48.7521 50.7633 48.8127 50.9903 48.934C51.2172 49.0533 51.3932 49.2372 51.5182 49.4855C51.6452 49.7318 51.7086 50.0456 51.7086 50.4267V53.2446H51.0278V50.4729C51.0278 50.1206 50.9364 49.8483 50.7537 49.6558C50.5729 49.4614 50.3219 49.3642 50.0007 49.3642C49.7776 49.3642 49.5776 49.4113 49.4006 49.5057C49.2256 49.6 49.0871 49.7376 48.9852 49.9185C48.8852 50.0995 48.8351 50.3189 48.8351 50.5768Z" fill="#C4EF17"/>
<path d="M54.8122 53.337C54.3852 53.337 54.0169 53.2427 53.7072 53.054C53.3995 52.8635 53.162 52.5978 52.9946 52.2572C52.8292 51.9145 52.7465 51.5161 52.7465 51.0619C52.7465 50.6076 52.8292 50.2072 52.9946 49.8608C53.162 49.5124 53.3947 49.241 53.6928 49.0466C53.9929 48.8503 54.3429 48.7521 54.743 48.7521C54.9738 48.7521 55.2017 48.7906 55.4267 48.8676C55.6518 48.9446 55.8566 49.0697 56.0412 49.2429C56.2259 49.4142 56.373 49.6414 56.4826 49.9243C56.5923 50.2072 56.6471 50.5556 56.6471 50.9695V51.2582H53.2312V50.6692H55.9547C55.9547 50.419 55.9047 50.1957 55.8047 49.9994C55.7066 49.803 55.5662 49.6481 55.3834 49.5345C55.2027 49.421 54.9892 49.3642 54.743 49.3642C54.4718 49.3642 54.2371 49.4316 54.039 49.5663C53.8428 49.6991 53.6919 49.8723 53.5861 50.086C53.4803 50.2996 53.4274 50.5287 53.4274 50.7731V51.1658C53.4274 51.5007 53.4851 51.7846 53.6005 52.0175C53.7178 52.2485 53.8804 52.4246 54.0881 52.5459C54.2958 52.6652 54.5372 52.7249 54.8122 52.7249C54.9911 52.7249 55.1526 52.6999 55.2969 52.6498C55.4431 52.5978 55.5691 52.5209 55.6748 52.4188C55.7806 52.3149 55.8624 52.1859 55.9201 52.032L56.5779 52.2167C56.5086 52.44 56.3922 52.6363 56.2288 52.8057C56.0653 52.9732 55.8633 53.1041 55.6229 53.1984C55.3825 53.2908 55.1123 53.337 54.8122 53.337Z" fill="#C4EF17"/>
<path d="M57.6828 53.2446V48.8098H58.3406V49.4797H58.3868C58.4675 49.2602 58.6137 49.0822 58.8253 48.9455C59.0369 48.8089 59.2754 48.7405 59.5408 48.7405C59.5908 48.7405 59.6533 48.7415 59.7283 48.7434C59.8033 48.7454 59.8601 48.7483 59.8985 48.7521V49.445C59.8754 49.4393 59.8226 49.4306 59.7398 49.419C59.6591 49.4056 59.5735 49.3988 59.4831 49.3988C59.2677 49.3988 59.0753 49.4441 58.9061 49.5345C58.7387 49.6231 58.606 49.7463 58.5079 49.9041C58.4118 50.06 58.3637 50.238 58.3637 50.4382V53.2446H57.6828Z" fill="#C4EF17"/>
<path d="M62.4287 53.337C62.0017 53.337 61.6334 53.2427 61.3237 53.054C61.016 52.8635 60.7785 52.5978 60.6111 52.2572C60.4457 51.9145 60.363 51.5161 60.363 51.0619C60.363 50.6076 60.4457 50.2072 60.6111 49.8608C60.7785 49.5124 61.0112 49.241 61.3093 49.0466C61.6093 48.8503 61.9594 48.7521 62.3595 48.7521C62.5903 48.7521 62.8182 48.7906 63.0432 48.8676C63.2682 48.9446 63.4731 49.0697 63.6577 49.2429C63.8424 49.4142 63.9895 49.6414 64.0991 49.9243C64.2088 50.2072 64.2636 50.5556 64.2636 50.9695V51.2582H60.8477V50.6692H63.5712C63.5712 50.419 63.5212 50.1957 63.4211 49.9994C63.3231 49.803 63.1826 49.6481 62.9999 49.5345C62.8191 49.421 62.6056 49.3642 62.3595 49.3642C62.0883 49.3642 61.8536 49.4316 61.6555 49.5663C61.4593 49.6991 61.3083 49.8723 61.2026 50.086C61.0968 50.2996 61.0439 50.5287 61.0439 50.7731V51.1658C61.0439 51.5007 61.1016 51.7846 61.217 52.0175C61.3343 52.2485 61.4968 52.4246 61.7046 52.5459C61.9123 52.6652 62.1537 52.7249 62.4287 52.7249C62.6076 52.7249 62.7691 52.6999 62.9134 52.6498C63.0596 52.5978 63.1855 52.5209 63.2913 52.4188C63.3971 52.3149 63.4788 52.1859 63.5365 52.032L64.1943 52.2167C64.1251 52.44 64.0087 52.6363 63.8452 52.8057C63.6818 52.9732 63.4798 53.1041 63.2394 53.1984C62.999 53.2908 62.7287 53.337 62.4287 53.337Z" fill="#C4EF17"/>
<path d="M0 40.9903V27.2655H1.66075V39.516H8.03587V40.9903H0Z" fill="#C4EF17"/>
<path d="M14.5717 41.2048C13.6431 41.2048 12.8284 40.9836 12.1275 40.5413C11.431 40.099 10.8864 39.4802 10.4935 38.685C10.1051 37.8897 9.91091 36.9605 9.91091 35.8971C9.91091 34.8249 10.1051 33.8889 10.4935 33.0892C10.8864 32.2894 11.431 31.6684 12.1275 31.2261C12.8284 30.7838 13.6431 30.5627 14.5717 30.5627C15.5003 30.5627 16.3128 30.7838 17.0093 31.2261C17.7102 31.6684 18.2548 32.2894 18.6432 33.0892C19.0361 33.8889 19.2325 34.8249 19.2325 35.8971C19.2325 36.9605 19.0361 37.8897 18.6432 38.685C18.2548 39.4802 17.7102 40.099 17.0093 40.5413C16.3128 40.9836 15.5003 41.2048 14.5717 41.2048ZM14.5717 39.7841C15.2771 39.7841 15.8575 39.6031 16.3128 39.2412C16.7682 38.8793 17.1053 38.4035 17.324 37.8138C17.5428 37.224 17.6521 36.5852 17.6521 35.8971C17.6521 35.2091 17.5428 34.568 17.324 33.9738C17.1053 33.3796 16.7682 32.8993 16.3128 32.5329C15.8575 32.1666 15.2771 31.9834 14.5717 31.9834C13.8663 31.9834 13.286 32.1666 12.8306 32.5329C12.3752 32.8993 12.0382 33.3796 11.8194 33.9738C11.6007 34.568 11.4913 35.2091 11.4913 35.8971C11.4913 36.5852 11.6007 37.224 11.8194 37.8138C12.0382 38.4035 12.3752 38.8793 12.8306 39.2412C13.286 39.6031 13.8663 39.7841 14.5717 39.7841Z" fill="#C4EF17"/>
<path d="M25.7968 45.0649C25.0334 45.0649 24.3772 44.9666 23.828 44.77C23.2789 44.5779 22.8213 44.3233 22.4552 44.0061C22.0936 43.6933 21.8057 43.3582 21.5914 43.0008L22.8503 42.1162C22.9932 42.3039 23.174 42.5183 23.3928 42.7596C23.6115 43.0053 23.9106 43.2175 24.2901 43.3962C24.674 43.5794 25.1763 43.671 25.7968 43.671C26.6272 43.671 27.3125 43.4699 27.8527 43.0678C28.3929 42.6657 28.663 42.0358 28.663 41.178V39.0871H28.529C28.413 39.2747 28.2478 39.5071 28.0335 39.7841C27.8237 40.0566 27.5201 40.3001 27.1227 40.5145C26.7299 40.7245 26.1986 40.8295 25.529 40.8295C24.6986 40.8295 23.953 40.6329 23.2923 40.2398C22.6361 39.8466 22.116 39.2747 21.732 38.5242C21.3525 37.7736 21.1628 36.8622 21.1628 35.7899C21.1628 34.7355 21.3481 33.8174 21.7186 33.0355C22.0892 32.2492 22.6048 31.6416 23.2655 31.2127C23.9263 30.7793 24.6897 30.5627 25.5558 30.5627C26.2254 30.5627 26.7567 30.6744 27.1495 30.8977C27.5469 31.1167 27.8504 31.3669 28.0603 31.6483C28.2746 31.9253 28.4397 32.1532 28.5558 32.3319H28.7165V30.6967H30.2433V41.2852C30.2433 42.1698 30.0425 42.8891 29.6407 43.4431C29.2433 44.0016 28.7076 44.4104 28.0335 44.6695C27.3638 44.9331 26.6183 45.0649 25.7968 45.0649ZM25.7433 39.4088C26.3772 39.4088 26.9129 39.2636 27.3504 38.9732C27.7879 38.6828 28.1205 38.265 28.3482 37.72C28.5759 37.1749 28.6897 36.5226 28.6897 35.7631C28.6897 35.0215 28.5781 34.3669 28.3549 33.7995C28.1317 33.2321 27.8013 32.7876 27.3638 32.4659C26.9263 32.1442 26.3861 31.9834 25.7433 31.9834C25.0736 31.9834 24.5156 32.1532 24.0691 32.4927C23.6271 32.8323 23.2945 33.288 23.0713 33.8598C22.8526 34.4317 22.7432 35.0661 22.7432 35.7631C22.7432 36.4779 22.8548 37.1101 23.078 37.6597C23.3057 38.2047 23.6405 38.6336 24.0825 38.9464C24.5289 39.2546 25.0825 39.4088 25.7433 39.4088Z" fill="#C4EF17"/>
<path d="M37.3149 41.2048C36.3863 41.2048 35.5716 40.9836 34.8707 40.5413C34.1742 40.099 33.6296 39.4802 33.2367 38.685C32.8483 37.8897 32.6541 36.9605 32.6541 35.8971C32.6541 34.8249 32.8483 33.8889 33.2367 33.0892C33.6296 32.2894 34.1742 31.6684 34.8707 31.2261C35.5716 30.7838 36.3863 30.5627 37.3149 30.5627C38.2435 30.5627 39.056 30.7838 39.7525 31.2261C40.4534 31.6684 40.998 32.2894 41.3864 33.0892C41.7793 33.8889 41.9757 34.8249 41.9757 35.8971C41.9757 36.9605 41.7793 37.8897 41.3864 38.685C40.998 39.4802 40.4534 40.099 39.7525 40.5413C39.056 40.9836 38.2435 41.2048 37.3149 41.2048ZM37.3149 39.7841C38.0203 39.7841 38.6007 39.6031 39.056 39.2412C39.5114 38.8793 39.8484 38.4035 40.0672 37.8138C40.286 37.224 40.3953 36.5852 40.3953 35.8971C40.3953 35.2091 40.286 34.568 40.0672 33.9738C39.8484 33.3796 39.5114 32.8993 39.056 32.5329C38.6007 32.1666 38.0203 31.9834 37.3149 31.9834C36.6095 31.9834 36.0292 32.1666 35.5738 32.5329C35.1184 32.8993 34.7814 33.3796 34.5626 33.9738C34.3439 34.568 34.2345 35.2091 34.2345 35.8971C34.2345 36.5852 34.3439 37.224 34.5626 37.8138C34.7814 38.4035 35.1184 38.8793 35.5738 39.2412C36.0292 39.6031 36.6095 39.7841 37.3149 39.7841Z" fill="#C4EF17"/>
<path d="M43.0974 28.7398V27.2655H53.3833V28.7398H49.0707V40.9903H47.41V28.7398H43.0974Z" fill="#C4EF17"/>
<path d="M58.5531 41.2048C57.562 41.2048 56.707 40.9859 55.9883 40.548C55.274 40.1057 54.7226 39.4892 54.3342 38.6984C53.9503 37.9031 53.7583 36.9783 53.7583 35.9239C53.7583 34.8696 53.9503 33.9403 54.3342 33.1361C54.7226 32.3274 55.2628 31.6975 55.9548 31.2462C56.6512 30.7905 57.4638 30.5627 58.3923 30.5627C58.9281 30.5627 59.4571 30.652 59.9794 30.8307C60.5018 31.0094 60.9772 31.2998 61.4058 31.7019C61.8344 32.0996 62.1759 32.6268 62.4304 33.2835C62.6848 33.9403 62.8121 34.7489 62.8121 35.7095V36.3796H54.8833V35.0125H61.2049C61.2049 34.4317 61.0888 33.9135 60.8567 33.4578C60.629 33.002 60.3031 32.6424 59.879 32.3788C59.4593 32.1152 58.9638 31.9834 58.3923 31.9834C57.7629 31.9834 57.2182 32.1398 56.7584 32.4525C56.303 32.7608 55.9526 33.1629 55.707 33.6588C55.4615 34.1547 55.3387 34.6864 55.3387 35.2538V36.1652C55.3387 36.9426 55.4726 37.6016 55.7405 38.1422C56.0128 38.6783 56.3901 39.0871 56.8722 39.3686C57.3544 39.6456 57.9147 39.7841 58.5531 39.7841C58.9682 39.7841 59.3433 39.726 59.6781 39.6098C60.0174 39.4892 60.3098 39.3105 60.5553 39.0737C60.8009 38.8324 60.9906 38.5331 61.1245 38.1757L62.6514 38.6046C62.4906 39.1228 62.2205 39.5785 61.8411 39.9717C61.4616 40.3604 60.9928 40.6642 60.4348 40.8831C59.8767 41.0976 59.2495 41.2048 58.5531 41.2048Z" fill="#C4EF17"/>
<path d="M69.3948 41.2048C68.4305 41.2048 67.6001 40.9769 66.9037 40.5212C66.2072 40.0655 65.6715 39.4378 65.2965 38.6381C64.9215 37.8384 64.734 36.9247 64.734 35.8971C64.734 34.8517 64.926 33.9291 65.3099 33.1294C65.6983 32.3252 66.2385 31.6975 66.9305 31.2462C67.6269 30.7905 68.4394 30.5627 69.368 30.5627C70.0912 30.5627 70.743 30.6967 71.3234 30.9648C71.9038 31.2328 72.3792 31.6081 72.7498 32.0906C73.1203 32.5731 73.3502 33.1361 73.4395 33.7794H71.8591C71.7386 33.3103 71.4707 32.8948 71.0555 32.5329C70.6448 32.1666 70.0912 31.9834 69.3948 31.9834C68.7787 31.9834 68.2385 32.1442 67.7742 32.4659C67.3144 32.7831 66.955 33.2321 66.6961 33.8129C66.4416 34.3893 66.3144 35.0661 66.3144 35.8435C66.3144 36.6388 66.4394 37.3313 66.6894 37.921C66.9439 38.5108 67.301 38.9687 67.7608 39.2948C68.2251 39.621 68.7698 39.7841 69.3948 39.7841C69.8055 39.7841 70.1783 39.7126 70.5131 39.5696C70.8479 39.4266 71.1314 39.2211 71.3636 38.9531C71.5957 38.685 71.7609 38.3633 71.8591 37.988H73.4395C73.3502 38.5956 73.1292 39.1429 72.7766 39.6299C72.4283 40.1124 71.9663 40.4967 71.3904 40.7826C70.8189 41.0641 70.1537 41.2048 69.3948 41.2048Z" fill="#C4EF17"/>
<path d="M77.3302 34.7981V40.9903H75.7498V27.2655H77.3302V32.3051H77.4642C77.7052 31.7734 78.0668 31.3512 78.549 31.0385C79.0356 30.7213 79.6829 30.5627 80.491 30.5627C81.1919 30.5627 81.8058 30.7034 82.3326 30.9849C82.8593 31.2619 83.2678 31.6885 83.558 32.2649C83.8527 32.8367 84 33.565 84 34.4496V40.9903H82.4196V34.5568C82.4196 33.7392 82.2076 33.107 81.7834 32.6603C81.3638 32.209 80.7812 31.9834 80.0356 31.9834C79.5178 31.9834 79.0535 32.0929 78.6427 32.3118C78.2365 32.5307 77.9151 32.8501 77.6784 33.2701C77.4463 33.6901 77.3302 34.1994 77.3302 34.7981Z" fill="#C4EF17"/>
<path d="M44.1604 17.9427L47.3748 19.7998C48.3635 20.3708 48.702 21.6365 48.1314 22.6259C47.5609 23.6153 46.2961 23.9541 45.3075 23.3831L42.093 21.526C41.1044 20.955 40.7658 19.6893 41.3364 18.6999C41.907 17.7105 43.1717 17.3717 44.1604 17.9427Z" fill="#C4EF17"/>
<path d="M38.1069 7.01792L50.588 14.2299C51.5766 14.8009 51.9152 16.0666 51.3446 17.056C50.774 18.0454 49.5093 18.3848 48.5206 17.8131L36.0388 10.6019C35.0502 10.0308 34.7117 8.76516 35.2822 7.77577C35.8535 6.78571 37.1182 6.44692 38.1069 7.01792Z" fill="#C4EF17"/>
<path d="M39.2947 0.277675L49.4337 6.13577C50.4223 6.70678 50.7615 7.97248 50.1903 8.96188C49.6197 9.95128 48.3549 10.29 47.3663 9.71904L37.2273 3.86094C36.2387 3.28993 35.9001 2.02425 36.4707 1.03485C37.0413 0.0454572 38.3054 -0.293991 39.2947 0.277675Z" fill="#C4EF17"/>
<path d="M39.2947 0.277675C38.3061 -0.293333 37.042 0.0454572 36.4707 1.03485C35.9001 2.02425 36.2387 3.28928 37.2273 3.86094L42.2968 6.79031L44.3642 3.20704L39.2947 0.277675Z" fill="#C4EF17"/>
<path d="M44.3642 3.20638C45.3528 3.77739 45.6914 5.04309 45.1208 6.03249C44.5502 7.02189 43.2855 7.36132 42.2968 6.79031C41.3082 6.2193 40.969 4.95295 41.5402 3.96356C42.1108 2.97416 43.3755 2.63537 44.3642 3.20638Z" fill="#C4EF17"/>
</svg>
