<svg width="92" height="55" viewBox="0 0 92 55" fill="none" xmlns="http://www.w3.org/2000/svg">
<path d="M5.46518 31.6334V33.0027H0V31.6334H5.46518ZM1.59287 29.1139H3.21319V39.1371C3.21319 39.5935 3.27956 39.9358 3.4123 40.164C3.54962 40.3877 3.72355 40.5383 3.9341 40.6159C4.14923 40.6889 4.3758 40.7254 4.61382 40.7254C4.79233 40.7254 4.9388 40.7163 5.05323 40.6981C5.16766 40.6752 5.2592 40.657 5.32786 40.6433L5.65742 42.0947C5.54757 42.1358 5.39423 42.1769 5.19741 42.218C5.00059 42.2636 4.75113 42.2864 4.44904 42.2864C3.99132 42.2864 3.54275 42.1883 3.10334 41.992C2.66851 41.7958 2.30691 41.4968 2.01854 41.0951C1.73476 40.6935 1.59287 40.1869 1.59287 39.5752V29.1139Z" fill="#515151"/>
<path d="M12.2108 42.3686C11.1947 42.3686 10.3182 42.1449 9.58122 41.6976C8.84887 41.2458 8.28359 40.6159 7.88537 39.808C7.49173 38.9956 7.29491 38.0508 7.29491 36.9736C7.29491 35.8964 7.49173 34.9471 7.88537 34.1255C8.28359 33.2993 8.83743 32.6558 9.54689 32.1948C10.2609 31.7292 11.094 31.4965 12.046 31.4965C12.5953 31.4965 13.1377 31.5877 13.6732 31.7703C14.2088 31.9529 14.6962 32.2496 15.1357 32.6603C15.5751 33.0666 15.9252 33.6052 16.1861 34.2761C16.447 34.9471 16.5775 35.7732 16.5775 36.7545V37.4392H8.44837V36.0425H14.9297C14.9297 35.4491 14.8107 34.9197 14.5727 34.4541C14.3392 33.9886 14.0051 33.6211 13.5703 33.3518C13.14 33.0825 12.6319 32.9479 12.046 32.9479C11.4007 32.9479 10.8422 33.1076 10.3708 33.4271C9.90392 33.7421 9.54461 34.1529 9.29286 34.6595C9.04111 35.1661 8.91524 35.7093 8.91524 36.289V37.2201C8.91524 38.0143 9.05256 38.6875 9.32719 39.2398C9.6064 39.7875 9.99317 40.2051 10.4875 40.4927C10.9818 40.7756 11.5563 40.9171 12.2108 40.9171C12.6365 40.9171 13.021 40.8578 13.3643 40.7391C13.7121 40.6159 14.012 40.4333 14.2637 40.1914C14.5154 39.9449 14.71 39.6391 14.8473 39.274L16.4127 39.7122C16.2479 40.2416 15.971 40.7072 15.5819 41.1088C15.1929 41.5059 14.7123 41.8163 14.1401 42.04C13.568 42.259 12.9249 42.3686 12.2108 42.3686Z" fill="#515151"/>
<path d="M23.3266 42.3686C22.3379 42.3686 21.4865 42.1358 20.7725 41.6702C20.0584 41.2047 19.5092 40.5634 19.1247 39.7464C18.7402 38.9294 18.548 37.996 18.548 36.9462C18.548 35.8782 18.7448 34.9356 19.1384 34.1186C19.5366 33.2971 20.0905 32.6558 20.7999 32.1948C21.514 31.7292 22.347 31.4965 23.2991 31.4965C24.0406 31.4965 24.7089 31.6334 25.3039 31.9072C25.8989 32.1811 26.3864 32.5645 26.7663 33.0574C27.1462 33.5504 27.382 34.1255 27.4735 34.7827H25.8532C25.7296 34.3035 25.455 33.879 25.0293 33.5093C24.6082 33.135 24.0406 32.9479 23.3266 32.9479C22.6949 32.9479 22.1411 33.1122 21.665 33.4408C21.1936 33.7649 20.8251 34.2236 20.5596 34.817C20.2987 35.4058 20.1683 36.0973 20.1683 36.8914C20.1683 37.7039 20.2964 38.4113 20.5528 39.0138C20.8137 39.6163 21.1798 40.0842 21.6513 40.4173C22.1273 40.7505 22.6857 40.9171 23.3266 40.9171C23.7477 40.9171 24.1299 40.8441 24.4731 40.6981C24.8164 40.552 25.1071 40.342 25.3451 40.0682C25.5831 39.7943 25.7525 39.4657 25.8532 39.0823H27.4735C27.382 39.703 27.1554 40.2622 26.7938 40.7597C26.4368 41.2526 25.963 41.6451 25.3726 41.9373C24.7867 42.2248 24.1047 42.3686 23.3266 42.3686Z" fill="#515151"/>
<path d="M31.4625 35.8234V42.1495H29.8422V28.128H31.4625V33.2765H31.5998C31.847 32.7334 32.2178 32.302 32.7121 31.9825C33.211 31.6585 33.8747 31.4965 34.7032 31.4965C35.4218 31.4965 36.0512 31.6402 36.5913 31.9278C37.1314 32.2108 37.5502 32.6467 37.8477 33.2354C38.1498 33.8197 38.3009 34.5637 38.3009 35.4674V42.1495H36.6805V35.5769C36.6805 34.7417 36.4631 34.0958 36.0283 33.6394C35.598 33.1784 35.0007 32.9479 34.2363 32.9479C33.7054 32.9479 33.2293 33.0597 32.8082 33.2834C32.3917 33.507 32.0621 33.8334 31.8195 34.2624C31.5815 34.6915 31.4625 35.2118 31.4625 35.8234Z" fill="#515151"/>
<path d="M45.522 46.3121C44.7393 46.3121 44.0664 46.2117 43.5034 46.0109C42.9404 45.8146 42.4713 45.5545 42.0959 45.2304C41.7252 44.9109 41.43 44.5686 41.2102 44.2034L42.501 43.2997C42.6475 43.4914 42.8329 43.7105 43.0571 43.957C43.2814 44.208 43.5881 44.4248 43.9772 44.6074C44.3708 44.7945 44.8857 44.8881 45.522 44.8881C46.3733 44.8881 47.0759 44.6827 47.6298 44.2719C48.1836 43.8611 48.4605 43.2175 48.4605 42.3412V40.2051H48.3232C48.2042 40.3968 48.0349 40.6342 47.8151 40.9171C47.6 41.1956 47.2888 41.4443 46.8814 41.6634C46.4786 41.8779 45.9339 41.9852 45.2473 41.9852C44.396 41.9852 43.6316 41.7844 42.9542 41.3827C42.2813 40.981 41.7481 40.3968 41.3544 39.63C40.9654 38.8632 40.7708 37.9321 40.7708 36.8367C40.7708 35.7595 40.9608 34.8215 41.3407 34.0228C41.7206 33.2195 42.2493 32.5987 42.9267 32.1606C43.6041 31.7178 44.3868 31.4965 45.2748 31.4965C45.9614 31.4965 46.5061 31.6106 46.9089 31.8388C47.3162 32.0624 47.6275 32.318 47.8426 32.6056C48.0623 32.8886 48.2317 33.1213 48.3507 33.3039H48.5155V31.6334H50.0809V42.4507C50.0809 43.3545 49.8749 44.0893 49.4629 44.6553C49.0556 45.2258 48.5063 45.6435 47.8151 45.9082C47.1286 46.1775 46.3642 46.3121 45.522 46.3121ZM45.467 40.5337C46.117 40.5337 46.6663 40.3854 47.1148 40.0887C47.5634 39.792 47.9044 39.3653 48.1378 38.8084C48.3713 38.2516 48.488 37.5852 48.488 36.8093C48.488 36.0516 48.3736 35.3829 48.1447 34.8033C47.9158 34.2236 47.5771 33.7695 47.1286 33.4408C46.68 33.1122 46.1262 32.9479 45.467 32.9479C44.7805 32.9479 44.2083 33.1213 43.7506 33.4682C43.2974 33.8151 42.9564 34.2807 42.7276 34.8649C42.5033 35.4491 42.3912 36.0973 42.3912 36.8093C42.3912 37.5396 42.5056 38.1854 42.7345 38.7468C42.9679 39.3037 43.3112 39.7418 43.7643 40.0613C44.222 40.3763 44.7896 40.5337 45.467 40.5337Z" fill="#515151"/>
<path d="M53.0469 42.1495V31.6334H54.6123V33.2218H54.7221C54.9144 32.7014 55.2622 32.2792 55.7657 31.9552C56.2692 31.6311 56.8368 31.4691 57.4685 31.4691C57.5875 31.4691 57.7362 31.4714 57.9147 31.4759C58.0932 31.4805 58.2283 31.4873 58.3198 31.4965V33.1396C58.2649 33.1259 58.139 33.1054 57.9422 33.078C57.75 33.046 57.5463 33.0301 57.3311 33.0301C56.8185 33.0301 56.3608 33.1373 55.958 33.3518C55.5598 33.5618 55.2439 33.8539 55.0105 34.2282C54.7816 34.5979 54.6672 35.0201 54.6672 35.4948V42.1495H53.0469Z" fill="#515151"/>
<path d="M64.2038 42.3686C63.2518 42.3686 62.4164 42.1426 61.6978 41.6908C60.9837 41.2389 60.4253 40.6068 60.0225 39.7943C59.6243 38.9819 59.4252 38.0325 59.4252 36.9462C59.4252 35.8508 59.6243 34.8946 60.0225 34.0776C60.4253 33.2606 60.9837 32.6261 61.6978 32.1743C62.4164 31.7224 63.2518 31.4965 64.2038 31.4965C65.1559 31.4965 65.9889 31.7224 66.703 32.1743C67.4216 32.6261 67.98 33.2606 68.3782 34.0776C68.781 34.8946 68.9824 35.8508 68.9824 36.9462C68.9824 38.0325 68.781 38.9819 68.3782 39.7943C67.98 40.6068 67.4216 41.2389 66.703 41.6908C65.9889 42.1426 65.1559 42.3686 64.2038 42.3686ZM64.2038 40.9171C64.927 40.9171 65.522 40.7323 65.9889 40.3626C66.4558 39.9929 66.8014 39.5068 67.0257 38.9043C67.2499 38.3018 67.3621 37.6491 67.3621 36.9462C67.3621 36.2433 67.2499 35.5883 67.0257 34.9813C66.8014 34.3742 66.4558 33.8836 65.9889 33.5093C65.522 33.135 64.927 32.9479 64.2038 32.9479C63.4806 32.9479 62.8856 33.135 62.4187 33.5093C61.9518 33.8836 61.6062 34.3742 61.382 34.9813C61.1577 35.5883 61.0455 36.2433 61.0455 36.9462C61.0455 37.6491 61.1577 38.3018 61.382 38.9043C61.6062 39.5068 61.9518 39.9929 62.4187 40.3626C62.8856 40.7323 63.4806 40.9171 64.2038 40.9171Z" fill="#515151"/>
<path d="M78.1019 37.8499V31.6334H79.7222V42.1495H78.1019V40.3694H77.992C77.7449 40.9034 77.3604 41.3576 76.8386 41.7319C76.3168 42.1016 75.6577 42.2864 74.8612 42.2864C74.2021 42.2864 73.6162 42.1427 73.1036 41.8551C72.5909 41.563 72.1882 41.1248 71.8952 40.5406C71.6023 39.9518 71.4558 39.2101 71.4558 38.3155V31.6334H73.0761V38.206C73.0761 38.9728 73.2913 39.5844 73.7215 40.0408C74.1564 40.4972 74.7102 40.7254 75.383 40.7254C75.7858 40.7254 76.1955 40.6227 76.612 40.4173C77.0331 40.212 77.3856 39.897 77.6694 39.4725C77.9577 39.0481 78.1019 38.5072 78.1019 37.8499Z" fill="#515151"/>
<path d="M82.69 46.093V31.6334H84.2554V33.3039H84.4476C84.5666 33.1213 84.7314 32.8886 84.942 32.6056C85.1571 32.318 85.4638 32.0624 85.862 31.8388C86.2648 31.6106 86.8095 31.4965 87.496 31.4965C88.384 31.4965 89.1667 31.7178 89.8441 32.1606C90.5216 32.6033 91.0502 33.2309 91.4301 34.0433C91.81 34.8558 92 35.8143 92 36.9188C92 38.0325 91.81 38.9979 91.4301 39.8149C91.0502 40.6273 90.5239 41.2572 89.851 41.7045C89.1782 42.1472 88.4023 42.3686 87.5235 42.3686C86.8461 42.3686 86.3037 42.2568 85.8963 42.0331C85.4889 41.8049 85.1754 41.547 84.9557 41.2595C84.736 40.9673 84.5666 40.7254 84.4476 40.5337H84.3103V46.093H82.69ZM84.2828 36.8914C84.2828 37.6856 84.3996 38.3862 84.633 38.9933C84.8664 39.5958 85.2074 40.0682 85.656 40.4105C86.1046 40.7483 86.6538 40.9171 87.3038 40.9171C87.9812 40.9171 88.5465 40.7391 88.9996 40.3831C89.4574 40.0225 89.8006 39.5387 90.0295 38.9317C90.2629 38.3201 90.3797 37.64 90.3797 36.8914C90.3797 36.152 90.2652 35.4856 90.0364 34.8923C89.8121 34.2944 89.4711 33.822 89.0134 33.4751C88.5602 33.1236 87.9904 32.9479 87.3038 32.9479C86.6447 32.9479 86.0908 33.1145 85.6423 33.4477C85.1937 33.7763 84.855 34.2373 84.6261 34.8307C84.3973 35.4195 84.2828 36.1064 84.2828 36.8914Z" fill="#515151"/>
<path d="M17.8901 53.301C17.4641 53.301 17.0973 53.2007 16.7897 53.0002C16.4821 52.7996 16.2454 52.5233 16.0798 52.1713C15.9141 51.8194 15.8313 51.4172 15.8313 50.965C15.8313 50.5048 15.9161 50.0988 16.0857 49.7468C16.2573 49.3928 16.4959 49.1165 16.8015 48.9179C17.1092 48.7174 17.4681 48.6171 17.8782 48.6171C18.1977 48.6171 18.4856 48.6761 18.7419 48.794C18.9983 48.912 19.2083 49.0772 19.372 49.2896C19.5357 49.502 19.6372 49.7497 19.6767 50.0329H18.9786C18.9253 49.8264 18.807 49.6435 18.6236 49.4843C18.4422 49.323 18.1977 49.2424 17.8901 49.2424C17.6179 49.2424 17.3793 49.3132 17.1742 49.4548C16.9711 49.5944 16.8124 49.792 16.698 50.0476C16.5856 50.3013 16.5294 50.5992 16.5294 50.9414C16.5294 51.2914 16.5846 51.5962 16.695 51.8557C16.8074 52.1153 16.9652 52.3169 17.1683 52.4604C17.3734 52.6039 17.614 52.6757 17.8901 52.6757C18.0715 52.6757 18.2361 52.6443 18.384 52.5813C18.5319 52.5184 18.6571 52.428 18.7597 52.31C18.8622 52.192 18.9352 52.0504 18.9786 51.8852H19.6767C19.6372 52.1527 19.5396 52.3935 19.3838 52.6079C19.23 52.8202 19.0259 52.9894 18.7715 53.1152C18.5191 53.2391 18.2253 53.301 17.8901 53.301Z" fill="#515151"/>
<path d="M22.5429 53.301C22.1327 53.301 21.7728 53.2037 21.4632 53.009C21.1556 52.8144 20.915 52.542 20.7415 52.192C20.57 51.842 20.4842 51.433 20.4842 50.965C20.4842 50.493 20.57 50.0811 20.7415 49.7291C20.915 49.3771 21.1556 49.1038 21.4632 48.9091C21.7728 48.7144 22.1327 48.6171 22.5429 48.6171C22.9531 48.6171 23.312 48.7144 23.6196 48.9091C23.9292 49.1038 24.1698 49.3771 24.3413 49.7291C24.5149 50.0811 24.6016 50.493 24.6016 50.965C24.6016 51.433 24.5149 51.842 24.3413 52.192C24.1698 52.542 23.9292 52.8144 23.6196 53.009C23.312 53.2037 22.9531 53.301 22.5429 53.301ZM22.5429 52.6757C22.8545 52.6757 23.1108 52.5961 23.312 52.4368C23.5131 52.2775 23.662 52.0681 23.7586 51.8085C23.8552 51.549 23.9036 51.2678 23.9036 50.965C23.9036 50.6621 23.8552 50.38 23.7586 50.1184C23.662 49.8569 23.5131 49.6455 23.312 49.4843C23.1108 49.323 22.8545 49.2424 22.5429 49.2424C22.2313 49.2424 21.975 49.323 21.7738 49.4843C21.5727 49.6455 21.4238 49.8569 21.3272 50.1184C21.2306 50.38 21.1822 50.6621 21.1822 50.965C21.1822 51.2678 21.2306 51.549 21.3272 51.8085C21.4238 52.0681 21.5727 52.2775 21.7738 52.4368C21.975 52.5961 22.2313 52.6757 22.5429 52.6757Z" fill="#515151"/>
<path d="M25.6672 53.2066V48.6761H26.3416V49.384H26.4008C26.4954 49.1421 26.6483 48.9543 26.8593 48.8206C27.0703 48.6849 27.3237 48.6171 27.6195 48.6171C27.9192 48.6171 28.1687 48.6849 28.3678 48.8206C28.569 48.9543 28.7257 49.1421 28.8381 49.384H28.8855C29.0018 49.15 29.1763 48.9641 29.409 48.8265C29.6417 48.6869 29.9207 48.6171 30.2461 48.6171C30.6523 48.6171 30.9846 48.7439 31.2429 48.9976C31.5013 49.2493 31.6304 49.6416 31.6304 50.1745V53.2066H30.9324V50.1745C30.9324 49.8402 30.8407 49.6013 30.6573 49.4577C30.4739 49.3142 30.258 49.2424 30.0095 49.2424C29.69 49.2424 29.4425 49.3387 29.267 49.5314C29.0915 49.7222 29.0038 49.9641 29.0038 50.257V53.2066H28.2939V50.1037C28.2939 49.8461 28.2101 49.6386 28.0425 49.4813C27.8748 49.322 27.6589 49.2424 27.3947 49.2424C27.2132 49.2424 27.0437 49.2906 26.8859 49.3869C26.7301 49.4833 26.6039 49.617 26.5073 49.7881C26.4126 49.9572 26.3653 50.1528 26.3653 50.375V53.2066H25.6672Z" fill="#515151"/>
<path d="M32.9068 54.9056V48.6761H33.5812V49.3958H33.664C33.7153 49.3171 33.7863 49.2168 33.877 49.0949C33.9697 48.971 34.1018 48.8609 34.2734 48.7646C34.4469 48.6662 34.6816 48.6171 34.9774 48.6171C35.3599 48.6171 35.6971 48.7124 35.989 48.9032C36.2808 49.0939 36.5086 49.3643 36.6723 49.7143C36.8359 50.0643 36.9178 50.4773 36.9178 50.9532C36.9178 51.433 36.8359 51.8488 36.6723 52.2008C36.5086 52.5509 36.2818 52.8222 35.9919 53.0149C35.702 53.2057 35.3678 53.301 34.9892 53.301C34.6973 53.301 34.4637 53.2529 34.2882 53.1565C34.1126 53.0582 33.9776 52.9471 33.8829 52.8232C33.7883 52.6973 33.7153 52.5931 33.664 52.5105H33.6049V54.9056H32.9068ZM33.593 50.9414C33.593 51.2835 33.6433 51.5854 33.7439 51.8469C33.8445 52.1064 33.9914 52.31 34.1846 52.4574C34.3779 52.603 34.6145 52.6757 34.8945 52.6757C35.1864 52.6757 35.4299 52.599 35.6251 52.4457C35.8223 52.2903 35.9702 52.0819 36.0688 51.8203C36.1694 51.5568 36.2197 51.2638 36.2197 50.9414C36.2197 50.6228 36.1704 50.3357 36.0718 50.0801C35.9752 49.8225 35.8283 49.619 35.6311 49.4695C35.4358 49.3181 35.1903 49.2424 34.8945 49.2424C34.6106 49.2424 34.372 49.3142 34.1787 49.4577C33.9855 49.5993 33.8395 49.7979 33.7409 50.0535C33.6423 50.3072 33.593 50.6031 33.593 50.9414Z" fill="#515151"/>
<path d="M39.3196 53.3128C39.0317 53.3128 38.7704 53.2588 38.5358 53.1506C38.3011 53.0405 38.1147 52.8822 37.9767 52.6757C37.8387 52.4673 37.7696 52.2156 37.7696 51.9206C37.7696 51.6611 37.8209 51.4507 37.9235 51.2894C38.026 51.1262 38.1631 50.9984 38.3346 50.906C38.5062 50.8135 38.6955 50.7447 38.9025 50.6995C39.1116 50.6523 39.3216 50.6149 39.5326 50.5874C39.8087 50.552 40.0325 50.5255 40.204 50.5078C40.3776 50.4881 40.5038 50.4557 40.5827 50.4104C40.6635 50.3652 40.7039 50.2865 40.7039 50.1745V50.1509C40.7039 49.8598 40.6241 49.6337 40.4643 49.4725C40.3066 49.3112 40.067 49.2306 39.7456 49.2306C39.4123 49.2306 39.151 49.3033 38.9617 49.4489C38.7724 49.5944 38.6393 49.7497 38.5624 49.9149L37.8998 49.6789C38.0181 49.4036 38.1759 49.1893 38.3731 49.0359C38.5722 48.8806 38.7892 48.7724 39.0238 48.7115C39.2605 48.6485 39.4931 48.6171 39.7219 48.6171C39.8678 48.6171 40.0354 48.6348 40.2247 48.6702C40.416 48.7036 40.6004 48.7734 40.7779 48.8796C40.9573 48.9858 41.1062 49.146 41.2245 49.3604C41.3428 49.5747 41.402 49.8618 41.402 50.2217V53.2066H40.7039V52.5931H40.6684C40.6211 52.6915 40.5422 52.7967 40.4318 52.9087C40.3214 53.0208 40.1745 53.1162 39.9911 53.1948C39.8077 53.2735 39.5839 53.3128 39.3196 53.3128ZM39.4261 52.6875C39.7022 52.6875 39.9349 52.6334 40.1242 52.5253C40.3155 52.4171 40.4594 52.2775 40.556 52.1064C40.6546 51.9354 40.7039 51.7554 40.7039 51.5667V50.9296C40.6743 50.965 40.6093 50.9974 40.5087 51.0269C40.4101 51.0544 40.2957 51.079 40.1656 51.1006C40.0374 51.1203 39.9122 51.138 39.7899 51.1537C39.6696 51.1675 39.572 51.1793 39.4971 51.1891C39.3157 51.2127 39.1461 51.2511 38.9883 51.3042C38.8325 51.3553 38.7063 51.433 38.6097 51.5372C38.515 51.6394 38.4677 51.779 38.4677 51.956C38.4677 52.1979 38.5574 52.3808 38.7369 52.5046C38.9183 52.6266 39.148 52.6875 39.4261 52.6875Z" fill="#515151"/>
<path d="M43.3742 50.4812V53.2066H42.6761V48.6761H43.3506V49.384H43.4097C43.5162 49.1539 43.6779 48.9691 43.8948 48.8294C44.1117 48.6879 44.3917 48.6171 44.7349 48.6171C45.0425 48.6171 45.3117 48.68 45.5424 48.8058C45.7731 48.9297 45.9526 49.1185 46.0807 49.3722C46.2089 49.6239 46.273 49.9424 46.273 50.3278V53.2066H45.5749V50.375C45.5749 50.0191 45.4822 49.7419 45.2969 49.5432C45.1115 49.3427 44.8571 49.2424 44.5337 49.2424C44.3109 49.2424 44.1117 49.2906 43.9362 49.3869C43.7627 49.4833 43.6256 49.6239 43.5251 49.8087C43.4245 49.9936 43.3742 50.2177 43.3742 50.4812Z" fill="#515151"/>
<path d="M47.8355 54.9056C47.7172 54.9056 47.6117 54.8958 47.519 54.8761C47.4263 54.8584 47.3623 54.8407 47.3268 54.823L47.5042 54.2095C47.6738 54.2528 47.8237 54.2685 47.9538 54.2567C48.084 54.2449 48.1994 54.1869 48.2999 54.0827C48.4025 53.9804 48.4961 53.8143 48.5809 53.5842L48.7111 53.2302L47.031 48.6761H47.7882L49.0424 52.2864H49.0897L50.3439 48.6761H51.1011L49.1725 53.8674C49.0858 54.1014 48.9783 54.295 48.8501 54.4484C48.7219 54.6038 48.573 54.7188 48.4035 54.7935C48.2358 54.8683 48.0465 54.9056 47.8355 54.9056Z" fill="#515151"/>
<path d="M57.5834 49.6907L56.9563 49.8677C56.9169 49.7635 56.8587 49.6622 56.7818 49.5639C56.7069 49.4636 56.6044 49.381 56.4742 49.3161C56.3441 49.2512 56.1774 49.2188 55.9743 49.2188C55.6963 49.2188 55.4646 49.2827 55.2792 49.4105C55.0958 49.5364 55.0041 49.6966 55.0041 49.8913C55.0041 50.0643 55.0672 50.201 55.1934 50.3013C55.3196 50.4016 55.5168 50.4852 55.785 50.552L56.4594 50.7172C56.8656 50.8155 57.1683 50.9659 57.3675 51.1685C57.5667 51.369 57.6663 51.6276 57.6663 51.9442C57.6663 52.2038 57.5913 52.4358 57.4414 52.6403C57.2936 52.8448 57.0865 53.0061 56.8203 53.1241C56.5541 53.242 56.2445 53.301 55.8915 53.301C55.4281 53.301 55.0445 53.2007 54.7408 53.0002C54.4372 52.7996 54.2449 52.5066 54.164 52.1212L54.8266 51.956C54.8897 52.1999 55.009 52.3827 55.1845 52.5046C55.362 52.6266 55.5937 52.6875 55.8797 52.6875C56.205 52.6875 56.4634 52.6187 56.6546 52.481C56.8479 52.3414 56.9445 52.1743 56.9445 51.9796C56.9445 51.8223 56.8893 51.6906 56.7789 51.5844C56.6684 51.4762 56.4989 51.3956 56.2701 51.3425L55.5129 51.1655C55.0968 51.0672 54.7911 50.9148 54.5959 50.7083C54.4027 50.4999 54.306 50.2394 54.306 49.9267C54.306 49.6711 54.378 49.4449 54.522 49.2483C54.6679 49.0516 54.8661 48.8973 55.1165 48.7852C55.3689 48.6731 55.6549 48.6171 55.9743 48.6171C56.4239 48.6171 56.7769 48.7154 57.0333 48.912C57.2916 49.1087 57.475 49.3682 57.5834 49.6907Z" fill="#515151"/>
<path d="M59.4151 47.1659V53.2066H58.7171V47.1659H59.4151Z" fill="#515151"/>
<path d="M62.5395 53.301C62.1293 53.301 61.7694 53.2037 61.4598 53.009C61.1522 52.8144 60.9116 52.542 60.7381 52.192C60.5665 51.842 60.4807 51.433 60.4807 50.965C60.4807 50.493 60.5665 50.0811 60.7381 49.7291C60.9116 49.3771 61.1522 49.1038 61.4598 48.9091C61.7694 48.7144 62.1293 48.6171 62.5395 48.6171C62.9496 48.6171 63.3085 48.7144 63.6162 48.9091C63.9258 49.1038 64.1663 49.3771 64.3379 49.7291C64.5114 50.0811 64.5982 50.493 64.5982 50.965C64.5982 51.433 64.5114 51.842 64.3379 52.192C64.1663 52.542 63.9258 52.8144 63.6162 53.009C63.3085 53.2037 62.9496 53.301 62.5395 53.301ZM62.5395 52.6757C62.851 52.6757 63.1074 52.5961 63.3085 52.4368C63.5097 52.2775 63.6586 52.0681 63.7552 51.8085C63.8518 51.549 63.9001 51.2678 63.9001 50.965C63.9001 50.6621 63.8518 50.38 63.7552 50.1184C63.6586 49.8569 63.5097 49.6455 63.3085 49.4843C63.1074 49.323 62.851 49.2424 62.5395 49.2424C62.2279 49.2424 61.9715 49.323 61.7704 49.4843C61.5693 49.6455 61.4204 49.8569 61.3238 50.1184C61.2271 50.38 61.1788 50.6621 61.1788 50.965C61.1788 51.2678 61.2271 51.549 61.3238 51.8085C61.4204 52.0681 61.5693 52.2775 61.7704 52.4368C61.9715 52.5961 62.2279 52.6757 62.5395 52.6757Z" fill="#515151"/>
<path d="M67.4977 55C67.1605 55 66.8706 54.9567 66.6281 54.8702C66.3855 54.7857 66.1834 54.6736 66.0217 54.534C65.862 54.3963 65.7348 54.2488 65.6401 54.0915L66.1962 53.7022C66.2593 53.7848 66.3392 53.8792 66.4358 53.9853C66.5324 54.0935 66.6646 54.1869 66.8322 54.2656C67.0018 54.3462 67.2236 54.3865 67.4977 54.3865C67.8645 54.3865 68.1672 54.298 68.4058 54.121C68.6444 53.944 68.7637 53.6668 68.7637 53.2892V52.369H68.7046C68.6533 52.4515 68.5803 52.5538 68.4857 52.6757C68.393 52.7957 68.2589 52.9028 68.0834 52.9972C67.9099 53.0896 67.6752 53.1359 67.3794 53.1359C67.0126 53.1359 66.6833 53.0493 66.3914 52.8763C66.1016 52.7032 65.8718 52.4515 65.7022 52.1212C65.5346 51.7908 65.4508 51.3897 65.4508 50.9178C65.4508 50.4537 65.5327 50.0496 65.6963 49.7055C65.86 49.3594 66.0878 49.092 66.3796 48.9032C66.6715 48.7124 67.0087 48.6171 67.3912 48.6171C67.687 48.6171 67.9217 48.6662 68.0952 48.7646C68.2707 48.8609 68.4048 48.971 68.4975 49.0949C68.5922 49.2168 68.6651 49.3171 68.7164 49.3958H68.7874V48.6761H69.4618V53.3364C69.4618 53.7258 69.3731 54.0424 69.1956 54.2862C69.0201 54.532 68.7834 54.7119 68.4857 54.826C68.1899 54.942 67.8606 55 67.4977 55ZM67.474 52.5105C67.7541 52.5105 67.9907 52.4466 68.184 52.3188C68.3772 52.191 68.5241 52.0071 68.6247 51.7672C68.7253 51.5273 68.7755 51.2402 68.7755 50.906C68.7755 50.5795 68.7262 50.2915 68.6276 50.0417C68.5291 49.792 68.3831 49.5963 68.1899 49.4548C67.9966 49.3132 67.758 49.2424 67.474 49.2424C67.1783 49.2424 66.9318 49.3171 66.7346 49.4666C66.5393 49.616 66.3924 49.8166 66.2938 50.0683C66.1972 50.32 66.1489 50.5992 66.1489 50.906C66.1489 51.2206 66.1982 51.4988 66.2968 51.7407C66.3974 51.9806 66.5453 52.1694 66.7405 52.307C66.9377 52.4427 67.1822 52.5105 67.474 52.5105Z" fill="#515151"/>
<path d="M72.0766 53.3128C71.7887 53.3128 71.5274 53.2588 71.2928 53.1506C71.0581 53.0405 70.8717 52.8822 70.7337 52.6757C70.5957 52.4673 70.5267 52.2156 70.5267 51.9206C70.5267 51.6611 70.5779 51.4507 70.6805 51.2894C70.783 51.1262 70.9201 50.9984 71.0916 50.906C71.2632 50.8135 71.4525 50.7447 71.6595 50.6995C71.8686 50.6523 72.0786 50.6149 72.2896 50.5874C72.5657 50.552 72.7895 50.5255 72.961 50.5078C73.1346 50.4881 73.2608 50.4557 73.3397 50.4104C73.4205 50.3652 73.4609 50.2865 73.4609 50.1745V50.1509C73.4609 49.8598 73.3811 49.6337 73.2213 49.4725C73.0636 49.3112 72.824 49.2306 72.5026 49.2306C72.1693 49.2306 71.908 49.3033 71.7187 49.4489C71.5294 49.5944 71.3963 49.7497 71.3194 49.9149L70.6568 49.6789C70.7751 49.4036 70.9329 49.1893 71.1301 49.0359C71.3292 48.8806 71.5462 48.7724 71.7808 48.7115C72.0175 48.6485 72.2501 48.6171 72.4789 48.6171C72.6248 48.6171 72.7924 48.6348 72.9817 48.6702C73.173 48.7036 73.3574 48.7734 73.5349 48.8796C73.7143 48.9858 73.8632 49.146 73.9815 49.3604C74.0998 49.5747 74.159 49.8618 74.159 50.2217V53.2066H73.4609V52.5931H73.4254C73.3781 52.6915 73.2992 52.7967 73.1888 52.9087C73.0784 53.0208 72.9315 53.1162 72.7481 53.1948C72.5647 53.2735 72.3409 53.3128 72.0766 53.3128ZM72.1831 52.6875C72.4592 52.6875 72.6919 52.6334 72.8812 52.5253C73.0725 52.4171 73.2164 52.2775 73.313 52.1064C73.4116 51.9354 73.4609 51.7554 73.4609 51.5667V50.9296C73.4314 50.965 73.3663 50.9974 73.2657 51.0269C73.1671 51.0544 73.0527 51.079 72.9226 51.1006C72.7944 51.1203 72.6692 51.138 72.5469 51.1537C72.4266 51.1675 72.329 51.1793 72.2541 51.1891C72.0727 51.2127 71.9031 51.2511 71.7453 51.3042C71.5895 51.3553 71.4633 51.433 71.3667 51.5372C71.2721 51.6394 71.2247 51.779 71.2247 51.956C71.2247 52.1979 71.3145 52.3808 71.4939 52.5046C71.6753 52.6266 71.9051 52.6875 72.1831 52.6875Z" fill="#515151"/>
<path d="M76.1312 50.4812V53.2066H75.4331V48.6761H76.1075V49.384H76.1667C76.2732 49.1539 76.4349 48.9691 76.6518 48.8294C76.8687 48.6879 77.1487 48.6171 77.4919 48.6171C77.7995 48.6171 78.0687 48.68 78.2994 48.8058C78.5301 48.9297 78.7096 49.1185 78.8377 49.3722C78.9659 49.6239 79.03 49.9424 79.03 50.3278V53.2066H78.3319V50.375C78.3319 50.0191 78.2392 49.7419 78.0539 49.5432C77.8685 49.3427 77.6141 49.2424 77.2907 49.2424C77.0679 49.2424 76.8687 49.2906 76.6932 49.3869C76.5197 49.4833 76.3826 49.6239 76.2821 49.8087C76.1815 49.9936 76.1312 50.2177 76.1312 50.4812Z" fill="#515151"/>
<path d="M47.4867 15.2383H35.8912C33.8552 15.2383 32.2053 13.5924 32.2053 11.5628V0H43.8008C45.8369 0 47.4867 1.64588 47.4867 3.6755V15.2383Z" fill="#515151"/>
<path d="M57.551 25.2749H51.172C49.1366 25.2749 47.486 23.629 47.486 21.5994V15.2383H53.8651C55.9005 15.2383 57.551 16.8842 57.551 18.9138V25.2749Z" fill="#515151"/>
<path d="M39.1653 23.5356H43.3338C44.6642 23.5356 45.7425 22.4603 45.7425 21.1336V16.9769H41.5741C40.2437 16.9769 39.1653 18.0522 39.1653 19.3789V23.5356Z" fill="#515151"/>
<path d="M49.1413 13.5884H53.3098C54.6402 13.5884 55.7185 12.5131 55.7185 11.1864V7.02975H51.55C50.2196 7.02975 49.1413 8.10505 49.1413 9.4317V13.5884Z" fill="#515151"/>
</svg>
