<svg width="83" height="55" viewBox="0 0 83 55" fill="none" xmlns="http://www.w3.org/2000/svg">
<path d="M7.29303 39.7665H4.82982V46.2748H2.47528V39.7665H0V37.7176H7.29303V39.7665Z" fill="#515151"/>
<path d="M14.2603 44.2259V46.2748H8.15061V37.7176H14.1517V39.7665H10.5051V40.9718H13.6204V42.8761H10.5051V44.2259H14.2603Z" fill="#515151"/>
<path d="M14.7546 41.9239C14.7546 41.4016 14.8512 40.8914 15.0444 40.3933C15.2457 39.8871 15.5355 39.4291 15.9138 39.0193C16.2921 38.6095 16.751 38.2841 17.2903 38.043C17.8377 37.7939 18.4535 37.6694 19.1377 37.6694C19.9588 37.6694 20.6752 37.8421 21.287 38.1877C21.8987 38.5251 22.3536 38.9751 22.6514 39.5375L20.8523 40.8151C20.7476 40.5339 20.5947 40.3169 20.3934 40.1643C20.2003 40.0116 19.9869 39.9071 19.7535 39.8509C19.5281 39.7866 19.3067 39.7545 19.0894 39.7545C18.7513 39.7545 18.4575 39.8228 18.208 39.9594C17.9665 40.0879 17.7652 40.2607 17.6042 40.4776C17.4513 40.6946 17.3346 40.9356 17.2541 41.2008C17.1816 41.4659 17.1454 41.7311 17.1454 41.9962C17.1454 42.2935 17.1897 42.5788 17.2782 42.8519C17.3668 43.1251 17.4956 43.3702 17.6646 43.5872C17.8336 43.7961 18.0389 43.9608 18.2804 44.0813C18.5299 44.2018 18.8077 44.2621 19.1135 44.2621C19.3309 44.2621 19.5523 44.2299 19.7776 44.1657C20.003 44.0934 20.2083 43.9809 20.3934 43.8282C20.5786 43.6755 20.7195 43.4706 20.8161 43.2135L22.7359 44.3585C22.5669 44.7763 22.2851 45.1339 21.8907 45.4312C21.4963 45.7285 21.0495 45.9575 20.5504 46.1182C20.0513 46.2708 19.5563 46.3472 19.0652 46.3472C18.4293 46.3472 17.8457 46.2226 17.3144 45.9735C16.7912 45.7164 16.3364 45.3789 15.95 44.9611C15.5717 44.5353 15.2779 44.0612 15.0686 43.5389C14.8593 43.0086 14.7546 42.4703 14.7546 41.9239Z" fill="#515151"/>
<path d="M31.1568 37.7176V46.2748H28.8022V42.9243H25.9285V46.2748H23.574V37.7176H25.9285V40.8753H28.8022V37.7176H31.1568Z" fill="#515151"/>
<path d="M34.9844 42.0685V46.2748H32.6299V37.7176H34.4652L37.9065 42.0685V37.7176H40.261V46.2748H38.3894L34.9844 42.0685Z" fill="#515151"/>
<path d="M45.5968 46.3472C44.9448 46.3472 44.3531 46.2266 43.8219 45.9856C43.2906 45.7365 42.8317 45.4071 42.4454 44.9973C42.067 44.5795 41.7732 44.1134 41.5639 43.5992C41.3627 43.0769 41.2621 42.5386 41.2621 41.9842C41.2621 41.4137 41.3707 40.8713 41.5881 40.3571C41.8054 39.8429 42.1073 39.3849 42.4937 38.9831C42.8881 38.5733 43.3509 38.2519 43.8822 38.0189C44.4216 37.7859 45.0092 37.6694 45.6451 37.6694C46.2971 37.6694 46.8888 37.7939 47.4201 38.043C47.9514 38.2841 48.4062 38.6135 48.7845 39.0313C49.1628 39.4491 49.4526 39.9192 49.6539 40.4415C49.8632 40.9557 49.9678 41.486 49.9678 42.0324C49.9678 42.5948 49.8591 43.1332 49.6418 43.6474C49.4325 44.1617 49.1306 44.6237 48.7362 45.0334C48.3498 45.4352 47.891 45.7566 47.3597 45.9976C46.8284 46.2307 46.2408 46.3472 45.5968 46.3472ZM43.6528 42.0083C43.6528 42.2975 43.6931 42.5788 43.7736 42.8519C43.8541 43.1171 43.9748 43.3582 44.1358 43.5751C44.2968 43.784 44.498 43.9527 44.7395 44.0813C44.9891 44.2018 45.2829 44.2621 45.621 44.2621C45.959 44.2621 46.2529 44.1978 46.5024 44.0692C46.7519 43.9407 46.9532 43.7679 47.1061 43.551C47.2671 43.326 47.3838 43.0809 47.4563 42.8158C47.5368 42.5426 47.577 42.2654 47.577 41.9842C47.577 41.6949 47.5368 41.4177 47.4563 41.1526C47.3758 40.8874 47.2551 40.6504 47.0941 40.4415C46.9331 40.2245 46.7278 40.0558 46.4783 39.9353C46.2287 39.8147 45.9389 39.7545 45.6089 39.7545C45.2708 39.7545 44.977 39.8188 44.7274 39.9473C44.486 40.0759 44.2847 40.2486 44.1237 40.4656C43.9627 40.6745 43.842 40.9155 43.7615 41.1887C43.689 41.4539 43.6528 41.7271 43.6528 42.0083Z" fill="#515151"/>
<path d="M50.9657 46.2748V37.7176H53.3203V44.2259H57.2083V46.2748H50.9657Z" fill="#515151"/>
<path d="M61.7866 46.3472C61.1346 46.3472 60.5429 46.2266 60.0117 45.9856C59.4804 45.7365 59.0215 45.4071 58.6352 44.9973C58.2568 44.5795 57.963 44.1134 57.7537 43.5992C57.5525 43.0769 57.4519 42.5386 57.4519 41.9842C57.4519 41.4137 57.5605 40.8713 57.7779 40.3571C57.9952 39.8429 58.2971 39.3849 58.6835 38.9831C59.0779 38.5733 59.5407 38.2519 60.072 38.0189C60.6114 37.7859 61.199 37.6694 61.8349 37.6694C62.4869 37.6694 63.0786 37.7939 63.6099 38.043C64.1412 38.2841 64.596 38.6135 64.9743 39.0313C65.3526 39.4491 65.6424 39.9192 65.8437 40.4415C66.053 40.9557 66.1576 41.486 66.1576 42.0324C66.1576 42.5948 66.0489 43.1332 65.8316 43.6474C65.6223 44.1617 65.3204 44.6237 64.926 45.0334C64.5396 45.4352 64.0808 45.7566 63.5495 45.9976C63.0182 46.2307 62.4306 46.3472 61.7866 46.3472ZM59.8426 42.0083C59.8426 42.2975 59.8829 42.5788 59.9634 42.8519C60.0439 43.1171 60.1646 43.3582 60.3256 43.5751C60.4866 43.784 60.6878 43.9527 60.9293 44.0813C61.1789 44.2018 61.4727 44.2621 61.8108 44.2621C62.1489 44.2621 62.4427 44.1978 62.6922 44.0692C62.9417 43.9407 63.143 43.7679 63.2959 43.551C63.4569 43.326 63.5736 43.0809 63.6461 42.8158C63.7266 42.5426 63.7668 42.2654 63.7668 41.9842C63.7668 41.6949 63.7266 41.4177 63.6461 41.1526C63.5656 40.8874 63.4449 40.6504 63.2839 40.4415C63.1229 40.2245 62.9176 40.0558 62.6681 39.9353C62.4185 39.8147 62.1287 39.7545 61.7987 39.7545C61.4606 39.7545 61.1668 39.8188 60.9172 39.9473C60.6758 40.0759 60.4745 40.2486 60.3135 40.4656C60.1525 40.6745 60.0318 40.9155 59.9513 41.1887C59.8788 41.4539 59.8426 41.7271 59.8426 42.0083Z" fill="#515151"/>
<path d="M70.8624 46.3351C70.307 46.3351 69.7757 46.2387 69.2686 46.0459C68.7695 45.845 68.3268 45.5557 67.9404 45.1781C67.554 44.7924 67.2481 44.3304 67.0227 43.792C66.8054 43.2457 66.6967 42.623 66.6967 41.9239C66.6967 41.3213 66.8094 40.7629 67.0348 40.2486C67.2602 39.7344 67.5701 39.2844 67.9645 38.8987C68.367 38.505 68.8339 38.1997 69.3652 37.9828C69.8965 37.7658 70.472 37.6573 71.0918 37.6573C71.8646 37.6573 72.5649 37.8261 73.1928 38.1635C73.8207 38.493 74.2876 38.947 74.5935 39.5255L72.8427 40.8633C72.6736 40.5258 72.4201 40.2567 72.082 40.0558C71.7439 39.8469 71.3857 39.7424 71.0073 39.7424C70.7256 39.7424 70.468 39.7987 70.2346 39.9112C70.0011 40.0236 69.7958 40.1803 69.6188 40.3812C69.4497 40.5821 69.3169 40.8231 69.2203 41.1043C69.1317 41.3775 69.0875 41.6788 69.0875 42.0083C69.0875 42.3457 69.1358 42.6511 69.2324 42.9243C69.329 43.1975 69.4618 43.4345 69.6308 43.6354C69.8079 43.8282 70.0172 43.9809 70.2587 44.0934C70.5002 44.1978 70.7699 44.25 71.0677 44.25C71.446 44.25 71.8083 44.1576 72.1544 43.9728C72.5006 43.78 72.8145 43.5108 73.0962 43.1653V45.4553C72.4523 46.0418 71.7077 46.3351 70.8624 46.3351ZM72.9755 43.4064H71.3937V41.719H74.9195V46.2748H72.9755V43.4064Z" fill="#515151"/>
<path d="M77.337 37.7176L78.8705 41.2128L80.4402 37.7176H83L80.0417 43.4425V46.2748H77.6993V43.4184L74.7893 37.7176H77.337Z" fill="#515151"/>
<path d="M19.8431 51.4976C19.7829 51.4295 19.7127 51.3694 19.6324 51.3173C19.5522 51.2613 19.4619 51.2132 19.3616 51.1731C19.2613 51.1331 19.1529 51.1011 19.0366 51.077C18.9242 51.053 18.8039 51.041 18.6755 51.041C18.3023 51.041 18.0274 51.1131 17.8509 51.2573C17.6784 51.3974 17.5921 51.5897 17.5921 51.834C17.5921 52.0022 17.6322 52.1344 17.7125 52.2305C17.7967 52.3266 17.9271 52.4047 18.1037 52.4648C18.2802 52.5249 18.5049 52.5869 18.7778 52.651C19.0827 52.7151 19.3455 52.7912 19.5662 52.8793C19.7869 52.9674 19.9574 53.0876 20.0778 53.2398C20.1982 53.388 20.2584 53.5902 20.2584 53.8465C20.2584 54.0428 20.2202 54.213 20.144 54.3572C20.0678 54.5014 19.9614 54.6215 19.825 54.7176C19.6886 54.8138 19.5261 54.8859 19.3375 54.9339C19.1489 54.978 18.9423 55 18.7176 55C18.4969 55 18.2842 54.978 18.0796 54.9339C17.879 54.8859 17.6884 54.8178 17.5078 54.7297C17.3273 54.6375 17.1588 54.5214 17.0023 54.3812L17.2129 54.0388C17.2892 54.1189 17.3794 54.195 17.4838 54.2671C17.5921 54.3352 17.7105 54.3972 17.8389 54.4533C17.9713 54.5094 18.1117 54.5534 18.2602 54.5855C18.4126 54.6135 18.5691 54.6275 18.7296 54.6275C19.0707 54.6275 19.3355 54.5654 19.5241 54.4413C19.7167 54.3171 19.813 54.1329 19.813 53.8886C19.813 53.7124 19.7648 53.5722 19.6685 53.4681C19.5722 53.3599 19.4278 53.2718 19.2352 53.2037C19.0426 53.1356 18.8059 53.0696 18.525 53.0055C18.2281 52.9374 17.9773 52.8613 17.7727 52.7772C17.568 52.6931 17.4135 52.5829 17.3092 52.4468C17.2089 52.3066 17.1588 52.1224 17.1588 51.8941C17.1588 51.6297 17.223 51.4074 17.3514 51.2272C17.4838 51.043 17.6643 50.9048 17.893 50.8127C18.1217 50.7166 18.3846 50.6685 18.6815 50.6685C18.8701 50.6685 19.0446 50.6885 19.2051 50.7286C19.3696 50.7646 19.5201 50.8187 19.6565 50.8908C19.7969 50.9629 19.9273 51.053 20.0477 51.1611L19.8431 51.4976Z" fill="#515151"/>
<path d="M21.0012 54.964V50.6986H21.4225V54.5915H23.8901V54.964H21.0012Z" fill="#515151"/>
<path d="M26.061 54.994C25.76 54.994 25.4872 54.9339 25.2424 54.8138C24.9977 54.6936 24.787 54.5314 24.6105 54.3271C24.4339 54.1189 24.2975 53.8866 24.2012 53.6303C24.1049 53.3699 24.0568 53.1036 24.0568 52.8313C24.0568 52.5469 24.1069 52.2765 24.2072 52.0202C24.3075 51.7599 24.448 51.5296 24.6285 51.3293C24.8131 51.1251 25.0278 50.9649 25.2725 50.8487C25.5173 50.7286 25.7821 50.6685 26.067 50.6685C26.3679 50.6685 26.6408 50.7306 26.8855 50.8547C27.1303 50.9789 27.3389 51.1451 27.5115 51.3534C27.688 51.5616 27.8244 51.7939 27.9207 52.0503C28.017 52.3066 28.0652 52.5689 28.0652 52.8373C28.0652 53.1216 28.015 53.394 27.9147 53.6543C27.8144 53.9106 27.674 54.1409 27.4934 54.3452C27.3128 54.5454 27.1002 54.7036 26.8554 54.8198C26.6107 54.9359 26.3459 54.994 26.061 54.994ZM24.4781 52.8313C24.4781 53.0635 24.5162 53.2878 24.5924 53.5041C24.6687 53.7164 24.777 53.9066 24.9174 54.0748C25.0579 54.239 25.2244 54.3712 25.417 54.4713C25.6136 54.5675 25.8282 54.6155 26.061 54.6155C26.3057 54.6155 26.5244 54.5655 26.717 54.4653C26.9136 54.3612 27.0801 54.225 27.2165 54.0568C27.357 53.8846 27.4633 53.6923 27.5355 53.4801C27.6078 53.2678 27.6439 53.0515 27.6439 52.8313C27.6439 52.599 27.6058 52.3767 27.5295 52.1644C27.4533 51.9521 27.3429 51.7619 27.1985 51.5937C27.0581 51.4255 26.8915 51.2933 26.6989 51.1972C26.5063 51.1011 26.2937 51.053 26.061 51.053C25.8202 51.053 25.6015 51.1031 25.4049 51.2032C25.2123 51.3033 25.0458 51.4395 24.9054 51.6117C24.769 51.7799 24.6626 51.9702 24.5864 52.1824C24.5142 52.3947 24.4781 52.611 24.4781 52.8313Z" fill="#515151"/>
<path d="M30.5748 54.994C30.2899 54.994 30.0251 54.9339 29.7803 54.8138C29.5356 54.6896 29.3229 54.5234 29.1424 54.3151C28.9618 54.1069 28.8214 53.8746 28.7211 53.6182C28.6248 53.3619 28.5766 53.0976 28.5766 52.8252C28.5766 52.5369 28.6248 52.2645 28.7211 52.0082C28.8214 51.7479 28.9598 51.5176 29.1363 51.3173C29.3129 51.1171 29.5215 50.9589 29.7623 50.8427C30.003 50.7266 30.2658 50.6685 30.5507 50.6685C30.972 50.6685 31.3151 50.7546 31.5799 50.9268C31.8447 51.0991 32.0454 51.3233 32.1818 51.5997L31.8568 51.816C31.7203 51.5516 31.5378 51.3574 31.3091 51.2332C31.0804 51.1091 30.8256 51.047 30.5447 51.047C30.308 51.047 30.0933 51.0971 29.9007 51.1972C29.7121 51.2973 29.5496 51.4315 29.4132 51.5997C29.2768 51.7679 29.1725 51.9581 29.1002 52.1704C29.032 52.3827 28.9979 52.603 28.9979 52.8313C28.9979 53.0716 29.038 53.2998 29.1183 53.5161C29.1985 53.7284 29.3129 53.9186 29.4614 54.0868C29.6098 54.251 29.7803 54.3812 29.9729 54.4773C30.1695 54.5695 30.3802 54.6155 30.6049 54.6155C30.8657 54.6155 31.1125 54.5514 31.3452 54.4233C31.5779 54.2911 31.8006 54.0888 32.0133 53.8165V54.2611C31.608 54.7497 31.1285 54.994 30.5748 54.994ZM31.947 53.1917H30.9961V52.8673H32.3021V54.964H31.947V53.1917Z" fill="#515151"/>
<path d="M34.4918 50.6986H34.8469L36.6224 54.964H36.1771L35.6233 53.6303H33.7034L33.1557 54.964H32.7043L34.4918 50.6986ZM35.527 53.2998L34.6664 51.1912L33.7937 53.2998H35.527Z" fill="#515151"/>
<path d="M37.6563 51.4735V54.964H37.235V50.6986H37.5841L40.3888 54.2551V50.7046H40.8101V54.964H40.4189L37.6563 51.4735Z" fill="#515151"/>
<path d="M46.7887 50.6986V54.964H46.3734V52.9694H43.8395V54.964H43.4182V50.6986H43.8395V52.597H46.3734V50.6986H46.7887Z" fill="#515151"/>
<path d="M50.7326 54.5915V54.964H47.8617V50.6986H50.6784V51.071H48.283V52.609H50.3714V52.9634H48.283V54.5915H50.7326Z" fill="#515151"/>
<path d="M51.5293 54.964V50.6986H53.3349C53.5194 50.6986 53.6879 50.7366 53.8404 50.8127C53.9929 50.8888 54.1253 50.9929 54.2376 51.1251C54.354 51.2533 54.4423 51.3974 54.5025 51.5576C54.5667 51.7138 54.5988 51.874 54.5988 52.0382C54.5988 52.2425 54.5586 52.4348 54.4784 52.615C54.4022 52.7952 54.2918 52.9474 54.1474 53.0716C54.0069 53.1957 53.8404 53.2778 53.6478 53.3179L54.6951 54.964H54.2196L53.2145 53.39H51.9506V54.964H51.5293ZM51.9506 53.0175H53.3469C53.5154 53.0175 53.6619 52.9714 53.7863 52.8793C53.9106 52.7872 54.0069 52.667 54.0751 52.5189C54.1434 52.3667 54.1775 52.2065 54.1775 52.0382C54.1775 51.866 54.1373 51.7078 54.0571 51.5636C53.9809 51.4155 53.8765 51.2973 53.7441 51.2092C53.6157 51.1171 53.4713 51.071 53.3108 51.071H51.9506V53.0175Z" fill="#515151"/>
<path d="M58.3322 54.5915V54.964H55.4614V50.6986H58.2781V51.071H55.8827V52.609H57.9711V52.9634H55.8827V54.5915H58.3322Z" fill="#515151"/>
<path d="M35.1801 31.8564C33.1236 31.8564 31.0688 31.4486 29.1142 30.6337C25.2349 29.016 22.2192 25.9878 20.6224 22.1057C19.0251 18.2241 19.0379 13.954 20.658 10.0817C22.278 6.20945 25.3124 3.19925 29.2011 1.60486C29.3718 1.53447 29.5455 1.467 29.7191 1.40243C31.3019 0.815513 33.0595 1.62173 33.6463 3.20041C34.2337 4.77968 33.4272 6.53461 31.845 7.12037C31.7378 7.15992 31.6311 7.2018 31.5245 7.24543C29.1434 8.22149 27.2868 10.0637 26.2955 12.4323C25.3042 14.8009 25.2967 17.4132 26.2733 19.7877C27.2506 22.1627 29.0956 24.0153 31.4686 25.0048C33.8409 25.9936 36.4586 26.0018 38.8374 25.0269C43.7488 23.0137 46.1031 17.3876 44.0862 12.4852C43.4446 10.9275 44.1905 9.1452 45.7517 8.50535C47.3135 7.8655 49.0979 8.61005 49.7389 10.1678C53.0355 18.1811 49.187 27.3774 41.1597 30.668C39.2308 31.4609 37.2051 31.8564 35.1801 31.8564Z" fill="#515151"/>
<path d="M52.6217 30.86C51.3164 30.86 50.1078 30.0189 49.7028 28.7089C49.2057 27.0994 50.1095 25.3922 51.722 24.8954C55.7797 23.6454 58.5063 19.954 58.5063 15.7101C58.5063 10.4104 54.187 6.09952 48.8776 6.09952C43.5682 6.09952 39.2488 10.4109 39.2488 15.7101C39.2488 16.7844 39.4248 17.839 39.771 18.8436C40.3205 20.4362 39.4726 22.1714 37.877 22.7205C36.2803 23.2684 34.5431 22.4227 33.9936 20.83C33.426 19.185 33.1381 17.4621 33.1381 15.7101C33.1381 7.04766 40.1987 0 48.877 0C57.5553 0 64.6159 7.04766 64.6159 15.7101C64.6159 22.6466 60.1578 28.6798 53.5221 30.7239C53.2231 30.8164 52.9195 30.86 52.6217 30.86Z" fill="#515151"/>
</svg>
