<svg width="67" height="55" viewBox="0 0 67 55" fill="none" xmlns="http://www.w3.org/2000/svg">
<path d="M5.88714 42.7839H3.89877V48.0029H1.99812V42.7839H0V41.1409H5.88714V42.7839Z" fill="#515151"/>
<path d="M11.5113 46.3599V48.0029H6.5794V41.1409H11.4236V42.7839H8.48006V43.7504H10.9948V45.2775H8.48006V46.3599H11.5113Z" fill="#515151"/>
<path d="M11.9104 44.5139C11.9104 44.0951 11.9883 43.686 12.1443 43.2865C12.3067 42.8806 12.5407 42.5133 12.8461 42.1847C13.1515 41.8561 13.5219 41.5952 13.9572 41.4019C14.3991 41.2022 14.8962 41.1023 15.4485 41.1023C16.1113 41.1023 16.6896 41.2408 17.1835 41.5179C17.6773 41.7885 18.0444 42.1493 18.2849 42.6003L16.8326 43.6248C16.7481 43.3993 16.6246 43.2253 16.4622 43.1029C16.3062 42.9805 16.134 42.8967 15.9456 42.8516C15.7636 42.8001 15.585 42.7743 15.4095 42.7743C15.1366 42.7743 14.8994 42.8291 14.698 42.9386C14.503 43.0417 14.3406 43.1802 14.2106 43.3542C14.0872 43.5281 13.993 43.7214 13.928 43.9341C13.8695 44.1467 13.8403 44.3593 13.8403 44.5719C13.8403 44.8103 13.876 45.0391 13.9475 45.2581C14.0189 45.4772 14.1229 45.6737 14.2594 45.8477C14.3958 46.0152 14.5615 46.1473 14.7565 46.2439C14.9579 46.3406 15.1821 46.3889 15.429 46.3889C15.6045 46.3889 15.7831 46.3631 15.9651 46.3116C16.147 46.2536 16.3127 46.1634 16.4622 46.041C16.6116 45.9185 16.7253 45.7542 16.8033 45.5481L18.3531 46.4662C18.2166 46.8013 17.9892 47.088 17.6708 47.3264C17.3524 47.5648 16.9918 47.7484 16.5889 47.8773C16.186 47.9997 15.7864 48.0609 15.39 48.0609C14.8767 48.0609 14.4056 47.961 13.9767 47.7613C13.5543 47.5551 13.1872 47.2845 12.8753 46.9495C12.5699 46.608 12.3327 46.2278 12.1638 45.809C11.9948 45.3838 11.9104 44.9521 11.9104 44.5139Z" fill="#515151"/>
<path d="M25.1507 41.1409V48.0029H23.25V45.3161H20.9302V48.0029H19.0296V41.1409H20.9302V43.6731H23.25V41.1409H25.1507Z" fill="#515151"/>
<path d="M28.2404 44.6299V48.0029H26.3398V41.1409H27.8213L30.5992 44.6299V41.1409H32.4998V48.0029H30.9891L28.2404 44.6299Z" fill="#515151"/>
<path d="M36.8071 48.0609C36.2807 48.0609 35.8031 47.9643 35.3743 47.771C34.9454 47.5712 34.575 47.307 34.2631 46.9784C33.9577 46.6434 33.7205 46.2697 33.5516 45.8573C33.3891 45.4385 33.3079 45.0068 33.3079 44.5623C33.3079 44.1048 33.3956 43.6699 33.5711 43.2575C33.7465 42.8452 33.9902 42.4779 34.3021 42.1557C34.6205 41.8271 34.9941 41.5694 35.423 41.3826C35.8584 41.1957 36.3327 41.1023 36.846 41.1023C37.3724 41.1023 37.85 41.2022 38.2789 41.4019C38.7077 41.5952 39.0749 41.8594 39.3803 42.1944C39.6857 42.5294 39.9196 42.9064 40.082 43.3252C40.251 43.7375 40.3355 44.1628 40.3355 44.6009C40.3355 45.0519 40.2477 45.4836 40.0723 45.896C39.9033 46.3084 39.6597 46.6788 39.3413 47.0074C39.0294 47.3296 38.659 47.5873 38.2301 47.7806C37.8013 47.9675 37.3269 48.0609 36.8071 48.0609ZM35.2378 44.5816C35.2378 44.8135 35.2703 45.0391 35.3353 45.2581C35.4003 45.4707 35.4977 45.664 35.6277 45.838C35.7576 46.0055 35.9201 46.1408 36.115 46.2439C36.3165 46.3406 36.5536 46.3889 36.8266 46.3889C37.0995 46.3889 37.3366 46.3374 37.5381 46.2343C37.7395 46.1312 37.902 45.9926 38.0254 45.8187C38.1554 45.6383 38.2496 45.4418 38.3081 45.2291C38.3731 45.0101 38.4056 44.7878 38.4056 44.5623C38.4056 44.3303 38.3731 44.108 38.3081 43.8954C38.2431 43.6828 38.1456 43.4927 38.0157 43.3252C37.8857 43.1512 37.72 43.0159 37.5186 42.9193C37.3172 42.8226 37.0832 42.7743 36.8168 42.7743C36.5439 42.7743 36.3067 42.8258 36.1053 42.9289C35.9103 43.032 35.7479 43.1705 35.6179 43.3445C35.488 43.512 35.3905 43.7053 35.3255 43.9244C35.267 44.137 35.2378 44.3561 35.2378 44.5816Z" fill="#515151"/>
<path d="M41.141 48.0029V41.1409H43.0417V46.3599H46.1802V48.0029H41.141Z" fill="#515151"/>
<path d="M49.8759 48.0609C49.3496 48.0609 48.872 47.9643 48.4431 47.771C48.0143 47.5712 47.6439 47.307 47.332 46.9784C47.0266 46.6434 46.7894 46.2697 46.6205 45.8573C46.458 45.4385 46.3768 45.0068 46.3768 44.5623C46.3768 44.1048 46.4645 43.6699 46.64 43.2575C46.8154 42.8452 47.0591 42.4779 47.371 42.1557C47.6894 41.8271 48.063 41.5694 48.4919 41.3826C48.9272 41.1957 49.4016 41.1023 49.9149 41.1023C50.4413 41.1023 50.9189 41.2022 51.3477 41.4019C51.7766 41.5952 52.1437 41.8594 52.4491 42.1944C52.7545 42.5294 52.9885 42.9064 53.1509 43.3252C53.3199 43.7375 53.4043 44.1628 53.4043 44.6009C53.4043 45.0519 53.3166 45.4836 53.1412 45.896C52.9722 46.3084 52.7285 46.6788 52.4101 47.0074C52.0982 47.3296 51.7279 47.5873 51.299 47.7806C50.8701 47.9675 50.3958 48.0609 49.8759 48.0609ZM48.3067 44.5816C48.3067 44.8135 48.3392 45.0391 48.4042 45.2581C48.4691 45.4707 48.5666 45.664 48.6966 45.838C48.8265 46.0055 48.989 46.1408 49.1839 46.2439C49.3853 46.3406 49.6225 46.3889 49.8954 46.3889C50.1683 46.3889 50.4055 46.3374 50.607 46.2343C50.8084 46.1312 50.9708 45.9926 51.0943 45.8187C51.2243 45.6383 51.3185 45.4418 51.377 45.2291C51.4419 45.0101 51.4744 44.7878 51.4744 44.5623C51.4744 44.3303 51.4419 44.108 51.377 43.8954C51.312 43.6828 51.2145 43.4927 51.0846 43.3252C50.9546 43.1512 50.7889 43.0159 50.5875 42.9193C50.386 42.8226 50.1521 42.7743 49.8857 42.7743C49.6128 42.7743 49.3756 42.8258 49.1742 42.9289C48.9792 43.032 48.8168 43.1705 48.6868 43.3445C48.5569 43.512 48.4594 43.7053 48.3944 43.9244C48.3359 44.137 48.3067 44.3561 48.3067 44.5816Z" fill="#515151"/>
<path d="M57.2022 48.0512C56.7538 48.0512 56.325 47.9739 55.9156 47.8193C55.5127 47.6582 55.1553 47.4263 54.8434 47.1234C54.5315 46.8141 54.2846 46.4437 54.1027 46.012C53.9272 45.5738 53.8395 45.0745 53.8395 44.5139C53.8395 44.0307 53.9305 43.5829 54.1124 43.1705C54.2944 42.7582 54.5445 42.3974 54.8629 42.0881C55.1878 41.7724 55.5647 41.5275 55.9936 41.3536C56.4224 41.1796 56.8871 41.0926 57.3874 41.0926C58.0112 41.0926 58.5765 41.2279 59.0834 41.4985C59.5902 41.7627 59.9671 42.1267 60.214 42.5907L58.8007 43.6634C58.6642 43.3928 58.4596 43.177 58.1866 43.0159C57.9137 42.8484 57.6246 42.7646 57.3192 42.7646C57.0917 42.7646 56.8838 42.8097 56.6954 42.8999C56.5069 42.9901 56.3412 43.1158 56.1983 43.2768C56.0618 43.4379 55.9546 43.6312 55.8766 43.8567C55.8051 44.0758 55.7694 44.3174 55.7694 44.5816C55.7694 44.8522 55.8084 45.097 55.8864 45.3161C55.9643 45.5352 56.0716 45.7253 56.208 45.8863C56.351 46.041 56.5199 46.1634 56.7149 46.2536C56.9098 46.3374 57.1275 46.3792 57.3679 46.3792C57.6733 46.3792 57.9657 46.3051 58.2451 46.1569C58.5245 46.0023 58.778 45.7865 59.0054 45.5094V47.3457C58.4855 47.8161 57.8845 48.0512 57.2022 48.0512ZM58.9079 45.7027H57.6311V44.3496H60.4772V48.0029H58.9079V45.7027Z" fill="#515151"/>
<path d="M62.4287 41.1409L63.6666 43.9437L64.9336 41.1409H67L64.612 45.7317V48.0029H62.7211V45.7124L60.3721 41.1409H62.4287Z" fill="#515151"/>
<path d="M16.0177 52.1914C15.9691 52.1368 15.9124 52.0887 15.8476 52.0469C15.7828 52.0019 15.71 51.9634 15.629 51.9313C15.548 51.8992 15.4606 51.8735 15.3666 51.8542C15.2759 51.8349 15.1788 51.8253 15.0751 51.8253C14.7739 51.8253 14.552 51.8831 14.4095 51.9987C14.2703 52.1111 14.2006 52.2653 14.2006 52.4612C14.2006 52.5961 14.233 52.7021 14.2978 52.7792C14.3658 52.8562 14.4711 52.9189 14.6136 52.967C14.7561 53.0152 14.9375 53.065 15.1577 53.1164C15.4039 53.1678 15.616 53.2288 15.7942 53.2994C15.9723 53.3701 16.11 53.4664 16.2071 53.5885C16.3043 53.7073 16.3529 53.8695 16.3529 54.075C16.3529 54.2324 16.3221 54.3689 16.2606 54.4845C16.199 54.6001 16.1132 54.6965 16.0031 54.7736C15.893 54.8507 15.7618 54.9085 15.6096 54.947C15.4573 54.9823 15.2905 55 15.1091 55C14.931 55 14.7593 54.9823 14.5941 54.947C14.4322 54.9085 14.2784 54.8539 14.1326 54.7832C13.9868 54.7093 13.8508 54.6162 13.7245 54.5038L13.8945 54.2292C13.9561 54.2934 14.029 54.3545 14.1132 54.4123C14.2006 54.4669 14.2962 54.5166 14.3998 54.5616C14.5067 54.6066 14.6201 54.6419 14.7399 54.6676C14.863 54.6901 14.9893 54.7013 15.1189 54.7013C15.3942 54.7013 15.6079 54.6515 15.7602 54.552C15.9156 54.4524 15.9934 54.3047 15.9934 54.1088C15.9934 53.9675 15.9545 53.855 15.8768 53.7715C15.799 53.6848 15.6824 53.6142 15.527 53.5596C15.3715 53.505 15.1804 53.452 14.9537 53.4006C14.714 53.346 14.5116 53.285 14.3464 53.2175C14.1812 53.1501 14.0565 53.0618 13.9723 52.9526C13.8913 52.8402 13.8508 52.6924 13.8508 52.5094C13.8508 52.2974 13.9026 52.1192 14.0063 51.9746C14.1132 51.8269 14.2589 51.7161 14.4435 51.6422C14.6282 51.5652 14.8403 51.5266 15.08 51.5266C15.2322 51.5266 15.3731 51.5427 15.5027 51.5748C15.6355 51.6037 15.7569 51.6471 15.867 51.7049C15.9804 51.7627 16.0857 51.8349 16.1828 51.9216L16.0177 52.1914Z" fill="#515151"/>
<path d="M16.9525 54.9711V51.5507H17.2926V54.6724H19.2846V54.9711H16.9525Z" fill="#515151"/>
<path d="M21.0369 54.9952C20.794 54.9952 20.5738 54.947 20.3762 54.8507C20.1786 54.7543 20.0086 54.6242 19.8661 54.4604C19.7235 54.2934 19.6134 54.1072 19.5357 53.9016C19.4579 53.6929 19.4191 53.4793 19.4191 53.2609C19.4191 53.0329 19.4596 52.8161 19.5405 52.6105C19.6215 52.4018 19.7349 52.2171 19.8806 52.0565C20.0296 51.8927 20.2029 51.7643 20.4005 51.6711C20.5981 51.5748 20.8118 51.5266 21.0418 51.5266C21.2847 51.5266 21.505 51.5764 21.7025 51.676C21.9001 51.7755 22.0685 51.9088 22.2078 52.0758C22.3503 52.2428 22.4604 52.4291 22.5382 52.6346C22.6159 52.8402 22.6548 53.0505 22.6548 53.2657C22.6548 53.4937 22.6143 53.7121 22.5333 53.9209C22.4523 54.1264 22.339 54.3111 22.1932 54.4749C22.0475 54.6355 21.8758 54.7623 21.6782 54.8555C21.4807 54.9486 21.2669 54.9952 21.0369 54.9952ZM19.7592 53.2609C19.7592 53.4472 19.7899 53.627 19.8515 53.8005C19.913 53.9707 20.0005 54.1232 20.1138 54.2581C20.2272 54.3898 20.3616 54.4958 20.5171 54.5761C20.6758 54.6531 20.8491 54.6917 21.0369 54.6917C21.2345 54.6917 21.411 54.6515 21.5665 54.5712C21.7252 54.4877 21.8596 54.3785 21.9697 54.2437C22.0831 54.1056 22.1689 53.9514 22.2272 53.7812C22.2855 53.611 22.3147 53.4375 22.3147 53.2609C22.3147 53.0746 22.2839 52.8964 22.2224 52.7262C22.1608 52.5559 22.0718 52.4034 21.9552 52.2685C21.8418 52.1336 21.7074 52.0276 21.5519 51.9506C21.3965 51.8735 21.2248 51.8349 21.0369 51.8349C20.8426 51.8349 20.6661 51.8751 20.5074 51.9554C20.3519 52.0357 20.2175 52.1449 20.1041 52.283C19.994 52.4178 19.9082 52.5704 19.8466 52.7406C19.7883 52.9108 19.7592 53.0843 19.7592 53.2609Z" fill="#515151"/>
<path d="M24.6806 54.9952C24.4507 54.9952 24.2369 54.947 24.0393 54.8507C23.8417 54.7511 23.6701 54.6178 23.5243 54.4508C23.3786 54.2838 23.2652 54.0975 23.1842 53.892C23.1065 53.6864 23.0676 53.4745 23.0676 53.2561C23.0676 53.0248 23.1065 52.8065 23.1842 52.6009C23.2652 52.3922 23.377 52.2075 23.5195 52.0469C23.662 51.8863 23.8304 51.7595 24.0247 51.6663C24.2191 51.5732 24.4312 51.5266 24.6612 51.5266C25.0013 51.5266 25.2782 51.5957 25.492 51.7338C25.7057 51.8719 25.8677 52.0517 25.9778 52.2733L25.7155 52.4468C25.6053 52.2348 25.458 52.079 25.2734 51.9795C25.0887 51.8799 24.8831 51.8301 24.6563 51.8301C24.4652 51.8301 24.292 51.8703 24.1365 51.9506C23.9843 52.0308 23.8531 52.1384 23.743 52.2733C23.6328 52.4082 23.5486 52.5608 23.4903 52.731C23.4353 52.9012 23.4077 53.0778 23.4077 53.2609C23.4077 53.4536 23.4401 53.6367 23.5049 53.8101C23.5697 53.9803 23.662 54.1329 23.7818 54.2677C23.9017 54.3994 24.0393 54.5038 24.1948 54.5809C24.3535 54.6547 24.5235 54.6917 24.7049 54.6917C24.9154 54.6917 25.1146 54.6403 25.3025 54.5375C25.4904 54.4315 25.6701 54.2694 25.8418 54.051V54.4075C25.5147 54.7993 25.1276 54.9952 24.6806 54.9952ZM25.7883 53.5499H25.0207V53.2898H26.075V54.9711H25.7883V53.5499Z" fill="#515151"/>
<path d="M27.8426 51.5507H28.1292L29.5625 54.9711H29.2029L28.756 53.9016H27.2061L26.764 54.9711H26.3996L27.8426 51.5507ZM28.6782 53.6367L27.9835 51.9457L27.279 53.6367H28.6782Z" fill="#515151"/>
<path d="M30.397 52.1722V54.9711H30.0569V51.5507H30.3387L32.6028 54.4026V51.5555H32.9428V54.9711H32.627L30.397 52.1722Z" fill="#515151"/>
<path d="M37.7689 51.5507V54.9711H37.4337V53.3717H35.3883V54.9711H35.0482V51.5507H35.3883V53.073H37.4337V51.5507H37.7689Z" fill="#515151"/>
<path d="M40.9525 54.6724V54.9711H38.6351V51.5507H40.9088V51.8494H38.9752V53.0827H40.661V53.3669H38.9752V54.6724H40.9525Z" fill="#515151"/>
<path d="M41.5957 54.9711V51.5507H43.0532C43.2022 51.5507 43.3382 51.5812 43.4613 51.6422C43.5844 51.7033 43.6913 51.7868 43.782 51.8927C43.8759 51.9955 43.9471 52.1111 43.9957 52.2396C44.0476 52.3649 44.0735 52.4933 44.0735 52.625C44.0735 52.7888 44.0411 52.9429 43.9763 53.0875C43.9148 53.232 43.8257 53.354 43.7091 53.4536C43.5957 53.5532 43.4613 53.619 43.3058 53.6511L44.1512 54.9711H43.7674L42.956 53.7089H41.9358V54.9711H41.5957ZM41.9358 53.4102H43.0629C43.199 53.4102 43.3172 53.3733 43.4176 53.2994C43.518 53.2256 43.5957 53.1292 43.6508 53.0104C43.7058 52.8884 43.7334 52.7599 43.7334 52.625C43.7334 52.4869 43.701 52.36 43.6362 52.2444C43.5747 52.1256 43.4905 52.0308 43.3836 51.9602C43.2799 51.8863 43.1633 51.8494 43.0338 51.8494H41.9358V53.4102Z" fill="#515151"/>
<path d="M47.0872 54.6724V54.9711H44.7698V51.5507H47.0435V51.8494H45.1099V53.0827H46.7957V53.3669H45.1099V54.6724H47.0872Z" fill="#515151"/>
<path d="M35.5554 37.6127L18.6977 20.8972L21.0272 18.5869L35.5554 32.9926L43.2871 25.3261L28.7589 10.9204L31.0884 8.61058L47.9465 25.3261L35.5554 37.6127Z" fill="#515151"/>
<path d="M17.3138 19.5249L14.7971 17.0294L17.1266 14.7191L19.6437 17.2151L17.3138 19.5249Z" fill="#515151"/>
<path d="M36.5734 29.0022L19.7157 12.2866L32.1063 0L48.9645 16.716L46.6345 19.0258L32.1063 4.62015L24.3751 12.2866L38.9033 26.6923L36.5734 29.0022Z" fill="#515151"/>
<path d="M50.721 23.0778L47.7047 20.087L50.0342 17.7767L53.051 20.768L50.721 23.0778Z" fill="#515151"/>
</svg>
