<svg width="32" height="32" viewBox="0 0 32 32" fill="none" xmlns="http://www.w3.org/2000/svg">
<g clip-path="url(#clip0_580_5586)">
<path d="M23.9996 -0.000322293C22.2276 0.000185626 20.4665 0.276838 18.7796 0.819678C17.8842 1.13021 16.9469 1.30329 15.9996 1.33301C15.0524 1.30329 14.1151 1.13021 13.2196 0.819678C11.5328 0.277008 9.77167 0.000359273 7.99965 -0.000322293C6.93827 -0.0405591 5.88002 0.138843 4.89121 0.526642C3.9024 0.914441 3.00434 1.50228 2.25329 2.25332C1.50225 3.00437 0.91441 3.90243 0.526611 4.89124C0.138812 5.88005 -0.0405897 6.9383 -0.000352811 7.99968C-0.000352811 16.5903 4.47298 25.0477 7.69031 30.513C8.02923 31.0847 8.54653 31.5293 9.16271 31.7784C9.7789 32.0276 10.4598 32.0674 11.1009 31.8918C11.7419 31.7163 12.3075 31.3351 12.7108 30.8067C13.1141 30.2784 13.3327 29.6323 13.333 28.9677V20.1423C13.3186 19.4932 13.533 18.8597 13.9386 18.3527C14.3442 17.8457 14.9152 17.4975 15.5516 17.369C15.9344 17.3038 16.3268 17.3229 16.7014 17.4251C17.0759 17.5273 17.4237 17.71 17.7203 17.9605C18.0169 18.2111 18.2553 18.5233 18.4187 18.8756C18.5821 19.2278 18.6666 19.6114 18.6663 19.9997V28.9677C18.6666 29.6323 18.8852 30.2784 19.2885 30.8067C19.6918 31.3351 20.2574 31.7163 20.8984 31.8918C21.5395 32.0674 22.2204 32.0276 22.8366 31.7784C23.4528 31.5293 23.9701 31.0847 24.309 30.513C27.5276 25.0463 31.9996 16.589 31.9996 7.99968C32.0399 6.9383 31.8605 5.88005 31.4727 4.89124C31.0849 3.90243 30.497 3.00437 29.746 2.25332C28.995 1.50228 28.0969 0.914441 27.1081 0.526642C26.1193 0.138843 25.061 -0.0405591 23.9996 -0.000322293Z" fill="#5600D6"/>
</g>
<defs>
<clipPath id="clip0_580_5586">
<rect width="32" height="32" fill="white"/>
</clipPath>
</defs>
</svg>
