<svg width="32" height="32" viewBox="0 0 32 32" fill="none" xmlns="http://www.w3.org/2000/svg">
<g clip-path="url(#clip0_580_5595)">
<path d="M17.316 10.556V31.984H14.652V10.4573C13.6627 10.1893 12.7693 9.62799 12.0427 8.90133L8.38133 5.34532C7.86133 4.82532 7.86133 3.98132 8.38133 3.46132C8.90133 2.94132 9.74533 2.94132 10.2653 3.46132L11.6093 4.69999V1.11866C11.6093 0.509325 12.1027 0.0159912 12.712 0.0159912C13.3213 0.0159912 13.8147 0.509325 13.8147 1.11866V2.01332H15.7027V1.11866C15.7027 0.509325 16.196 0.0159912 16.8053 0.0159912C17.4147 0.0159912 17.908 0.509325 17.908 1.11866V2.02666H19.7627V1.12399C19.7627 0.511991 20.2587 0.0159912 20.8707 0.0159912C21.4827 0.0159912 21.9787 0.511991 21.9787 1.12399V4.90132C21.9787 6.49199 21.332 7.93466 20.2867 8.97999C19.492 9.77466 18.4613 10.3307 17.316 10.556ZM6.97333 6.67599L11.988 21.1027V21.9933C11.988 25.2987 9.29867 27.9867 5.99467 27.9867C2.69067 27.9867 0 25.2987 0 21.9933V21.1013L4.116 9.33999H0.032V6.67599H6.97333ZM6.00533 12.0067L3.20933 19.996H8.78267L6.00533 12.0067ZM32 21.1013V21.9933C32 25.2987 29.3107 27.9867 26.0067 27.9867C22.7027 27.9867 20.0133 25.2973 20.0133 21.9933V21.1027L25.028 6.67599H31.9693V9.33999H27.8867L32.0027 21.1013H32ZM23.2173 19.996H28.7907L25.9947 12.0067L23.2173 19.996Z" fill="#5600D6"/>
</g>
<defs>
<clipPath id="clip0_580_5595">
<rect width="32" height="32" fill="white"/>
</clipPath>
</defs>
</svg>
