<svg width="32" height="32" viewBox="0 0 32 32" fill="none" xmlns="http://www.w3.org/2000/svg">
<g clip-path="url(#clip0_580_5614)">
<path d="M32 28C32 30.2093 30.2093 32 28 32C25.7907 32 24 30.2093 24 28C24 25.7907 25.7907 24 28 24C30.2093 24 32 25.7907 32 28ZM25.3333 9.61333V8.16667C25.3333 3.664 21.6693 0 17.1667 0C13.128 0 9.736 2.89467 9.1 6.884L5.528 29.3333H1.33333C0.596 29.3333 0 29.9293 0 30.6667C0 31.404 0.596 32 1.33333 32H5.528C6.84667 32 7.95333 31.0547 8.16133 29.752L11.7333 7.30267C12.1613 4.616 14.4467 2.66533 17.1667 2.66533C20.1987 2.66533 22.6667 5.13333 22.6667 8.16533V9.332H21.3333C19.128 9.332 17.3333 11.1267 17.3333 13.332V27.9987C17.3333 30.204 19.128 31.9987 21.3333 31.9987H22.6973C21.8533 30.8813 21.3333 29.5067 21.3333 27.9987C21.3333 24.3173 24.3187 21.332 28 21.332C29.508 21.332 30.8827 21.852 32 22.696V18.1653C32 14.0427 29.1587 10.5827 25.3333 9.61333Z" fill="#5600D6"/>
</g>
<defs>
<clipPath id="clip0_580_5614">
<rect width="32" height="32" fill="white"/>
</clipPath>
</defs>
</svg>
