<svg width="32" height="32" viewBox="0 0 32 32" fill="none" xmlns="http://www.w3.org/2000/svg">
<g clip-path="url(#clip0_580_5650)">
<path d="M31.6492 7.30672C31.4746 6.69739 30.1479 5.73339 29.0546 6.82672C27.9612 7.92006 24.6332 11.2481 24.6332 11.2481C23.5839 12.2974 21.8679 12.2667 20.8292 11.2001C19.7639 10.1614 19.7306 8.44406 20.7799 7.39472C20.7799 7.39472 24.1079 4.06672 25.2012 2.97339C26.2946 1.88006 25.3306 0.553389 24.7212 0.378722C23.7239 0.0933886 22.6906 -0.0319448 21.6319 0.00672189C16.6012 0.185389 12.3612 4.27206 12.0226 9.29339C11.9626 10.1801 12.0159 11.0494 12.1786 11.8934C12.4212 13.1467 11.9612 14.4334 11.0586 15.3374L1.15991 25.2081C-0.389422 26.7587 -0.380089 29.2867 1.15058 30.8494C2.71324 32.3814 5.24124 32.3907 6.79191 30.8414L16.6906 20.9694C17.5932 20.0667 18.8799 19.6067 20.1346 19.8494C20.9786 20.0121 21.8479 20.0654 22.7346 20.0054C27.7572 19.6667 31.8426 15.4267 32.0212 10.3961C32.0586 9.33739 31.9346 8.30406 31.6492 7.30672Z" fill="#5600D6"/>
</g>
<defs>
<clipPath id="clip0_580_5650">
<rect width="32" height="32" fill="white"/>
</clipPath>
</defs>
</svg>
