<svg width="32" height="32" viewBox="0 0 32 32" fill="none" xmlns="http://www.w3.org/2000/svg">
<path d="M16 0C12.465 0.00388213 9.07586 1.40989 6.57622 3.90953C4.07657 6.40917 2.67057 9.79831 2.66669 13.3333C2.66669 20.376 13.8667 30.044 15.1387 31.124L16 31.852L16.8614 31.124C18.1334 30.044 29.3334 20.376 29.3334 13.3333C29.3295 9.79831 27.9235 6.40917 25.4238 3.90953C22.9242 1.40989 19.535 0.00388213 16 0ZM16 20C14.6815 20 13.3925 19.609 12.2962 18.8765C11.1999 18.1439 10.3454 17.1027 9.84082 15.8846C9.33624 14.6664 9.20422 13.3259 9.46145 12.0327C9.71869 10.7395 10.3536 9.55164 11.286 8.61929C12.2183 7.68694 13.4062 7.052 14.6994 6.79476C15.9926 6.53753 17.3331 6.66955 18.5512 7.17414C19.7694 7.67872 20.8106 8.5332 21.5432 9.62953C22.2757 10.7259 22.6667 12.0148 22.6667 13.3333C22.6646 15.1008 21.9615 16.7953 20.7117 18.045C19.4619 19.2948 17.7675 19.9979 16 20Z" fill="#5600D6"/>
<path d="M16 17.3335C18.2091 17.3335 20 15.5426 20 13.3335C20 11.1244 18.2091 9.3335 16 9.3335C13.7909 9.3335 12 11.1244 12 13.3335C12 15.5426 13.7909 17.3335 16 17.3335Z" fill="#5600D6"/>
</svg>
