<svg width="32" height="32" viewBox="0 0 32 32" fill="none" xmlns="http://www.w3.org/2000/svg">
<g clip-path="url(#clip0_580_5709)">
<path d="M0 25.3335C0.00211714 27.101 0.705176 28.7954 1.95496 30.0452C3.20474 31.295 4.89921 31.998 6.66667 32.0002H25.3333C27.1008 31.998 28.7953 31.295 30.045 30.0452C31.2948 28.7954 31.9979 27.101 32 25.3335V13.3335H0V25.3335ZM22.6667 19.3335C23.0622 19.3335 23.4489 19.4508 23.7778 19.6706C24.1067 19.8903 24.3631 20.2027 24.5144 20.5681C24.6658 20.9336 24.7054 21.3357 24.6282 21.7237C24.5511 22.1116 24.3606 22.468 24.0809 22.7477C23.8012 23.0274 23.4448 23.2179 23.0568 23.2951C22.6689 23.3722 22.2668 23.3326 21.9013 23.1813C21.5358 23.0299 21.2235 22.7735 21.0037 22.4446C20.784 22.1157 20.6667 21.7291 20.6667 21.3335C20.6667 20.8031 20.8774 20.2944 21.2525 19.9193C21.6275 19.5442 22.1362 19.3335 22.6667 19.3335ZM16 19.3335C16.3956 19.3335 16.7822 19.4508 17.1111 19.6706C17.44 19.8903 17.6964 20.2027 17.8478 20.5681C17.9991 20.9336 18.0387 21.3357 17.9616 21.7237C17.8844 22.1116 17.6939 22.468 17.4142 22.7477C17.1345 23.0274 16.7781 23.2179 16.3902 23.2951C16.0022 23.3722 15.6001 23.3326 15.2346 23.1813C14.8692 23.0299 14.5568 22.7735 14.3371 22.4446C14.1173 22.1157 14 21.7291 14 21.3335C14 20.8031 14.2107 20.2944 14.5858 19.9193C14.9609 19.5442 15.4696 19.3335 16 19.3335ZM9.33333 19.3335C9.7289 19.3335 10.1156 19.4508 10.4445 19.6706C10.7734 19.8903 11.0297 20.2027 11.1811 20.5681C11.3325 20.9336 11.3721 21.3357 11.2949 21.7237C11.2177 22.1116 11.0273 22.468 10.7475 22.7477C10.4678 23.0274 10.1115 23.2179 9.72351 23.2951C9.33555 23.3722 8.93342 23.3326 8.56797 23.1813C8.20251 23.0299 7.89016 22.7735 7.67039 22.4446C7.45063 22.1157 7.33333 21.7291 7.33333 21.3335C7.33333 20.8031 7.54405 20.2944 7.91912 19.9193C8.29419 19.5442 8.8029 19.3335 9.33333 19.3335Z" fill="#5600D6"/>
<path d="M25.3333 2.66667H24V1.33333C24 0.979711 23.8595 0.640573 23.6095 0.390524C23.3594 0.140476 23.0203 0 22.6667 0C22.313 0 21.9739 0.140476 21.7239 0.390524C21.4738 0.640573 21.3333 0.979711 21.3333 1.33333V2.66667H10.6667V1.33333C10.6667 0.979711 10.5262 0.640573 10.2761 0.390524C10.0261 0.140476 9.68696 0 9.33333 0C8.97971 0 8.64057 0.140476 8.39052 0.390524C8.14048 0.640573 8 0.979711 8 1.33333V2.66667H6.66667C4.89921 2.66878 3.20474 3.37184 1.95496 4.62163C0.705176 5.87141 0.00211714 7.56587 0 9.33333L0 10.6667H32V9.33333C31.9979 7.56587 31.2948 5.87141 30.045 4.62163C28.7953 3.37184 27.1008 2.66878 25.3333 2.66667Z" fill="#5600D6"/>
</g>
<defs>
<clipPath id="clip0_580_5709">
<rect width="32" height="32" fill="white"/>
</clipPath>
</defs>
</svg>
