<svg width="24" height="24" viewBox="0 0 24 24" fill="none" xmlns="http://www.w3.org/2000/svg">
<path d="M19.516 7.81734H2.02325C2.02325 5.52614 3.89164 3.6621 6.18819 3.6621V2.83105C6.18819 2.37231 6.56136 2 7.02117 2C7.48098 2 7.85416 2.37231 7.85416 2.83105V3.6621H13.6851V2.83105C13.6851 2.37231 14.0574 2 14.518 2C14.9787 2 15.351 2.37231 15.351 2.83105V3.6621C17.6476 3.6621 19.516 5.52614 19.516 7.81734ZM19.381 17.6403L14.5255 15.7356V11.1964C14.5255 10.3687 13.9583 9.60076 13.1395 9.4678C12.0957 9.29826 11.1936 10.0977 11.1936 11.1075V19.3548C10.2973 18.6185 9.43517 17.8988 9.40684 17.8722C8.63883 17.1567 7.43017 17.1965 6.71213 17.9628C5.99327 18.7298 6.02992 19.934 6.79377 20.6471L8.31063 22H22.0233V21.5072C22.0233 19.7994 20.9754 18.2653 19.3819 17.6403H19.381ZM9.52679 15.9932V11.1083C9.52679 10.5266 9.69422 9.97307 9.97494 9.47943H2.02325V14.4657C2.02325 16.2226 3.12613 17.7201 4.67465 18.3268C4.82209 17.7841 5.08448 17.2664 5.49514 16.8284C6.5522 15.699 8.17986 15.4098 9.52679 15.9932ZM19.2719 15.812C19.4193 15.3874 19.516 14.9394 19.516 14.4657V9.47943H15.7342C16.0249 9.98886 16.1915 10.5781 16.1915 11.1972V14.6037L19.2719 15.812Z" fill="#5600D6"/>
</svg>
