<svg width="20" height="20" viewBox="0 0 20 20" fill="none" xmlns="http://www.w3.org/2000/svg">
<g clip-path="url(#clip0_580_5428)">
<path d="M1.33917 15C2.02847 16.1963 3.5571 16.6073 4.75343 15.918C4.75425 15.9176 4.75503 15.9171 4.75585 15.9166L5.12667 15.7025C5.82667 16.3014 6.63128 16.7658 7.49999 17.0725V17.5C7.49999 18.8807 8.61929 20 9.99999 20C11.3807 20 12.5 18.8807 12.5 17.5V17.0725C13.3688 16.7654 14.1735 16.3004 14.8733 15.7008L15.2458 15.9158C16.4424 16.6062 17.9721 16.1958 18.6625 14.9991C19.3528 13.8025 18.9425 12.2728 17.7458 11.5825L17.3758 11.3691C17.5424 10.4629 17.5424 9.53379 17.3758 8.62746L17.7458 8.41414C18.9424 7.72379 19.3528 6.1941 18.6625 4.99746C17.9721 3.80086 16.4425 3.39043 15.2458 4.08078L14.875 4.29496C14.1743 3.6968 13.3691 3.2332 12.5 2.9275V2.5C12.5 1.1193 11.3807 0 9.99999 0C8.61929 0 7.49999 1.1193 7.49999 2.5V2.9275C6.63116 3.23465 5.82651 3.69965 5.12667 4.29918L4.75417 4.08336C3.55753 3.39297 2.02784 3.8034 1.33749 5C0.647138 6.1966 1.05753 7.72633 2.25417 8.41668L2.62417 8.63C2.45761 9.53629 2.45761 10.4654 2.62417 11.3717L2.25417 11.585C1.06085 12.2772 0.651787 13.8039 1.33917 15ZM9.99999 6.66668C11.8409 6.66668 13.3333 8.15906 13.3333 10C13.3333 11.8409 11.8409 13.3333 9.99999 13.3333C8.15905 13.3333 6.66667 11.8409 6.66667 10C6.66667 8.15906 8.15905 6.66668 9.99999 6.66668Z" fill="#6A6A6A"/>
</g>
<defs>
<clipPath id="clip0_580_5428">
<rect width="20" height="20" fill="white"/>
</clipPath>
</defs>
</svg>
