<svg width="32" height="32" viewBox="0 0 32 32" fill="none" xmlns="http://www.w3.org/2000/svg">
<g clip-path="url(#clip0_580_5358)">
<path d="M26.9867 10.5998L8.24001 29.4798C7.00001 30.7198 5.14667 30.9731 3.64001 30.2531L2.28001 31.6131C2.01334 31.8798 1.68001 31.9998 1.33334 31.9998C0.986674 31.9998 0.65334 31.8664 0.386674 31.6131C-0.133326 31.0931 -0.133326 30.2531 0.386674 29.7331L1.74667 28.3731C1.02667 26.8664 1.26667 25.0131 2.52001 23.7598L19.1867 7.01309C17.7333 6.43976 15.96 6.70643 14.8133 7.85309L10.7733 11.8931C10.5067 12.1598 10.1733 12.2798 9.82667 12.2798C9.48001 12.2798 9.14667 12.1464 8.88001 11.8931C8.36001 11.3731 8.36001 10.5331 8.88001 10.0131L12.92 5.97309C14.1733 4.71976 15.8533 4.02643 17.64 4.02643C19.2267 4.02643 20.7067 4.59976 21.8933 5.59976C21.9467 5.59976 26.9733 10.6131 26.9733 10.6131L26.9867 10.5998ZM30.4533 0.866426C28.88 -0.426907 26.4533 -0.253574 24.9467 1.26643L23.1733 3.03976L28.8667 8.73309L30.76 6.83976C31.56 6.03976 31.9867 4.91976 31.9333 3.78643C31.88 2.65309 31.3333 1.58643 30.4533 0.866426Z" fill="#5600D6"/>
</g>
<defs>
<clipPath id="clip0_580_5358">
<rect width="32" height="32" fill="white"/>
</clipPath>
</defs>
</svg>
