<svg width="32" height="32" viewBox="0 0 32 32" fill="none" xmlns="http://www.w3.org/2000/svg">
<g clip-path="url(#clip0_580_5366)">
<path d="M32 9.33333V6.66667H29.3333C29.3333 4.46133 27.5387 2.66667 25.3333 2.66667V0H22.6667V2.66667H20V0H17.3333V2.66667H14.6667V0H12V2.66667H9.33333V0H6.66667V2.66667C4.46133 2.66667 2.66667 4.46133 2.66667 6.66667H0V9.33333H2.66667V12H0V14.6667H2.66667V17.3333H0V20H2.66667V22.6667H0V25.3333H2.66667V29.3333H6.66667V32H9.33333V29.3333H12V32H14.6667V29.3333H17.3333V32H20V29.3333H22.6667V32H25.3333V29.3333H29.3333V25.3333H32V22.6667H29.3333V20H32V17.3333H29.3333V14.6667H32V12H29.3333V9.33333H32ZM26.6667 26.6667H5.33333V6.66667C5.33333 5.93067 5.932 5.33333 6.66667 5.33333H25.3333C26.068 5.33333 26.6667 5.93067 26.6667 6.66667V26.6667ZM14.5013 9.57333C12.7507 8.84 10.9667 9.868 10.5853 11.5173L8 22.6667H10.7373L11.0467 21.3333H15.62L15.9293 22.6667H18.6667L16.104 11.612C15.8987 10.7293 15.3373 9.924 14.5013 9.57467V9.57333ZM11.6653 18.6667L13.1827 12.12C13.1987 12.0493 13.2613 12 13.3333 12C13.4053 12 13.468 12.0493 13.484 12.12L15.0013 18.6667H11.6653ZM20 9.33333H22.6667V22.6667H20V9.33333Z" fill="#5600D6"/>
</g>
<defs>
<clipPath id="clip0_580_5366">
<rect width="32" height="32" fill="white"/>
</clipPath>
</defs>
</svg>
