<svg width="32" height="32" viewBox="0 0 32 32" fill="none" xmlns="http://www.w3.org/2000/svg">
<g clip-path="url(#clip0_580_5374)">
<path d="M6.00001 9.33351C5.3869 9.33523 4.77955 9.21533 4.2131 8.98074C3.64666 8.74615 3.13237 8.40153 2.7 7.96684L0.666671 6.16017C0.270615 5.80655 0.0312551 5.31008 0.00124927 4.77998C-0.0136081 4.5175 0.0233793 4.25466 0.1101 4.00647C0.19682 3.75829 0.331575 3.52961 0.506671 3.33351C0.681767 3.1374 0.893775 2.9777 1.13059 2.86353C1.3674 2.74935 1.62439 2.68294 1.88687 2.66808C2.41697 2.63808 2.93728 2.81988 3.33334 3.17351L5.44534 5.05884C5.51411 5.14011 5.59881 5.20641 5.69421 5.25365C5.78961 5.30089 5.89369 5.32807 6.00001 5.33351C6.17648 5.33347 6.34573 5.26346 6.47067 5.13884L11.288 0.552172C11.6748 0.202167 12.183 0.0171365 12.7043 0.036542C13.2256 0.0559474 13.7187 0.278253 14.0784 0.656047C14.4381 1.03384 14.636 1.53722 14.6298 2.05883C14.6236 2.58044 14.4139 3.079 14.0453 3.44817L9.26401 8.00017C8.83441 8.42621 8.32496 8.76328 7.76486 8.99208C7.20477 9.22088 6.60502 9.3369 6.00001 9.33351ZM32 4.66684C32 4.13641 31.7893 3.6277 31.4142 3.25263C31.0391 2.87755 30.5304 2.66684 30 2.66684H19.3333C18.8029 2.66684 18.2942 2.87755 17.9191 3.25263C17.5441 3.6277 17.3333 4.13641 17.3333 4.66684C17.3333 5.19727 17.5441 5.70598 17.9191 6.08105C18.2942 6.45613 18.8029 6.66684 19.3333 6.66684H30C30.5304 6.66684 31.0391 6.45613 31.4142 6.08105C31.7893 5.70598 32 5.19727 32 4.66684ZM9.26401 18.6668L14.0453 14.1148C14.4139 13.7457 14.6236 13.2471 14.6298 12.7255C14.636 12.2039 14.4381 11.7005 14.0784 11.3227C13.7187 10.9449 13.2256 10.7226 12.7043 10.7032C12.183 10.6838 11.6748 10.8688 11.288 11.2188L6.47067 15.8055C6.34565 15.9305 6.17611 16.0007 5.99934 16.0007C5.82256 16.0007 5.65302 15.9305 5.52801 15.8055L3.41467 13.6908C3.03948 13.3156 2.53061 13.1049 2 13.1049C1.4694 13.1049 0.960531 13.3156 0.585338 13.6908C0.210145 14.066 -0.000636353 14.5749 -0.000636353 15.1055C-0.000636353 15.6361 0.210145 16.145 0.585338 16.5202L2.7 18.6335C3.56929 19.5023 4.74619 19.9931 5.97515 19.9993C7.20412 20.0055 8.38594 19.5267 9.26401 18.6668ZM32 15.3335C32 14.8031 31.7893 14.2944 31.4142 13.9193C31.0391 13.5442 30.5304 13.3335 30 13.3335H19.3333C18.8029 13.3335 18.2942 13.5442 17.9191 13.9193C17.5441 14.2944 17.3333 14.8031 17.3333 15.3335C17.3333 15.8639 17.5441 16.3726 17.9191 16.7477C18.2942 17.1228 18.8029 17.3335 19.3333 17.3335H30C30.5304 17.3335 31.0391 17.1228 31.4142 16.7477C31.7893 16.3726 32 15.8639 32 15.3335ZM9.26401 29.3335L14.0453 24.7815C14.4139 24.4123 14.6236 23.9138 14.6298 23.3922C14.636 22.8706 14.4381 22.3672 14.0784 21.9894C13.7187 21.6116 13.2256 21.3893 12.7043 21.3699C12.183 21.3505 11.6748 21.5355 11.288 21.8855L6.47067 26.4722C6.34573 26.5968 6.17648 26.6668 6.00001 26.6668C5.89369 26.6614 5.78961 26.6342 5.69421 26.587C5.59881 26.5397 5.51411 26.4734 5.44534 26.3922L3.33334 24.5068C2.93728 24.1532 2.41697 23.9714 1.88687 24.0014C1.35676 24.0314 0.860293 24.2708 0.506671 24.6668C0.153049 25.0629 -0.0287566 25.5832 0.00124927 26.1133C0.0312551 26.6434 0.270615 27.1399 0.666671 27.4935L2.69734 29.3002C3.56673 30.1697 4.7442 30.661 5.97382 30.6673C7.20344 30.6735 8.38583 30.1942 9.26401 29.3335ZM32 26.0002C32 25.4697 31.7893 24.961 31.4142 24.586C31.0391 24.2109 30.5304 24.0002 30 24.0002H19.3333C18.8029 24.0002 18.2942 24.2109 17.9191 24.586C17.5441 24.961 17.3333 25.4697 17.3333 26.0002C17.3333 26.5306 17.5441 27.0393 17.9191 27.4144C18.2942 27.7895 18.8029 28.0002 19.3333 28.0002H30C30.5304 28.0002 31.0391 27.7895 31.4142 27.4144C31.7893 27.0393 32 26.5306 32 26.0002Z" fill="#5600D6"/>
</g>
<defs>
<clipPath id="clip0_580_5374">
<rect width="32" height="32" fill="white"/>
</clipPath>
</defs>
</svg>
