<svg width="18" height="18" viewBox="0 0 18 18" fill="none" xmlns="http://www.w3.org/2000/svg">
<g clip-path="url(#clip0_580_5338)">
<path d="M7.90494 11.6173C8.35194 12.0635 8.35194 12.788 7.90494 13.235L3.77395 17.366C2.88295 18.257 1.42045 18.2285 0.565446 17.2798C-0.235554 16.3903 -0.110304 14.9975 0.735696 14.1515L4.7782 10.109C5.22445 9.66277 5.94895 9.66202 6.3952 10.109L7.90419 11.618L7.90494 11.6173ZM11.9639 8.25202C12.9112 8.25352 13.8719 8.62777 14.5792 9.33577C14.9999 9.74977 15.5639 9.67027 15.7499 9.54202C17.1142 8.59777 18.0134 7.03477 18.0134 5.24977C18.0134 4.94002 17.9857 4.63702 17.9339 4.34227C17.8319 3.76627 17.1037 3.56152 16.6897 3.97477L15.4544 5.21002C14.5949 6.06952 13.4647 6.20152 12.7057 5.58052C11.8327 4.86652 11.7847 3.57652 12.5624 2.79877L14.0362 1.32502C14.4494 0.911023 14.2469 0.180523 13.6709 0.0785234C13.3762 0.0260234 13.0732 -0.000976562 12.7634 -0.000976562C10.5562 -0.000976562 8.6722 1.36252 7.8967 3.29227C7.74145 3.67777 7.83219 4.12102 8.12619 4.41427L11.9639 8.25127V8.25202ZM13.5187 10.3963C12.9479 9.82552 12.1454 9.64102 11.4157 9.82552L5.9992 4.40977V2.99902C5.9992 2.43502 5.6977 1.91302 5.2087 1.63102L2.6542 0.158023C2.1907 -0.109727 1.60495 -0.0324766 1.2262 0.346273L0.347196 1.22527C-0.0323036 1.60402 -0.109554 2.19052 0.158196 2.65402L1.63195 5.20927C1.91395 5.69827 2.4352 5.99902 2.9992 5.99902H4.4077L9.82569 11.4163C9.64194 12.1453 9.8257 12.9478 10.3964 13.5185L14.1892 17.2708C15.0494 18.131 16.5352 18.2128 17.3947 17.3518C18.2557 16.4893 18.1469 15.2015 17.3939 14.2303L13.5187 10.3963Z" fill="#6A6A6A"/>
</g>
<defs>
<clipPath id="clip0_580_5338">
<rect width="18" height="18" fill="white"/>
</clipPath>
</defs>
</svg>
