<svg width="18" height="18" viewBox="0 0 18 18" fill="none" xmlns="http://www.w3.org/2000/svg">
<g clip-path="url(#clip0_580_5342)">
<path d="M5.25 9.75C5.859 9.75 6.43725 9.927 6.93075 10.2285C5.89575 10.7325 5.0505 11.6527 4.63425 12.75H3C2.75325 12.75 2.523 12.6292 2.38275 12.426C2.2425 12.2227 2.211 11.9647 2.29875 11.7337C2.74875 10.5472 3.9345 9.74925 5.25 9.74925V9.75ZM9 9.75C10.2428 9.75 11.25 8.74275 11.25 7.5C11.25 6.25725 10.2428 5.25 9 5.25C7.75725 5.25 6.75 6.25725 6.75 7.5C6.75 8.74275 7.75725 9.75 9 9.75ZM3.0435 5.9715C3.0435 7.21425 4.05075 8.2215 5.2935 8.2215C5.30325 8.2215 5.31225 8.2185 5.322 8.2185C5.27625 7.98525 5.24925 7.746 5.24925 7.5C5.24925 6.21075 5.904 5.07225 6.89775 4.3965C6.48975 3.98025 5.922 3.72075 5.2935 3.72075C4.05075 3.72075 3.0435 4.72875 3.0435 5.9715ZM11.0693 10.2292C12.1042 10.7332 12.9495 11.6535 13.3657 12.7507H15C15.2467 12.7507 15.477 12.63 15.6173 12.4267C15.7575 12.2235 15.789 11.9655 15.7013 11.7345C15.2512 10.548 14.0655 9.75 12.75 9.75C12.141 9.75 11.5627 9.927 11.0693 10.2285V10.2292ZM12.75 3.75075C12.1193 3.75075 11.5507 4.0125 11.142 4.43025C12.1117 5.109 12.75 6.2295 12.75 7.50075C12.75 7.755 12.7238 8.00325 12.675 8.24325C12.7005 8.244 12.7245 8.25075 12.75 8.25075C13.9928 8.25075 15 7.2435 15 6.00075C15 4.758 13.9928 3.75075 12.75 3.75075ZM17.25 12.0007C16.836 12.0007 16.5 12.336 16.5 12.7507V14.2507C16.5 15.4912 15.4905 16.5007 14.25 16.5007H12.75C12.336 16.5007 12 16.836 12 17.2507C12 17.6655 12.336 18.0007 12.75 18.0007H14.25C16.3177 18.0007 18 16.3185 18 14.2507V12.7507C18 12.336 17.664 12.0007 17.25 12.0007ZM14.25 0H12.75C12.336 0 12 0.33525 12 0.75C12 1.16475 12.336 1.5 12.75 1.5H14.25C15.4905 1.5 16.5 2.5095 16.5 3.75V5.25C16.5 5.66475 16.836 6 17.25 6C17.664 6 18 5.66475 18 5.25V3.75C18 1.68225 16.3177 0 14.25 0ZM5.25 16.5H3.75C2.5095 16.5 1.5 15.4905 1.5 14.25V12.75C1.5 12.3352 1.164 12 0.75 12C0.336 12 0 12.3352 0 12.75V14.25C0 16.3177 1.68225 18 3.75 18H5.25C5.664 18 6 17.6647 6 17.25C6 16.8352 5.664 16.5 5.25 16.5ZM9 11.25C7.6845 11.25 6.49875 12.0472 6.04875 13.2345C5.961 13.4655 5.9925 13.7235 6.13275 13.9267C6.273 14.13 6.50325 14.2507 6.75 14.2507H11.25C11.4967 14.2507 11.727 14.13 11.8673 13.9267C12.0075 13.7235 12.039 13.4655 11.9513 13.2345C11.5013 12.048 10.3155 11.25 9 11.25ZM0.75 6C1.164 6 1.5 5.66475 1.5 5.25V3.75C1.5 2.5095 2.5095 1.5 3.75 1.5H5.25C5.664 1.5 6 1.16475 6 0.75C6 0.33525 5.664 0 5.25 0H3.75C1.68225 0 0 1.68225 0 3.75V5.25C0 5.66475 0.336 6 0.75 6Z" fill="#6A6A6A"/>
</g>
<defs>
<clipPath id="clip0_580_5342">
<rect width="18" height="18" fill="white"/>
</clipPath>
</defs>
</svg>
