<svg width="18" height="18" viewBox="0 0 18 18" fill="none" xmlns="http://www.w3.org/2000/svg">
<g clip-path="url(#clip0_580_5350)">
<path d="M1.20524 13.5C1.8256 14.5767 3.20137 14.9466 4.27807 14.3262C4.27881 14.3258 4.27951 14.3254 4.28025 14.325L4.61399 14.1322C5.24399 14.6712 5.96814 15.0892 6.74998 15.3652V15.75C6.74998 16.9926 7.75734 18 8.99998 18C10.2426 18 11.25 16.9926 11.25 15.75V15.3652C12.0319 15.0888 12.7561 14.6703 13.386 14.1307L13.7212 14.3242C14.7982 14.9456 16.1749 14.5762 16.7962 13.4992C17.4175 12.4223 17.0482 11.0455 15.9712 10.4242L15.6382 10.2322C15.7881 9.41657 15.7881 8.58041 15.6382 7.76472L15.9712 7.57273C17.0482 6.95141 17.4175 5.57469 16.7962 4.49771C16.1749 3.42077 14.7982 3.05139 13.7212 3.6727L13.3875 3.86546C12.7568 3.32712 12.0322 2.90988 11.25 2.63475V2.25C11.25 1.00737 10.2426 0 8.99998 0C7.75734 0 6.74998 1.00737 6.74998 2.25V2.63475C5.96803 2.91118 5.24385 3.32968 4.61399 3.86926L4.27874 3.67502C3.20176 3.05367 1.82504 3.42306 1.20373 4.5C0.582409 5.57694 0.951761 6.9537 2.02874 7.57501L2.36174 7.767C2.21183 8.58266 2.21183 9.41882 2.36174 10.2345L2.02874 10.4265C0.954749 11.0495 0.586593 12.4235 1.20524 13.5ZM8.99998 6.00001C10.6568 6.00001 12 7.34316 12 9C12 10.6568 10.6568 12 8.99998 12C7.34313 12 5.99999 10.6568 5.99999 9C5.99999 7.34316 7.34313 6.00001 8.99998 6.00001Z" fill="#6A6A6A"/>
</g>
<defs>
<clipPath id="clip0_580_5350">
<rect width="18" height="18" fill="white"/>
</clipPath>
</defs>
</svg>
